<?xml version="1.0" encoding="UTF-8"?>
<!DOCTYPE svg PUBLIC "-//W3C//DTD SVG 1.1//EN" "http://www.w3.org/Graphics/SVG/1.1/DTD/svg11.dtd">
<svg version="1.1" xmlns="http://www.w3.org/2000/svg" xmlns:xlink="http://www.w3.org/1999/xlink" x="0" y="0" width="800" height="300" viewBox="0, 0, 800, 300">
  <defs>
    <clipPath id="Clip_1">
      <path d="M300.151,-13.059 L810,-13.059 L810,313 L300.151,313 z M799,-2.059 L311.151,-2.059 L373.19,302 L373.19,298.853 L799,298.853 L799,-2.059 z"/>
    </clipPath>
    <filter id="Shadow_2">
      <feGaussianBlur in="SourceAlpha" stdDeviation="5"/>
      <feOffset dx="0" dy="0" result="offsetblur"/>
      <feFlood flood-color="#000000"/>
      <feComposite in2="offsetblur" operator="in"/>
    </filter>
    <clipPath id="Clip_3">
      <path d="M-12,-13.059 L146.303,-13.059 L146.303,308.94 L-12,308.94 z M73.264,-2.059 L73.264,-1.138 L-1,-1.138 L-1,297.94 L135.303,297.94 L73.264,-2.059 z"/>
    </clipPath>
    <filter id="Shadow_4">
      <feGaussianBlur in="SourceAlpha" stdDeviation="5"/>
      <feOffset dx="0" dy="0" result="offsetblur"/>
      <feFlood flood-color="#000000"/>
      <feComposite in2="offsetblur" operator="in"/>
    </filter>
  </defs>
  <g id="Ebene_2">
    <path d="M150,-100 L650,-100 L650,400 L150,400 L150,-100 z" fill="#F1A315" display="none"/>
    <path d="M74.362,1.423 L380.637,1.423 L380.637,298.72 L74.362,298.72 L74.362,1.423 z" fill="#000000"/>
  </g>
  <g id="bodies">
    <path d="M199.082,139.038 C179.501,138.611 134.67,158.653 190.241,188.077 C245.813,217.5 255.286,140.264 199.082,139.038 z" fill="#FFA500"/>
    <path d="M296.333,134.747 C277.922,123.781 234.446,133.521 246.445,174.591 C258.443,215.661 351.904,167.848 296.333,134.747 z" fill="#FFA500"/>
    <path d="M195.293,20.119 C173.68,19.653 141.616,60.576 178.875,82.03 C216.133,103.485 235.917,68.156 224.342,47.09 C219.29,37.895 223.711,20.732 195.293,20.119 z" fill="#FFA500"/>
    <path d="M285.597,29.927 C262.216,23.179 217.396,45.251 255.917,73.449 C294.438,101.646 332.328,43.412 285.597,29.927 z" fill="#FFA500"/>
    <path d="M338.643,77.739 C318.612,70.517 278.651,71.61 278.019,105.324 C277.388,139.038 328.539,140.264 349.378,134.134 C370.218,128.004 360.745,85.708 338.643,77.739 z" fill="#FFA500"/>
    <path d="M110.042,162.331 C130.538,154.303 154.246,149.459 166.876,180.721 C179.506,211.983 154.878,219.952 132.775,216.274 C110.673,212.596 74.046,176.43 110.042,162.331 z" fill="#FFA500"/>
    <path d="M195.293,205.853 C182.077,199.973 144.142,213.209 164.35,238.341 C184.558,263.474 255.917,232.825 195.293,205.853 z" fill="#FFA500"/>
    <path d="M247.708,197.271 C230.765,201.009 202.24,230.373 237.604,248.149 C272.967,265.926 338.643,248.149 315.278,223.017 C291.912,197.884 275.493,191.142 247.708,197.271 z" fill="#FFA500"/>
    <path d="M151.72,41.573 C153.529,62.637 165.613,88.16 130.249,90.612 C94.886,93.064 82.256,29.927 108.779,26.862 C135.301,23.797 150.457,26.862 151.72,41.573 z" fill="#FFA500"/>
    <path d="M180.769,2.342 C180.769,2.342 173.823,27.475 139.09,23.797 C104.358,20.119 95.517,1.116 95.517,1.116 L180.769,2.342 z" fill="#FFA500"/>
    <path d="M193.399,1.729 C193.399,1.729 196.556,17.667 214.87,21.345 C233.183,25.023 230.026,37.895 240.13,37.282 C250.234,36.669 276.756,10.311 265.389,2.342 L193.399,1.729 z" fill="#FFA500"/>
    <path d="M326.013,148.233 C316.552,150.025 326.013,160.492 320.33,167.235 C314.646,173.978 295.07,186.238 308.331,202.175 C321.593,218.113 356.956,210.144 363.271,184.399 C369.586,158.653 351.904,143.329 326.013,148.233 z" fill="#FFA500"/>
    <path d="M238.867,74.062 C228.869,72.641 212.344,98.581 216.133,108.389 C219.922,118.196 197.188,129.23 225.605,138.425 C254.023,147.62 267.915,119.422 269.178,109.615 C270.441,99.807 264.758,77.739 238.867,74.062 z" fill="#FFA500"/>
    <path d="M202.871,101.646 C195.487,97.008 152.983,82.03 138.459,99.807 C123.934,117.583 132.775,131.682 153.615,137.199 C174.454,142.716 188.347,121.261 198.451,117.583 C208.555,113.906 213.607,108.389 202.871,101.646 z" fill="#FFA500"/>
    <path d="M320.961,3.568 C320.961,3.568 295.701,17.667 322.224,38.508 C348.747,59.35 389.794,26.249 368.323,2.342 L320.961,3.568 z" fill="#FFA500"/>
    <path d="M283.071,1.729 C283.071,1.729 266.021,14.602 280.545,21.345 C295.07,28.088 314.646,7.246 298.859,1.729 L283.071,1.729 z" fill="#FFA500"/>
    <path d="M335.486,51.994 C322.362,48.52 304.542,58.124 319.067,66.093 C333.591,74.062 370.218,61.189 335.486,51.994 z" fill="#FFA500"/>
    <path d="M379.69,35.443 C379.69,35.443 351.904,47.09 355.693,70.384 C359.482,93.677 380.953,102.872 380.953,102.872 L379.69,35.443 z" fill="#FFA500"/>
    <path d="M91.728,2.342 C91.728,2.342 112.568,36.669 75.309,29.927 L75.151,0.963 L91.728,2.342 z" fill="#FFA500"/>
    <path d="M102.464,155.588 C117.532,157.164 135.301,140.264 122.671,126.165 C110.042,112.067 104.358,80.804 89.834,80.191 C75.309,79.578 61.416,151.298 102.464,155.588 z" fill="#FFA500"/>
    <path d="M141.616,226.695 C130.937,218.655 101.201,209.531 93.623,231.599 C86.045,253.666 81.624,268.991 110.042,275.12 C138.459,281.25 172.56,249.988 141.616,226.695 z" fill="#FFA500"/>
    <path d="M75.309,185.625 C75.309,185.625 82.256,178.269 87.939,185.625 C93.623,192.981 100.569,224.856 88.571,226.082 C76.572,227.308 75.309,218.726 75.309,218.726 L75.309,185.625 z" fill="#FFA500"/>
    <path d="M220.553,198.497 C215.241,195.183 207.292,204.014 216.133,207.079 C224.974,210.144 229.394,204.014 220.553,198.497 z" fill="#FFA500"/>
    <path d="M362.008,216.887 C345.777,214.484 336.749,241.406 344.326,249.375 C351.904,257.344 339.906,270.217 353.799,278.798 C367.692,287.38 399.267,222.404 362.008,216.887 z" fill="#FFA500"/>
    <path d="M378.427,187.464 C374.638,181.947 355.693,199.723 362.64,207.692 C369.586,215.661 376.533,207.692 378.427,200.949 C380.322,194.206 378.427,187.464 378.427,187.464 z" fill="#FFA500"/>
    <path d="M303.911,292.284 C318.467,293.069 347.484,274.508 336.749,257.344 C326.013,240.18 284.966,261.635 281.808,274.508 C278.651,287.38 281.177,291.058 303.911,292.284 z" fill="#FFA500"/>
    <path d="M223.079,249.988 C207.205,243.469 160.561,261.635 185.19,278.185 C209.818,294.736 264.126,285.541 257.812,270.83 C251.497,256.118 239.498,256.731 223.079,249.988 z" fill="#FFA500"/>
    <path d="M118.882,297.188 C118.882,297.188 139.722,264.7 159.298,265.926 C178.875,267.152 192.767,297.188 192.767,297.188 C192.767,297.188 118.882,297.188 118.882,297.188 z" fill="#FFA500"/>
    <path d="M112.568,298.414 C112.568,298.414 110.042,283.702 92.991,283.089 C75.941,282.476 76.572,297.188 76.572,297.188 L112.568,298.414 z" fill="#FFA500"/>
    <path d="M282.44,297.801 C282.44,297.801 284.966,284.928 271.073,284.315 C257.18,283.702 252.128,297.801 252.128,297.801 L282.44,297.801 z" fill="#FFA500"/>
    <path d="M324.119,298.414 C324.119,298.414 329.802,284.315 340.537,284.315 C351.273,284.315 358.219,299.64 358.219,299.64 L324.119,298.414 z" fill="#FFA500"/>
    <path d="M380.953,298.414 C380.953,298.414 369.586,300.253 369.586,287.38 C369.586,274.508 381.585,267.765 381.585,267.765 L380.953,298.414 z" fill="#FFA500"/>
    <path d="M332.96,219.339 C328.578,219.906 316.541,235.889 327.908,239.567 C339.274,243.245 342.432,218.113 332.96,219.339 z" fill="#FFA500"/>
    <path d="M150.457,142.103 C146.047,138.678 127.092,140.264 143.511,147.007 C159.93,153.75 156.772,147.007 150.457,142.103 z" fill="#FFA500"/>
    <path d="M74.046,42.799 C74.046,42.799 86.676,40.347 87.939,53.22 C89.202,66.093 74.678,75.287 74.678,75.287 L74.046,42.799 z" fill="#FFA500"/>
    <path d="M380.48,118.35 C380.164,117.737 378.585,109.461 371.007,110.381 C363.429,111.3 358.377,148.999 367.85,155.742 C377.322,162.485 379.532,157.887 379.532,157.887 C379.532,157.887 380.48,118.35 380.48,118.35 z" fill="#FFA500"/>
  </g>
  <g id="feets">
    <path d="M133.407,108.082 L121.093,107.163 C121.093,107.163 117.304,96.129 107.516,93.677 C107.516,93.677 113.515,104.404 116.356,111.147 C118.878,117.131 119.198,112.373 119.83,110.534 C119.83,110.534 134.038,110.534 134.038,110.534" fill="#FFA500"/>
    <path d="M131.828,120.955 L127.723,123.1 C127.723,123.1 126.46,120.648 123.303,122.794 C123.303,122.794 132.46,130.15 128.986,135.36 C128.986,135.36 135.301,132.295 130.249,126.472 L133.249,121.721 L131.828,120.955 z" fill="#FFA500"/>
    <path d="M142.879,147.62 L138.775,152.217 C138.775,152.217 135.617,147.313 129.302,151.298 C129.302,151.298 139.406,153.75 139.406,153.75 C139.406,153.75 143.511,147.313 143.511,147.313 L142.879,147.62 z" fill="#FFA500"/>
    <path d="M146.668,147.926 C146.668,147.926 143.195,155.282 143.195,155.282 L151.404,158.04 C151.404,158.04 149.194,154.362 145.09,154.362 L146.668,147.926 z" fill="#FFA500"/>
    <path d="M108.463,153.137 C107.853,153.296 115.093,153.137 113.83,158.347 C113.83,158.347 130.249,151.911 137.512,155.282 C137.512,155.282 132.144,149.459 116.988,155.588 C116.988,155.588 116.672,150.991 108.463,153.137 z" fill="#FFA500"/>
    <path d="M102.148,154.669 C102.852,154.623 96.893,162.331 102.148,162.331 C102.779,162.331 90.465,169.074 93.307,180.721 C93.307,180.721 86.36,171.526 96.464,164.17 C96.464,164.17 97.412,154.975 102.148,154.669 z" fill="#FFA500"/>
    <path d="M97.727,37.895 L89.518,35.137 C89.518,35.137 89.202,33.911 91.728,50.155 C91.728,50.155 94.57,54.14 93.623,39.734 L97.727,40.96 L97.727,37.895 z" fill="#FFA500"/>
    <path d="M146.668,32.379 C146.668,32.379 150.773,31.153 150.773,31.153 C150.773,31.153 148.879,28.088 152.036,27.168 C155.193,26.249 160.561,39.121 160.561,39.121 C160.561,39.121 155.825,40.654 152.352,32.685 L147.931,33.911" fill="#FFA500"/>
    <path d="M181.085,81.417 C181.085,81.724 177.927,87.547 177.927,87.547 C177.927,87.547 162.771,82.643 157.719,89.08 C157.719,89.08 176.98,88.773 183.927,92.451 C183.927,92.451 184.874,87.547 181.716,87.241 L183.611,82.95 L194.03,86.321 L192.767,90.612 C192.767,90.612 188.978,89.693 187.715,92.451 C187.715,92.451 202.556,96.129 207.923,102.872 C207.923,102.872 209.186,94.596 197.188,91.532 L197.819,86.015 L181.085,81.417 z" fill="#FFA500"/>
    <path d="M257.496,252.747 L265.389,281.25 C265.389,281.25 246.445,283.702 251.812,293.51 C251.812,293.51 257.812,282.476 270.757,283.702 C270.757,283.702 271.704,280.331 268.231,280.331 L265.389,253.666 L273.915,254.279 L273.915,281.557 C273.915,281.557 277.072,283.396 278.335,284.622 C278.335,284.622 278.651,280.944 276.441,279.718 L280.861,251.827 L257.496,252.747 z" fill="#FFA500"/>
    <path d="M210.134,285.541 L208.871,292.591 C208.871,292.591 197.819,288.606 195.293,297.494 L213.607,297.801 C213.607,297.801 215.501,294.123 211.081,293.51 L215.186,285.848 L223.711,286.154 L223.079,295.042 C223.079,295.042 218.975,294.736 218.975,298.72 L239.498,298.107 C239.498,298.107 235.078,290.445 224.974,294.43 L228.131,284.928 L210.134,285.541 z" fill="#FFA500"/>
    <path d="M108.147,274.201 L105.621,282.476 C105.621,282.476 95.201,277.879 87.623,281.557 C87.623,281.557 91.412,273.588 103.411,278.492 L107.2,272.362 L108.147,274.201 z" fill="#FFA500"/>
    <path d="M148.879,259.183 L151.72,263.474 C151.72,263.474 165.929,261.022 170.034,267.458 C170.034,267.458 178.875,256.118 154.562,259.489 L149.826,256.731 L148.879,259.183 z" fill="#FFA500"/>
    <path d="M163.403,236.809 L155.825,241.713 C155.825,241.713 149.826,227.001 141.616,224.549 C141.616,224.549 147.616,217.5 157.404,237.115 L163.087,235.276 L163.403,236.809 z" fill="#FFA500"/>
    <path d="M197.188,245.697 L197.819,249.988 C197.819,249.988 216.764,244.778 222.132,248.762 C222.132,248.762 222.132,240.793 201.608,247.843 L201.293,244.165 L197.188,245.697 z" fill="#FFA500"/>
    <path d="M87.623,223.63 L86.045,276.653 C86.045,276.653 87.308,277.266 90.149,277.572 C90.149,277.572 85.097,279.411 83.519,282.17 C81.94,284.928 79.414,280.024 82.887,276.959 C82.887,276.959 88.255,243.245 86.676,225.162 L83.203,223.63 C83.203,223.63 78.467,278.185 79.73,283.396 C79.73,283.396 73.415,288.913 74.046,295.655 C74.046,295.655 71.52,285.848 76.888,283.089 C76.888,283.089 83.834,236.196 81.94,222.71" fill="#FFA500"/>
    <path d="M106.253,196.965 C106.253,196.965 101.516,208.305 103.727,214.129 C103.727,214.129 95.833,215.967 97.727,222.404 C97.727,222.404 105.937,215.048 110.042,216.58 C110.042,216.58 110.357,213.516 106.884,213.209 C106.884,213.209 105.621,202.175 110.357,204.627 C115.093,207.079 117.619,213.516 116.988,213.516 C116.356,213.516 113.515,212.903 113.515,216.274 C113.515,216.274 125.513,215.661 130.249,219.339 C130.249,219.339 134.038,216.274 119.83,213.516 C119.83,213.516 121.408,210.144 119.514,207.386 C117.619,204.627 106.253,196.965 106.253,196.965 z" fill="#FFA500"/>
    <path d="M216.764,206.773 L213.607,213.516 C213.607,213.516 208.871,206.773 204.134,208.918 C204.134,208.918 211.081,211.983 214.238,216.274 L217.08,206.773 L216.764,206.773 z" fill="#FFA500"/>
    <path d="M219.29,207.079 L221.185,218.113 C221.185,218.113 224.658,211.677 228.447,207.692 C228.447,207.692 223.079,207.079 221.501,213.822 L219.29,207.079 z" fill="#FFA500"/>
    <path d="M231.92,185.012 C231.92,185.012 230.341,191.755 238.235,194.207 C238.235,194.207 227.815,197.884 230.026,205.547 C230.026,205.547 241.393,193.9 248.339,195.126 C248.339,195.126 244.55,190.222 241.708,192.674 C241.708,192.674 233.815,193.291 233.815,181.947 C233.815,181.334 231.92,185.012 231.92,185.012 z" fill="#FFA500"/>
    <path d="M284.65,187.464 C284.65,187.464 287.808,192.061 283.703,195.432 C283.703,195.432 294.438,198.804 300.753,207.386 C300.753,207.386 302.332,198.497 288.755,194.513 C288.755,194.513 289.702,187.77 287.808,185.625 L284.65,187.464 z" fill="#FFA500"/>
    <path d="M281.177,188.69 C281.177,188.69 280.861,194.513 280.545,194.819 C280.23,195.126 277.388,193.9 277.388,193.9 C277.388,193.9 278.019,189.916 276.756,187.77 L281.177,188.69 z" fill="#FFA500"/>
    <path d="M235.709,166.622 C235.709,166.622 238.551,164.17 240.445,164.783 C240.445,164.783 240.761,168.461 243.287,168.461 C243.287,168.461 240.13,149.152 248.023,144.861 C248.023,144.861 236.656,142.716 240.13,162.025 L233.499,163.557 L235.709,166.622 z" fill="#FFA500"/>
    <path d="M123.934,290.752 L121.408,287.993 C121.408,287.993 127.092,281.557 123.303,279.411 C119.514,277.266 112.252,288.606 114.462,290.445 C116.672,292.284 119.198,290.445 119.198,290.445 L123.303,292.284 L123.934,290.752 z" fill="#FFA500"/>
    <path d="M326.013,235.889 C326.486,235.093 321.908,243.552 321.908,248.456 C321.908,248.456 314.33,246.617 311.804,251.214 C311.804,251.214 318.435,247.843 325.066,249.988 L324.119,248.456 C324.119,248.456 321.277,243.858 326.013,235.889 z" fill="#FFA500"/>
    <path d="M330.434,237.728 C330.209,237.354 332.328,245.391 328.855,249.682 C328.855,249.682 333.907,250.295 335.486,253.973 C335.486,253.973 336.433,249.375 331.697,248.456 C331.697,248.456 332.644,241.406 330.434,237.728 z" fill="#FFA500"/>
    <path d="M230.026,80.191 L226.868,78.046 C226.868,78.046 221.185,90.306 214.554,87.854 C214.554,87.854 226.552,78.046 227.184,69.771 C227.184,69.771 229.71,72.223 228.131,74.981 L232.236,78.352 L230.026,80.191 z" fill="#FFA500"/>
    <path d="M266.337,94.903 L273.283,94.903 C273.283,94.903 272.02,90.919 278.967,90.919 C278.967,90.919 270.757,106.55 278.651,116.97 C278.651,116.97 266.652,122.181 272.967,97.355 L266.652,98.274 L266.337,94.903 z" fill="#FFA500"/>
    <path d="M242.34,56.898 C242.34,56.898 236.341,53.526 232.552,57.204 C232.552,57.204 230.657,61.802 228.763,61.495 C228.763,61.495 230.341,52.301 224.974,45.558 C224.974,45.558 230.026,44.945 232.867,55.059 C232.867,55.059 239.498,51.994 241.708,54.446" fill="#FFA500"/>
    <path d="M259.706,73.755 C259.706,73.755 258.443,77.739 256.864,77.433 C255.286,77.126 254.023,76.207 252.444,77.126 C252.444,77.126 263.811,82.643 266.652,90.612 C266.652,90.612 268.863,85.402 260.653,79.272 C260.653,79.272 262.232,77.126 261.916,75.9 C261.601,74.674 259.706,73.755 259.706,73.755 z" fill="#FFA500"/>
    <path d="M326.96,208.305 C326.96,208.305 322.856,214.741 327.908,220.871 L322.224,228.227 C322.224,228.227 318.751,223.017 324.119,220.258 C324.119,220.258 321.908,212.596 325.382,207.692 C328.855,202.788 326.96,208.305 326.96,208.305 z" fill="#FFA500"/>
    <path d="M341.169,207.079 C340.123,206.644 346.537,219.645 339.274,220.565 L339.906,230.679 C339.906,230.679 345.905,228.84 341.8,221.791 C341.8,221.791 350.01,210.757 341.169,207.079 z" fill="#FFA500"/>
    <path d="M316.225,135.36 C316.541,135.053 313.383,140.57 319.698,143.942 C319.698,143.942 310.857,154.056 318.119,158.347 C318.119,158.347 317.804,153.75 320.33,150.072 C322.856,146.394 324.119,146.087 326.013,146.394 C327.908,146.7 324.75,140.877 321.908,142.103 C319.067,143.329 316.856,136.892 320.645,135.36 C320.645,135.36 315.909,135.666 316.225,135.36 z" fill="#FFA500"/>
    <path d="M329.171,135.36 C329.171,135.36 336.117,136.586 335.17,140.264 C335.093,140.561 329.486,140.57 329.802,145.168 C329.802,145.168 343.379,142.716 350.01,148.539 C350.01,148.539 350.01,139.038 337.064,139.651 C337.064,139.651 338.327,135.053 332.012,135.053 L329.171,135.36 z" fill="#FFA500"/>
    <path d="M353.483,219.339 C354.122,220.083 347.8,215.967 352.22,212.903 C352.22,212.903 347.8,206.16 353.167,203.401 L354.746,214.129 C354.746,214.129 350.326,215.661 353.483,219.339 z" fill="#FFA500"/>
    <path d="M360.114,219.032 C360.296,219.283 354.778,212.596 357.904,212.596 C358.219,212.596 351.589,205.853 356.956,202.175 L360.43,213.209 C360.43,213.209 356.325,213.822 360.114,219.032 z" fill="#FFA500"/>
    <path d="M371.165,156.201 C371.165,156.201 366.113,154.975 367.06,160.186 C367.06,160.186 364.534,148.539 355.693,151.911 C355.693,151.911 365.797,157.427 366.429,168.155 C366.429,168.155 369.586,166.622 368.008,162.638 C368.008,162.638 369.586,156.508 374.638,157.427 L371.165,156.201 z" fill="#FFA500"/>
    <path d="M373.691,207.386 C373.691,207.386 372.112,212.903 374.638,215.967 C374.638,215.967 368.639,212.596 364.534,215.967 C364.534,215.967 374.007,216.274 377.796,223.323 C377.796,223.323 379.69,218.113 375.901,216.58 C375.901,216.58 372.428,210.451 375.585,205.24 L373.691,207.386 z" fill="#FFA500"/>
    <path d="M336.433,273.588 C336.433,273.588 336.671,276.271 339.275,278.798 C339.59,279.105 328.223,278.798 329.802,288.3 C329.802,288.3 335.801,279.718 344.958,283.089 C344.958,283.089 336.117,275.427 337.064,268.378 L336.433,273.588 z" fill="#FFA500"/>
    <path d="M336.749,260.102 C336.749,260.102 341.485,256.118 344.642,256.731 C344.642,256.731 344.642,252.134 342.432,250.295 C340.222,248.456 337.696,242.326 340.222,240.487 C340.222,240.487 332.96,242.939 340.853,253.666 L336.117,257.344" fill="#FFA500"/>
    <path d="M316.541,62.721 C316.284,62.543 319.698,69.158 314.646,72.223 C314.646,72.223 323.171,71.303 334.538,74.981 C334.538,74.981 336.117,70.69 318.119,70.077 C318.119,70.077 318.751,64.254 316.541,62.721 z" fill="#FFA500"/>
    <path d="M317.804,55.059 C317.804,55.059 322.54,49.849 323.171,44.945 C323.171,44.945 338.011,51.381 342.748,46.477 C342.748,46.477 330.434,47.703 322.224,40.654 C322.224,40.654 324.119,45.864 316.225,57.511" fill="#FFA500"/>
    <path d="M303.867,7.896 L311.342,9.176 C311.342,9.176 309.583,7.042 307.825,19.419 C307.825,19.419 299.91,18.993 307.385,10.456 L302.548,10.456 L303.867,7.896 z" fill="#FFA500"/>
  </g>
  <g id="eyes_white">
    <path d="M127.206,87.241 C125.573,87.241 124.25,85.956 124.25,84.372 C124.25,82.787 125.573,81.503 127.206,81.503 C128.838,81.503 130.161,82.787 130.161,84.372 C130.161,85.956 128.838,87.241 127.206,87.241 z" fill="#FFFFFF"/>
    <path d="M139.289,86.093 C137.61,86.093 136.249,84.772 136.249,83.142 C136.249,81.513 137.61,80.191 139.289,80.191 C140.968,80.191 142.329,81.513 142.329,83.142 C142.329,84.772 140.968,86.093 139.289,86.093 z" fill="#FFFFFF"/>
    <path d="M198.274,36.326 C195.93,36.326 194.03,34.482 194.03,32.207 C194.03,29.932 195.93,28.088 198.274,28.088 C200.618,28.088 202.518,29.932 202.518,32.207 C202.518,34.482 200.618,36.326 198.274,36.326 z" fill="#FFFFFF"/>
    <path d="M213.19,41.573 C210.846,41.573 208.946,39.729 208.946,37.454 C208.946,35.179 210.846,33.335 213.19,33.335 C215.534,33.335 217.434,35.179 217.434,37.454 C217.434,39.729 215.534,41.573 213.19,41.573 z" fill="#FFFFFF"/>
    <path d="M172.067,155.408 C170.811,155.408 169.792,154.419 169.792,153.2 C169.792,151.98 170.811,150.991 172.067,150.991 C173.324,150.991 174.343,151.98 174.343,153.2 C174.343,154.419 173.324,155.408 172.067,155.408 z" fill="#FFFFFF"/>
    <path d="M168.52,163.864 C167.263,163.864 166.245,162.875 166.245,161.655 C166.245,160.435 167.263,159.447 168.52,159.447 C169.776,159.447 170.795,160.435 170.795,161.655 C170.795,162.875 169.776,163.864 168.52,163.864 z" fill="#FFFFFF"/>
    <path d="M219.627,128.352 C217.697,128.352 216.133,126.833 216.133,124.96 C216.133,123.087 217.697,121.568 219.627,121.568 C221.557,121.568 223.122,123.087 223.122,124.96 C223.122,126.833 221.557,128.352 219.627,128.352 z" fill="#FFFFFF"/>
    <path d="M84.15,106.856 C81.534,106.856 79.414,104.798 79.414,102.259 C79.414,99.72 81.534,97.661 84.15,97.661 C86.766,97.661 88.886,99.72 88.886,102.259 C88.886,104.798 86.766,106.856 84.15,106.856 z" fill="#FFFFFF"/>
    <path d="M281.267,16.31 C280.171,16.31 279.282,15.447 279.282,14.383 C279.282,13.319 280.171,12.457 281.267,12.457 C282.363,12.457 283.252,13.319 283.252,14.383 C283.252,15.447 282.363,16.31 281.267,16.31 z" fill="#FFFFFF"/>
    <path d="M288.755,279.105 C287.011,279.105 285.597,277.733 285.597,276.04 C285.597,274.347 287.011,272.975 288.755,272.975 C290.499,272.975 291.912,274.347 291.912,276.04 C291.912,277.733 290.499,279.105 288.755,279.105 z" fill="#FFFFFF"/>
    <path d="M275.651,217.5 C271.03,217.5 267.284,213.864 267.284,209.378 C267.284,204.892 271.03,201.256 275.651,201.256 C280.272,201.256 284.019,204.892 284.019,209.378 C284.019,213.864 280.272,217.5 275.651,217.5 z" fill="#FFFFFF"/>
    <path d="M151.039,175.817 C148.919,175.817 147.2,174.149 147.2,172.091 C147.2,170.033 148.919,168.364 151.039,168.364 C153.159,168.364 154.878,170.033 154.878,172.091 C154.878,174.149 153.159,175.817 151.039,175.817 z" fill="#FFFFFF"/>
    <path d="M137.877,169.784 C135.757,169.784 134.038,168.116 134.038,166.058 C134.038,164 135.757,162.331 137.877,162.331 C139.997,162.331 141.716,164 141.716,166.058 C141.716,168.116 139.997,169.784 137.877,169.784 z" fill="#FFFFFF"/>
    <path d="M296.403,44.025 C295.338,44.025 294.475,43.188 294.475,42.154 C294.475,41.121 295.338,40.283 296.403,40.283 C297.467,40.283 298.33,41.121 298.33,42.154 C298.33,43.188 297.467,44.025 296.403,44.025 z" fill="#FFFFFF"/>
    <path d="M287.525,37.347 C286.46,37.347 285.597,36.509 285.597,35.476 C285.597,34.442 286.46,33.604 287.525,33.604 C288.589,33.604 289.452,34.442 289.452,35.476 C289.452,36.509 288.589,37.347 287.525,37.347 z" fill="#FFFFFF"/>
    <path d="M327.118,89.999 C324.59,89.999 322.54,88.009 322.54,85.555 C322.54,83.101 324.59,81.111 327.118,81.111 C329.647,81.111 331.697,83.101 331.697,85.555 C331.697,88.009 329.647,89.999 327.118,89.999 z" fill="#FFFFFF"/>
    <path d="M311.226,88.467 C308.697,88.467 306.647,86.477 306.647,84.022 C306.647,81.568 308.697,79.578 311.226,79.578 C313.754,79.578 315.804,81.568 315.804,84.022 C315.804,86.477 313.754,88.467 311.226,88.467 z" fill="#FFFFFF"/>
    <path d="M200.977,115.131 C199.582,115.131 198.451,114.034 198.451,112.68 C198.451,111.325 199.582,110.228 200.977,110.228 C202.372,110.228 203.503,111.325 203.503,112.68 C203.503,114.034 202.372,115.131 200.977,115.131 z" fill="#FFFFFF"/>
    <path d="M287.045,143.582 C285.404,143.582 284.073,142.291 284.073,140.697 C284.073,139.104 285.404,137.812 287.045,137.812 C288.687,137.812 290.018,139.104 290.018,140.697 C290.018,142.291 288.687,143.582 287.045,143.582 z" fill="#FFFFFF"/>
    <path d="M276.756,145.168 C275.115,145.168 273.784,143.876 273.784,142.282 C273.784,140.689 275.115,139.397 276.756,139.397 C278.398,139.397 279.729,140.689 279.729,142.282 C279.729,143.876 278.398,145.168 276.756,145.168 z" fill="#FFFFFF"/>
    <path d="M227.35,135.666 C225.42,135.666 223.856,134.148 223.856,132.274 C223.856,130.401 225.42,128.882 227.35,128.882 C229.28,128.882 230.845,130.401 230.845,132.274 C230.845,134.148 229.28,135.666 227.35,135.666 z" fill="#FFFFFF"/>
    <path d="M342.748,58.737 C341.701,58.737 340.853,57.914 340.853,56.898 C340.853,55.882 341.701,55.059 342.748,55.059 C343.794,55.059 344.642,55.882 344.642,56.898 C344.642,57.914 343.794,58.737 342.748,58.737 z" fill="#FFFFFF"/>
    <path d="M286.229,19.199 C285.133,19.199 284.244,18.337 284.244,17.273 C284.244,16.209 285.133,15.346 286.229,15.346 C287.325,15.346 288.214,16.209 288.214,17.273 C288.214,18.337 287.325,19.199 286.229,19.199 z" fill="#FFFFFF"/>
    <path d="M342.116,63.947 C341.07,63.947 340.222,63.124 340.222,62.108 C340.222,61.093 341.07,60.269 342.116,60.269 C343.163,60.269 344.011,61.093 344.011,62.108 C344.011,63.124 343.163,63.947 342.116,63.947 z" fill="#FFFFFF"/>
    <path d="M335.486,155.282 C333.742,155.282 332.328,153.91 332.328,152.217 C332.328,150.524 333.742,149.152 335.486,149.152 C337.229,149.152 338.643,150.524 338.643,152.217 C338.643,153.91 337.229,155.282 335.486,155.282 z" fill="#FFFFFF"/>
    <path d="M328.223,160.186 C326.479,160.186 325.066,158.814 325.066,157.121 C325.066,155.428 326.479,154.056 328.223,154.056 C329.967,154.056 331.381,155.428 331.381,157.121 C331.381,158.814 329.967,160.186 328.223,160.186 z" fill="#FFFFFF"/>
    <path d="M200.977,108.082 C199.582,108.082 198.451,106.984 198.451,105.63 C198.451,104.276 199.582,103.178 200.977,103.178 C202.372,103.178 203.503,104.276 203.503,105.63 C203.503,106.984 202.372,108.082 200.977,108.082 z" fill="#FFFFFF"/>
    <path d="M143.984,22.264 C142.153,22.264 140.669,20.823 140.669,19.046 C140.669,17.269 142.153,15.828 143.984,15.828 C145.815,15.828 147.3,17.269 147.3,19.046 C147.3,20.823 145.815,22.264 143.984,22.264 z" fill="#FFFFFF"/>
    <path d="M153.773,21.038 C151.942,21.038 150.457,19.597 150.457,17.82 C150.457,16.043 151.942,14.602 153.773,14.602 C155.604,14.602 157.088,16.043 157.088,17.82 C157.088,19.597 155.604,21.038 153.773,21.038 z" fill="#FFFFFF"/>
    <path d="M91.412,19.506 C90.017,19.506 88.886,18.408 88.886,17.054 C88.886,15.7 90.017,14.602 91.412,14.602 C92.807,14.602 93.938,15.7 93.938,17.054 C93.938,18.408 92.807,19.506 91.412,19.506 z" fill="#FFFFFF"/>
    <path d="M84.466,25.636 C83.071,25.636 81.94,24.538 81.94,23.184 C81.94,21.83 83.071,20.732 84.466,20.732 C85.861,20.732 86.992,21.83 86.992,23.184 C86.992,24.538 85.861,25.636 84.466,25.636 z" fill="#FFFFFF"/>
    <path d="M79.572,49.542 C78.613,49.542 77.835,48.787 77.835,47.856 C77.835,46.925 78.613,46.171 79.572,46.171 C80.531,46.171 81.308,46.925 81.308,47.856 C81.308,48.787 80.531,49.542 79.572,49.542 z" fill="#FFFFFF"/>
    <path d="M83.677,58.124 C82.717,58.124 81.94,57.369 81.94,56.438 C81.94,55.507 82.717,54.752 83.677,54.752 C84.636,54.752 85.413,55.507 85.413,56.438 C85.413,57.369 84.636,58.124 83.677,58.124 z" fill="#FFFFFF"/>
    <path d="M220.742,201.928 C220.114,201.928 219.606,201.434 219.606,200.826 C219.606,200.217 220.114,199.723 220.742,199.723 C221.369,199.723 221.877,200.217 221.877,200.826 C221.877,201.434 221.369,201.928 220.742,201.928 z" fill="#FFFFFF"/>
    <path d="M215.544,202.175 C214.917,202.175 214.408,201.682 214.408,201.073 C214.408,200.464 214.917,199.971 215.544,199.971 C216.171,199.971 216.679,200.464 216.679,201.073 C216.679,201.682 216.171,202.175 215.544,202.175 z" fill="#FFFFFF"/>
    <path d="M192.155,212.543 C190.983,212.543 190.033,211.621 190.033,210.484 C190.033,209.346 190.983,208.424 192.155,208.424 C193.327,208.424 194.277,209.346 194.277,210.484 C194.277,211.621 193.327,212.543 192.155,212.543 z" fill="#FFFFFF"/>
    <path d="M184.149,210.638 C182.977,210.638 182.027,209.716 182.027,208.579 C182.027,207.441 182.977,206.519 184.149,206.519 C185.321,206.519 186.271,207.441 186.271,208.579 C186.271,209.716 185.321,210.638 184.149,210.638 z" fill="#FFFFFF"/>
    <path d="M98.675,105.324 C96.059,105.324 93.938,103.265 93.938,100.726 C93.938,98.187 96.059,96.129 98.675,96.129 C101.29,96.129 103.411,98.187 103.411,100.726 C103.411,103.265 101.29,105.324 98.675,105.324 z" fill="#FFFFFF"/>
    <path d="M333.345,42.702 C331.891,42.702 330.711,41.558 330.711,40.146 C330.711,38.734 331.891,37.589 333.345,37.589 C334.8,37.589 335.979,38.734 335.979,40.146 C335.979,41.558 334.8,42.702 333.345,42.702 z" fill="#FFFFFF"/>
    <path d="M341.667,43.106 C340.212,43.106 339.033,41.961 339.033,40.549 C339.033,39.137 340.212,37.992 341.667,37.992 C343.122,37.992 344.301,39.137 344.301,40.549 C344.301,41.961 343.122,43.106 341.667,43.106 z" fill="#FFFFFF"/>
    <path d="M362.008,74.674 C360.264,74.674 358.851,73.302 358.851,71.61 C358.851,69.917 360.264,68.545 362.008,68.545 C363.752,68.545 365.166,69.917 365.166,71.61 C365.166,73.302 363.752,74.674 362.008,74.674 z" fill="#FFFFFF"/>
    <path d="M363.271,61.802 C361.527,61.802 360.114,60.43 360.114,58.737 C360.114,57.044 361.527,55.672 363.271,55.672 C365.015,55.672 366.429,57.044 366.429,58.737 C366.429,60.43 365.015,61.802 363.271,61.802 z" fill="#FFFFFF"/>
    <path d="M218.099,255.759 C216.965,255.759 216.045,254.866 216.045,253.765 C216.045,252.664 216.965,251.771 218.099,251.771 C219.233,251.771 220.153,252.664 220.153,253.765 C220.153,254.866 219.233,255.759 218.099,255.759 z" fill="#FFFFFF"/>
    <path d="M211.425,254.948 C210.291,254.948 209.371,254.055 209.371,252.954 C209.371,251.853 210.291,250.96 211.425,250.96 C212.56,250.96 213.479,251.853 213.479,252.954 C213.479,254.055 212.56,254.948 211.425,254.948 z" fill="#FFFFFF"/>
    <path d="M151.877,272.669 C150.742,272.669 149.823,271.776 149.823,270.675 C149.823,269.574 150.742,268.681 151.877,268.681 C153.011,268.681 153.93,269.574 153.93,270.675 C153.93,271.776 153.011,272.669 151.877,272.669 z" fill="#FFFFFF"/>
    <path d="M161.938,272.777 C160.803,272.777 159.884,271.885 159.884,270.784 C159.884,269.682 160.803,268.79 161.938,268.79 C163.072,268.79 163.992,269.682 163.992,270.784 C163.992,271.885 163.072,272.777 161.938,272.777 z" fill="#FFFFFF"/>
    <path d="M80.36,189.916 C79.661,189.916 79.095,189.366 79.095,188.688 C79.095,188.01 79.661,187.461 80.36,187.461 C81.058,187.461 81.624,188.01 81.624,188.688 C81.624,189.366 81.058,189.916 80.36,189.916 z" fill="#FFFFFF"/>
    <path d="M85.727,190.529 C85.029,190.529 84.463,189.979 84.463,189.301 C84.463,188.623 85.029,188.074 85.727,188.074 C86.426,188.074 86.992,188.623 86.992,189.301 C86.992,189.979 86.426,190.529 85.727,190.529 z" fill="#FFFFFF"/>
    <path d="M248.497,217.193 C243.876,217.193 240.13,213.557 240.13,209.071 C240.13,204.586 243.876,200.949 248.497,200.949 C253.118,200.949 256.864,204.586 256.864,209.071 C256.864,213.557 253.118,217.193 248.497,217.193 z" fill="#FFFFFF"/>
    <path d="M333.117,226.082 C331.81,226.082 330.749,225.053 330.749,223.783 C330.749,222.513 331.81,221.484 333.117,221.484 C334.425,221.484 335.486,222.513 335.486,223.783 C335.486,225.053 334.425,226.082 333.117,226.082 z" fill="#FFFFFF"/>
    <path d="M292.86,288.606 C291.116,288.606 289.702,287.234 289.702,285.541 C289.702,283.849 291.116,282.476 292.86,282.476 C294.603,282.476 296.017,283.849 296.017,285.541 C296.017,287.234 294.603,288.606 292.86,288.606 z" fill="#FFFFFF"/>
    <path d="M270.808,289.627 C269.906,289.627 269.175,288.917 269.175,288.042 C269.175,287.167 269.906,286.458 270.808,286.458 C271.709,286.458 272.44,287.167 272.44,288.042 C272.44,288.917 271.709,289.627 270.808,289.627 z" fill="#FFFFFF"/>
    <path d="M276.044,292.393 C275.142,292.393 274.411,291.683 274.411,290.808 C274.411,289.933 275.142,289.224 276.044,289.224 C276.945,289.224 277.676,289.933 277.676,290.808 C277.676,291.683 276.945,292.393 276.044,292.393 z" fill="#FFFFFF"/>
    <path d="M341.247,290.744 C340.345,290.744 339.615,290.034 339.615,289.159 C339.615,288.284 340.345,287.575 341.247,287.575 C342.149,287.575 342.879,288.284 342.879,289.159 C342.879,290.034 342.149,290.744 341.247,290.744 z" fill="#FFFFFF"/>
    <path d="M335.432,290.139 C334.53,290.139 333.799,289.429 333.799,288.554 C333.799,287.679 334.53,286.969 335.432,286.969 C336.333,286.969 337.064,287.679 337.064,288.554 C337.064,289.429 336.333,290.139 335.432,290.139 z" fill="#FFFFFF"/>
    <path d="M352.104,272.253 C350.969,272.253 350.05,271.361 350.05,270.259 C350.05,269.158 350.969,268.266 352.104,268.266 C353.238,268.266 354.158,269.158 354.158,270.259 C354.158,271.361 353.238,272.253 352.104,272.253 z" fill="#FFFFFF"/>
    <path d="M359.954,274.201 C358.82,274.201 357.9,273.308 357.9,272.207 C357.9,271.106 358.82,270.213 359.954,270.213 C361.089,270.213 362.008,271.106 362.008,272.207 C362.008,273.308 361.089,274.201 359.954,274.201 z" fill="#FFFFFF"/>
    <path d="M368.955,120.035 C367.908,120.035 367.06,119.212 367.06,118.196 C367.06,117.181 367.908,116.357 368.955,116.357 C370.001,116.357 370.849,117.181 370.849,118.196 C370.849,119.212 370.001,120.035 368.955,120.035 z" fill="#FFFFFF"/>
    <path d="M375.27,119.422 C374.223,119.422 373.375,118.599 373.375,117.583 C373.375,116.568 374.223,115.744 375.27,115.744 C376.316,115.744 377.164,116.568 377.164,117.583 C377.164,118.599 376.316,119.422 375.27,119.422 z" fill="#FFFFFF"/>
    <path d="M366.587,200.03 C365.802,200.03 365.166,199.412 365.166,198.651 C365.166,197.889 365.802,197.271 366.587,197.271 C367.371,197.271 368.008,197.889 368.008,198.651 C368.008,199.412 367.371,200.03 366.587,200.03 z" fill="#FFFFFF"/>
    <path d="M370.06,194.82 C369.275,194.82 368.639,194.202 368.639,193.44 C368.639,192.679 369.275,192.061 370.06,192.061 C370.845,192.061 371.481,192.679 371.481,193.44 C371.481,194.202 370.845,194.82 370.06,194.82 z" fill="#FFFFFF"/>
    <path d="M149.006,144.92 C148.379,144.92 147.871,144.427 147.871,143.818 C147.871,143.209 148.379,142.716 149.006,142.716 C149.633,142.716 150.141,143.209 150.141,143.818 C150.141,144.427 149.633,144.92 149.006,144.92 z" fill="#FFFFFF"/>
    <path d="M144.44,143.329 C143.813,143.329 143.304,142.835 143.304,142.227 C143.304,141.618 143.813,141.124 144.44,141.124 C145.067,141.124 145.575,141.618 145.575,142.227 C145.575,142.835 145.067,143.329 144.44,143.329 z" fill="#FFFFFF"/>
    <path d="M93.573,292.897 C91.453,292.897 89.734,291.229 89.734,289.171 C89.734,287.113 91.453,285.444 93.573,285.444 C95.693,285.444 97.412,287.113 97.412,289.171 C97.412,291.229 95.693,292.897 93.573,292.897 z" fill="#FFFFFF"/>
    <path d="M102.513,228.937 C101.265,228.937 100.253,227.955 100.253,226.743 C100.253,225.531 101.265,224.549 102.513,224.549 C103.762,224.549 104.774,225.531 104.774,226.743 C104.774,227.955 103.762,228.937 102.513,228.937 z" fill="#FFFFFF"/>
    <path d="M111.57,226.082 C110.322,226.082 109.31,225.099 109.31,223.888 C109.31,222.676 110.322,221.694 111.57,221.694 C112.819,221.694 113.831,222.676 113.831,223.888 C113.831,225.099 112.819,226.082 111.57,226.082 z" fill="#FFFFFF"/>
    <path d="M245.389,32.072 C244.458,32.072 243.703,31.339 243.703,30.435 C243.703,29.53 244.458,28.797 245.389,28.797 C246.321,28.797 247.076,29.53 247.076,30.435 C247.076,31.339 246.321,32.072 245.389,32.072 z" fill="#FFFFFF"/>
    <path d="M238.443,31.766 C237.511,31.766 236.756,31.033 236.756,30.128 C236.756,29.224 237.511,28.491 238.443,28.491 C239.374,28.491 240.13,29.224 240.13,30.128 C240.13,31.033 239.374,31.766 238.443,31.766 z" fill="#FFFFFF"/>
    <path d="M374.48,280.637 C373.696,280.637 373.06,280.02 373.06,279.258 C373.06,278.496 373.696,277.879 374.48,277.879 C375.265,277.879 375.901,278.496 375.901,279.258 C375.901,280.02 375.265,280.637 374.48,280.637 z" fill="#FFFFFF"/>
    <path d="M378.585,281.25 C377.8,281.25 377.164,280.633 377.164,279.871 C377.164,279.109 377.8,278.492 378.585,278.492 C379.37,278.492 380.006,279.109 380.006,279.871 C380.006,280.633 379.37,281.25 378.585,281.25 z" fill="#FFFFFF"/>
  </g>
  <g id="eye_blue">
    <path d="M84.684,106.966 C83.085,106.966 81.79,105.708 81.79,104.156 C81.79,102.605 83.085,101.347 84.684,101.347 C86.282,101.347 87.578,102.605 87.578,104.156 C87.578,105.708 86.282,106.966 84.684,106.966 z" fill="#1E90FF"/>
    <path d="M98.693,105.411 C97.094,105.411 95.799,104.153 95.799,102.601 C95.799,101.05 97.094,99.792 98.693,99.792 C100.291,99.792 101.587,101.05 101.587,102.601 C101.587,104.153 100.291,105.411 98.693,105.411 z" fill="#1E90FF"/>
    <path d="M248.509,211.437 C245.719,211.437 243.457,209.241 243.457,206.532 C243.457,203.824 245.719,201.628 248.509,201.628 C251.3,201.628 253.562,203.824 253.562,206.532 C253.562,209.241 251.3,211.437 248.509,211.437 z" fill="#1E90FF"/>
    <path d="M275.585,211.95 C272.794,211.95 270.532,209.754 270.532,207.046 C270.532,204.337 272.794,202.141 275.585,202.141 C278.376,202.141 280.638,204.337 280.638,207.046 C280.638,209.754 278.376,211.95 275.585,211.95 z" fill="#1E90FF"/>
    <path d="M333.17,224.856 C332.589,224.856 332.118,224.398 332.118,223.834 C332.118,223.27 332.589,222.812 333.17,222.812 C333.751,222.812 334.223,223.27 334.223,223.834 C334.223,224.398 333.751,224.856 333.17,224.856 z" fill="#1E90FF"/>
    <path d="M218.659,127.596 C217.845,127.596 217.185,126.955 217.185,126.165 C217.185,125.375 217.845,124.735 218.659,124.735 C219.473,124.735 220.132,125.375 220.132,126.165 C220.132,126.955 219.473,127.596 218.659,127.596 z" fill="#1E90FF"/>
    <path d="M226.658,134.134 C225.844,134.134 225.184,133.494 225.184,132.704 C225.184,131.914 225.844,131.273 226.658,131.273 C227.472,131.273 228.131,131.914 228.131,132.704 C228.131,133.494 227.472,134.134 226.658,134.134 z" fill="#1E90FF"/>
    <path d="M200.977,114.11 C200.163,114.11 199.503,113.469 199.503,112.68 C199.503,111.89 200.163,111.249 200.977,111.249 C201.791,111.249 202.45,111.89 202.45,112.68 C202.45,113.469 201.791,114.11 200.977,114.11 z" fill="#1E90FF"/>
    <path d="M200.977,107.163 C200.163,107.163 199.503,106.522 199.503,105.732 C199.503,104.942 200.163,104.302 200.977,104.302 C201.791,104.302 202.45,104.942 202.45,105.732 C202.45,106.522 201.791,107.163 200.977,107.163 z" fill="#1E90FF"/>
    <path d="M311.726,86.088 C310.2,86.088 308.964,84.888 308.964,83.408 C308.964,81.927 310.2,80.727 311.726,80.727 C313.251,80.727 314.487,81.927 314.487,83.408 C314.487,84.888 313.251,86.088 311.726,86.088 z" fill="#1E90FF"/>
    <path d="M327.687,87.438 C326.162,87.438 324.926,86.237 324.926,84.757 C324.926,83.276 326.162,82.076 327.687,82.076 C329.212,82.076 330.449,83.276 330.449,84.757 C330.449,86.237 329.212,87.438 327.687,87.438 z" fill="#1E90FF"/>
    <path d="M277.072,143.8 C275.986,143.8 275.105,142.945 275.105,141.89 C275.105,140.836 275.986,139.981 277.072,139.981 C278.158,139.981 279.039,140.836 279.039,141.89 C279.039,142.945 278.158,143.8 277.072,143.8 z" fill="#1E90FF"/>
    <path d="M287.419,142.244 C286.333,142.244 285.452,141.389 285.452,140.334 C285.452,139.28 286.333,138.425 287.419,138.425 C288.506,138.425 289.386,139.28 289.386,140.334 C289.386,141.389 288.506,142.244 287.419,142.244 z" fill="#1E90FF"/>
    <path d="M138.023,168.86 C136.456,168.86 135.186,167.627 135.186,166.106 C135.186,164.586 136.456,163.353 138.023,163.353 C139.59,163.353 140.86,164.586 140.86,166.106 C140.86,167.627 139.59,168.86 138.023,168.86 z" fill="#1E90FF"/>
    <path d="M151.15,174.763 C149.584,174.763 148.314,173.53 148.314,172.01 C148.314,170.489 149.584,169.256 151.15,169.256 C152.717,169.256 153.987,170.489 153.987,172.01 C153.987,173.53 152.717,174.763 151.15,174.763 z" fill="#1E90FF"/>
    <path d="M171.191,153.954 C170.668,153.954 170.244,153.542 170.244,153.034 C170.244,152.527 170.668,152.115 171.191,152.115 C171.715,152.115 172.139,152.527 172.139,153.034 C172.139,153.542 171.715,153.954 171.191,153.954 z" fill="#1E90FF"/>
    <path d="M167.613,162.331 C167.09,162.331 166.666,161.92 166.666,161.412 C166.666,160.904 167.09,160.492 167.613,160.492 C168.136,160.492 168.56,160.904 168.56,161.412 C168.56,161.92 168.136,162.331 167.613,162.331 z" fill="#1E90FF"/>
    <path d="M93.728,290.649 C92.972,290.649 92.36,290.055 92.36,289.321 C92.36,288.588 92.972,287.993 93.728,287.993 C94.484,287.993 95.096,288.588 95.096,289.321 C95.096,290.055 94.484,290.649 93.728,290.649 z" fill="#1E90FF"/>
    <path d="M287.492,277.572 C286.794,277.572 286.229,277.024 286.229,276.346 C286.229,275.669 286.794,275.121 287.492,275.121 C288.189,275.121 288.755,275.669 288.755,276.346 C288.755,277.024 288.189,277.572 287.492,277.572 z" fill="#1E90FF"/>
    <path d="M291.491,287.176 C290.794,287.176 290.228,286.627 290.228,285.95 C290.228,285.273 290.794,284.724 291.491,284.724 C292.189,284.724 292.754,285.273 292.754,285.95 C292.754,286.627 292.189,287.176 291.491,287.176 z" fill="#1E90FF"/>
    <path d="M111.62,225.06 C110.981,225.06 110.463,224.557 110.463,223.936 C110.463,223.316 110.981,222.812 111.62,222.812 C112.26,222.812 112.778,223.316 112.778,223.936 C112.778,224.557 112.26,225.06 111.62,225.06 z" fill="#1E90FF"/>
    <path d="M102.358,227.921 C101.719,227.921 101.201,227.418 101.201,226.797 C101.201,226.176 101.719,225.673 102.358,225.673 C102.998,225.673 103.516,226.176 103.516,226.797 C103.516,227.418 102.998,227.921 102.358,227.921 z" fill="#1E90FF"/>
    <path d="M215.607,201.767 C215.316,201.767 215.08,201.538 215.08,201.256 C215.08,200.974 215.316,200.745 215.607,200.745 C215.897,200.745 216.133,200.974 216.133,201.256 C216.133,201.538 215.897,201.767 215.607,201.767 z" fill="#1E90FF"/>
    <path d="M220.659,201.562 C220.368,201.562 220.132,201.334 220.132,201.051 C220.132,200.769 220.368,200.541 220.659,200.541 C220.949,200.541 221.185,200.769 221.185,201.051 C221.185,201.334 220.949,201.562 220.659,201.562 z" fill="#1E90FF"/>
    <path d="M144.458,142.307 C144.167,142.307 143.932,142.078 143.932,141.796 C143.932,141.514 144.167,141.285 144.458,141.285 C144.749,141.285 144.984,141.514 144.984,141.796 C144.984,142.078 144.749,142.307 144.458,142.307 z" fill="#1E90FF"/>
    <path d="M149.089,143.942 C148.798,143.942 148.563,143.713 148.563,143.431 C148.563,143.149 148.798,142.92 149.089,142.92 C149.38,142.92 149.615,143.149 149.615,143.431 C149.615,143.713 149.38,143.942 149.089,143.942 z" fill="#1E90FF"/>
    <path d="M327.381,157.427 C326.742,157.427 326.224,156.924 326.224,156.304 C326.224,155.683 326.742,155.18 327.381,155.18 C328.021,155.18 328.539,155.683 328.539,156.304 C328.539,156.924 328.021,157.427 327.381,157.427 z" fill="#1E90FF"/>
    <path d="M334.749,152.115 C334.109,152.115 333.591,151.612 333.591,150.991 C333.591,150.37 334.109,149.867 334.749,149.867 C335.388,149.867 335.906,150.37 335.906,150.991 C335.906,151.612 335.388,152.115 334.749,152.115 z" fill="#1E90FF"/>
    <path d="M370.113,194.411 C369.822,194.411 369.586,194.182 369.586,193.9 C369.586,193.618 369.822,193.389 370.113,193.389 C370.403,193.389 370.639,193.618 370.639,193.9 C370.639,194.182 370.403,194.411 370.113,194.411 z" fill="#1E90FF"/>
    <path d="M366.745,199.11 C366.454,199.11 366.218,198.882 366.218,198.6 C366.218,198.317 366.454,198.089 366.745,198.089 C367.035,198.089 367.271,198.317 367.271,198.6 C367.271,198.882 367.035,199.11 366.745,199.11 z" fill="#1E90FF"/>
    <path d="M352.01,272.056 C351.37,272.056 350.852,271.552 350.852,270.932 C350.852,270.311 351.37,269.808 352.01,269.808 C352.649,269.808 353.167,270.311 353.167,270.932 C353.167,271.552 352.649,272.056 352.01,272.056 z" fill="#1E90FF"/>
    <path d="M359.798,273.895 C359.159,273.895 358.64,273.391 358.64,272.771 C358.64,272.15 359.159,271.647 359.798,271.647 C360.438,271.647 360.956,272.15 360.956,272.771 C360.956,273.391 360.438,273.895 359.798,273.895 z" fill="#1E90FF"/>
    <path d="M334.996,289.086 C334.453,289.086 334.012,288.659 334.012,288.131 C334.012,287.603 334.453,287.176 334.996,287.176 C335.54,287.176 335.98,287.603 335.98,288.131 C335.98,288.659 335.54,289.086 334.996,289.086 z" fill="#1E90FF"/>
    <path d="M340.985,289.832 C340.441,289.832 340.001,289.404 340.001,288.877 C340.001,288.349 340.441,287.922 340.985,287.922 C341.528,287.922 341.969,288.349 341.969,288.877 C341.969,289.404 341.528,289.832 340.985,289.832 z" fill="#1E90FF"/>
    <path d="M211.476,253.738 C210.932,253.738 210.491,253.31 210.491,252.782 C210.491,252.255 210.932,251.827 211.476,251.827 C212.019,251.827 212.46,252.255 212.46,252.782 C212.46,253.31 212.019,253.738 211.476,253.738 z" fill="#1E90FF"/>
    <path d="M218.306,254.688 C217.763,254.688 217.322,254.26 217.322,253.732 C217.322,253.205 217.763,252.777 218.306,252.777 C218.85,252.777 219.29,253.205 219.29,253.732 C219.29,254.26 218.85,254.688 218.306,254.688 z" fill="#1E90FF"/>
    <path d="M184.137,209.94 C183.323,209.94 182.664,209.299 182.664,208.509 C182.664,207.72 183.323,207.079 184.137,207.079 C184.951,207.079 185.611,207.72 185.611,208.509 C185.611,209.299 184.951,209.94 184.137,209.94 z" fill="#1E90FF"/>
    <path d="M192.346,211.983 C191.533,211.983 190.873,211.343 190.873,210.553 C190.873,209.763 191.533,209.122 192.346,209.122 C193.16,209.122 193.82,209.763 193.82,210.553 C193.82,211.343 193.16,211.983 192.346,211.983 z" fill="#1E90FF"/>
    <path d="M151.931,272.056 C151.233,272.056 150.668,271.507 150.668,270.83 C150.668,270.152 151.233,269.604 151.931,269.604 C152.628,269.604 153.194,270.152 153.194,270.83 C153.194,271.507 152.628,272.056 151.931,272.056 z" fill="#1E90FF"/>
    <path d="M162.035,272.056 C161.337,272.056 160.772,271.507 160.772,270.83 C160.772,270.152 161.337,269.604 162.035,269.604 C162.732,269.604 163.298,270.152 163.298,270.83 C163.298,271.507 162.732,272.056 162.035,272.056 z" fill="#1E90FF"/>
    <path d="M80.572,189.098 C80.223,189.098 79.94,188.824 79.94,188.485 C79.94,188.147 80.223,187.872 80.572,187.872 C80.92,187.872 81.203,188.147 81.203,188.485 C81.203,188.824 80.92,189.098 80.572,189.098 z" fill="#1E90FF"/>
    <path d="M86.045,189.711 C85.696,189.711 85.413,189.437 85.413,189.098 C85.413,188.76 85.696,188.485 86.045,188.485 C86.393,188.485 86.676,188.76 86.676,189.098 C86.676,189.437 86.393,189.711 86.045,189.711 z" fill="#1E90FF"/>
    <path d="M276.651,291.058 C276.361,291.058 276.125,290.829 276.125,290.547 C276.125,290.265 276.361,290.036 276.651,290.036 C276.942,290.036 277.177,290.265 277.177,290.547 C277.177,290.829 276.942,291.058 276.651,291.058 z" fill="#1E90FF"/>
    <path d="M271.178,288.197 C270.888,288.197 270.652,287.969 270.652,287.687 C270.652,287.405 270.888,287.176 271.178,287.176 C271.469,287.176 271.704,287.405 271.704,287.687 C271.704,287.969 271.469,288.197 271.178,288.197 z" fill="#1E90FF"/>
    <path d="M374.217,279.616 C373.752,279.616 373.375,279.25 373.375,278.798 C373.375,278.347 373.752,277.981 374.217,277.981 C374.682,277.981 375.059,278.347 375.059,278.798 C375.059,279.25 374.682,279.616 374.217,279.616 z" fill="#1E90FF"/>
    <path d="M378.217,280.433 C377.752,280.433 377.375,280.067 377.375,279.616 C377.375,279.164 377.752,278.798 378.217,278.798 C378.682,278.798 379.059,279.164 379.059,279.616 C379.059,280.067 378.682,280.433 378.217,280.433 z" fill="#1E90FF"/>
    <path d="M368.85,119.627 C368.326,119.627 367.902,119.215 367.902,118.707 C367.902,118.199 368.326,117.788 368.85,117.788 C369.373,117.788 369.797,118.199 369.797,118.707 C369.797,119.215 369.373,119.627 368.85,119.627 z" fill="#1E90FF"/>
    <path d="M375.375,119.218 C374.852,119.218 374.428,118.806 374.428,118.299 C374.428,117.791 374.852,117.379 375.375,117.379 C375.898,117.379 376.322,117.791 376.322,118.299 C376.322,118.806 375.898,119.218 375.375,119.218 z" fill="#1E90FF"/>
    <path d="M198.135,34.218 C196.914,34.218 195.925,33.257 195.925,32.072 C195.925,30.887 196.914,29.927 198.135,29.927 C199.356,29.927 200.345,30.887 200.345,32.072 C200.345,33.257 199.356,34.218 198.135,34.218 z" fill="#1E90FF"/>
    <path d="M213.291,39.734 C212.07,39.734 211.081,38.774 211.081,37.589 C211.081,36.404 212.07,35.443 213.291,35.443 C214.512,35.443 215.501,36.404 215.501,37.589 C215.501,38.774 214.512,39.734 213.291,39.734 z" fill="#1E90FF"/>
    <path d="M361.932,73.401 C360.901,73.401 360.065,72.59 360.065,71.589 C360.065,70.589 360.901,69.777 361.932,69.777 C362.963,69.777 363.798,70.589 363.798,71.589 C363.798,72.59 362.963,73.401 361.932,73.401 z" fill="#1E90FF"/>
    <path d="M362.489,60.365 C361.458,60.365 360.623,59.554 360.623,58.553 C360.623,57.552 361.458,56.741 362.489,56.741 C363.52,56.741 364.356,57.552 364.356,58.553 C364.356,59.554 363.52,60.365 362.489,60.365 z" fill="#1E90FF"/>
    <path d="M127.197,86.934 C126.441,86.934 125.829,86.34 125.829,85.606 C125.829,84.873 126.441,84.278 127.197,84.278 C127.953,84.278 128.565,84.873 128.565,85.606 C128.565,86.34 127.953,86.934 127.197,86.934 z" fill="#1E90FF"/>
    <path d="M139.406,85.3 C138.65,85.3 138.038,84.705 138.038,83.971 C138.038,83.238 138.65,82.643 139.406,82.643 C140.162,82.643 140.774,83.238 140.774,83.971 C140.774,84.705 140.162,85.3 139.406,85.3 z" fill="#1E90FF"/>
    <path d="M296.649,42.799 C296.125,42.799 295.701,42.388 295.701,41.88 C295.701,41.372 296.125,40.96 296.649,40.96 C297.172,40.96 297.596,41.372 297.596,41.88 C297.596,42.388 297.172,42.799 296.649,42.799 z" fill="#1E90FF"/>
    <path d="M288.018,36.056 C287.495,36.056 287.071,35.645 287.071,35.137 C287.071,34.629 287.495,34.217 288.018,34.217 C288.541,34.217 288.965,34.629 288.965,35.137 C288.965,35.645 288.541,36.056 288.018,36.056 z" fill="#1E90FF"/>
    <path d="M80.045,48.112 C79.755,48.112 79.519,47.883 79.519,47.601 C79.519,47.319 79.755,47.09 80.045,47.09 C80.336,47.09 80.572,47.319 80.572,47.601 C80.572,47.883 80.336,48.112 80.045,48.112 z" fill="#1E90FF"/>
    <path d="M84.162,56.694 C83.871,56.694 83.636,56.465 83.636,56.183 C83.636,55.901 83.871,55.672 84.162,55.672 C84.452,55.672 84.688,55.901 84.688,56.183 C84.688,56.465 84.452,56.694 84.162,56.694 z" fill="#1E90FF"/>
    <path d="M85.097,24.818 C84.458,24.818 83.94,24.315 83.94,23.695 C83.94,23.074 84.458,22.571 85.097,22.571 C85.737,22.571 86.255,23.074 86.255,23.695 C86.255,24.315 85.737,24.818 85.097,24.818 z" fill="#1E90FF"/>
    <path d="M92.044,18.893 C91.405,18.893 90.886,18.39 90.886,17.769 C90.886,17.148 91.405,16.645 92.044,16.645 C92.683,16.645 93.202,17.148 93.202,17.769 C93.202,18.39 92.683,18.893 92.044,18.893 z" fill="#1E90FF"/>
    <path d="M238.446,31.357 C237.864,31.357 237.393,30.899 237.393,30.335 C237.393,29.771 237.864,29.314 238.446,29.314 C239.027,29.314 239.498,29.771 239.498,30.335 C239.498,30.899 239.027,31.357 238.446,31.357 z" fill="#1E90FF"/>
    <path d="M245.392,31.561 C244.811,31.561 244.34,31.104 244.34,30.54 C244.34,29.975 244.811,29.518 245.392,29.518 C245.973,29.518 246.445,29.975 246.445,30.54 C246.445,31.104 245.973,31.561 245.392,31.561 z" fill="#1E90FF"/>
    <path d="M144.458,21.958 C143.702,21.958 143.09,21.363 143.09,20.63 C143.09,19.896 143.702,19.302 144.458,19.302 C145.214,19.302 145.826,19.896 145.826,20.63 C145.826,21.363 145.214,21.958 144.458,21.958 z" fill="#1E90FF"/>
    <path d="M153.93,20.528 C153.175,20.528 152.562,19.933 152.562,19.199 C152.562,18.466 153.175,17.871 153.93,17.871 C154.686,17.871 155.299,18.466 155.299,19.199 C155.299,19.933 154.686,20.528 153.93,20.528 z" fill="#1E90FF"/>
    <path d="M280.861,15.624 C280.571,15.624 280.335,15.395 280.335,15.113 C280.335,14.831 280.571,14.602 280.861,14.602 C281.152,14.602 281.387,14.831 281.387,15.113 C281.387,15.395 281.152,15.624 280.861,15.624 z" fill="#1E90FF"/>
    <path d="M285.913,18.076 C285.622,18.076 285.387,17.847 285.387,17.565 C285.387,17.283 285.622,17.054 285.913,17.054 C286.204,17.054 286.439,17.283 286.439,17.565 C286.439,17.847 286.204,18.076 285.913,18.076 z" fill="#1E90FF"/>
    <path d="M333.696,40.552 C332.941,40.552 332.328,39.957 332.328,39.224 C332.328,38.49 332.941,37.895 333.696,37.895 C334.452,37.895 335.065,38.49 335.065,39.224 C335.065,39.957 334.452,40.552 333.696,40.552 z" fill="#1E90FF"/>
    <path d="M341.906,41.165 C341.15,41.165 340.537,40.57 340.537,39.837 C340.537,39.103 341.15,38.508 341.906,38.508 C342.661,38.508 343.274,39.103 343.274,39.837 C343.274,40.57 342.661,41.165 341.906,41.165 z" fill="#1E90FF"/>
    <path d="M342.748,57.92 C342.225,57.92 341.8,57.508 341.8,57 C341.8,56.492 342.225,56.081 342.748,56.081 C343.271,56.081 343.695,56.492 343.695,57 C343.695,57.508 343.271,57.92 342.748,57.92 z" fill="#1E90FF"/>
    <path d="M342.327,63.028 C341.804,63.028 341.379,62.616 341.379,62.108 C341.379,61.6 341.804,61.189 342.327,61.189 C342.85,61.189 343.274,61.6 343.274,62.108 C343.274,62.616 342.85,63.028 342.327,63.028 z" fill="#1E90FF"/>
  </g>
  <g id="mouths">
    <path d="M82.282,112.72 C82.282,113.026 96.175,118.543 105.963,109.655" fill-opacity="0" stroke="#252522" stroke-width="4" stroke-linecap="round" stroke-linejoin="round"/>
    <path d="M191.531,103.525 C191.531,103.525 185.847,108.735 194.373,115.478" fill-opacity="0" stroke="#252522" stroke-width="2" stroke-linecap="round"/>
    <path d="M223.737,115.785 C223.737,115.785 239.84,115.478 240.156,131.109" fill-opacity="0" stroke="#252522" stroke-width="4" stroke-linecap="round"/>
    <path d="M190.268,148.273 C190.268,148.273 191.531,169.727 175.112,170.34" fill-opacity="0" stroke="#252522" stroke-width="3" stroke-linecap="round"/>
    <path d="M126.803,168.501 C126.803,168.501 129.329,192.408 155.22,182.6" fill-opacity="0" stroke="#252522" stroke-width="3" stroke-linecap="round"/>
    <path d="M141.327,143.676 C141.327,143.676 144.484,148.886 152.378,146.74" fill-opacity="0" stroke="#252522" stroke-width="1" stroke-linecap="round"/>
    <path d="M77.862,193.327 C77.862,193.327 80.388,199.764 89.544,195.473" fill-opacity="0" stroke="#252522" stroke-width="2" stroke-linecap="round"/>
    <path d="M119.225,225.815 C119.225,225.815 111.647,237.769 100.595,233.171" fill-opacity="0" stroke="#252522" stroke-width="2" stroke-linecap="round"/>
    <path d="M85.124,292.018 C85.124,292.018 90.492,301.213 104.069,292.018" fill-opacity="0" stroke="#252522" stroke-width="1" stroke-linecap="round"/>
    <path d="M175.743,213.862 C175.743,213.862 183.953,223.057 197.846,215.701" fill-opacity="0" stroke="#252522" stroke-width="2" stroke-linecap="round"/>
    <path d="M204.161,257.691 C204.161,257.691 213.002,264.74 225.947,258.304" fill-opacity="0" stroke="#252522" stroke-width="2" stroke-linecap="round"/>
    <path d="M144.484,274.854 C144.484,274.854 155.22,282.517 168.797,276.08" fill-opacity="0" stroke="#252522" stroke-width="2" stroke-linecap="round"/>
    <path d="M265.732,290.485 C265.732,290.485 267.31,296.922 277.099,295.696" fill-opacity="0" stroke="#252522" stroke-width="1" stroke-linecap="round"/>
    <path d="M293.833,268.111 C293.833,268.418 309.621,276.387 300.78,286.807" fill-opacity="0" stroke="#252522" stroke-width="2" stroke-linecap="round"/>
    <path d="M233.525,219.992 C233.525,219.992 270.152,238.995 292.254,216.008" fill-opacity="0" stroke="#252522" stroke-width="4" stroke-linecap="round"/>
    <path d="M296.991,145.821 C296.991,145.821 290.676,158.081 270.784,151.951" fill-opacity="0" stroke="#252522" stroke-width="4" stroke-linecap="round"/>
    <path d="M346.563,153.79 C346.563,154.096 340.248,169.421 326.039,166.049" fill-opacity="0" stroke="#252522" stroke-width="3" stroke-linecap="round"/>
    <path d="M328.565,227.348 C328.565,227.348 329.513,231.945 336.143,229.493" fill-opacity="0" stroke="#252522" stroke-width="1" stroke-linecap="round"/>
    <path d="M350.984,263.208 C351.299,263.208 362.982,260.449 365.508,267.498" fill-opacity="0" stroke="#252522" stroke-width="2" stroke-linecap="round"/>
    <path d="M344.669,292.937 C344.669,292.937 336.459,296.309 331.407,291.098" fill-opacity="0" stroke="#252522" stroke-width="2" stroke-linecap="round"/>
    <path d="M372.139,284.662 C372.139,284.662 377.191,287.727 380.348,285.888" fill-opacity="0" stroke="#252522" stroke-width="1" stroke-linecap="round"/>
    <path d="M368.034,123.754 C368.35,123.754 374.665,126.205 380.032,122.221" fill-opacity="0" stroke="#252522" stroke-width="2" stroke-linecap="round"/>
    <path d="M299.517,92.491 C299.517,92.491 321.303,105.977 336.775,93.717" fill-opacity="0" stroke="#252522" stroke-width="4" stroke-linecap="round"/>
    <path d="M338.669,56.632 C338.669,56.632 335.196,59.697 338.038,63.375" fill-opacity="0" stroke="#252522" stroke-width="1" stroke-linecap="round"/>
    <path d="M372.77,53.873 C372.77,53.873 383.506,70.73 370.56,82.377" fill-opacity="0" stroke="#252522" stroke-width="4" stroke-linecap="round"/>
    <path d="M279.309,37.016 C279.309,37.016 281.203,51.115 298.254,50.808" fill-opacity="0" stroke="#252522" stroke-width="2" stroke-linecap="round"/>
    <path d="M190.268,40.694 C190.268,40.694 203.214,53.26 218.054,46.517" fill-opacity="0" stroke="#252522" stroke-width="3" stroke-linecap="round"/>
    <path d="M145.432,75.941 C145.432,75.941 131.223,67.359 122.698,79.006" fill-opacity="0" stroke="#252522" stroke-width="2" stroke-linecap="round"/>
    <path d="M75.651,50.195 C75.651,50.195 75.02,58.471 80.703,62.149" fill-opacity="0" stroke="#252522" stroke-width="2" stroke-linecap="round"/>
    <path d="M91.439,10.964 C91.439,10.964 78.809,12.497 79.756,24.143" fill-opacity="0" stroke="#252522" stroke-width="2" stroke-linecap="round"/>
    <path d="M164.377,10.045 C164.377,10.045 146.063,2.996 133.749,14.642" fill-opacity="0" stroke="#252522" stroke-width="3" stroke-linecap="round"/>
    <path d="M253.102,26.595 C253.102,26.595 242.998,18.933 233.841,24.757" fill-opacity="0" stroke="#252522" stroke-width="2" stroke-linecap="round"/>
    <path d="M282.466,8.512 C282.782,8.512 293.202,7.286 294.465,14.949" fill-opacity="0" stroke="#252522" stroke-width="2" stroke-linecap="round"/>
    <path d="M349.089,31.806 C349.089,31.806 338.669,24.756 329.828,32.112" fill-opacity="0" stroke="#252522" stroke-width="3" stroke-linecap="round"/>
    <path d="M376.559,192.408 C376.559,192.714 376.559,204.055 368.034,204.974" fill-opacity="0" stroke="#252522" stroke-width="2" stroke-linecap="round"/>
    <path d="M214.265,205.28 C214.265,205.28 218.369,207.119 222.79,204.974" fill-opacity="0" stroke="#252522" stroke-width="1" stroke-linecap="round"/>
  </g>
  <g id="shadows" opacity="0.503">
    <path d="M168.145,91.211 C168.145,91.211 143.385,87.547 150.584,117.706 C156.54,142.659 170.795,138.21 170.795,138.21 L147.67,141.016 C147.67,141.016 142.852,143.354 144.057,147.563 L140.202,154.577 L138.034,154.344 C138.034,154.344 130.326,151.07 127.676,151.07 L127.917,131.663 L117.559,116.932 L105.515,91.211 C105.515,91.211 134.421,92.614 134.421,92.614 C134.421,92.614 161.4,88.406 168.145,91.211 z" fill="#000000"/>
    <path d="M88.894,79.988 C89.153,80.203 80.463,91.445 82.631,97.992 C82.631,97.992 78.536,103.37 84.317,106.176 C84.317,106.176 86.967,114.36 96.843,112.957 L102.143,112.489 C102.143,112.489 99.975,116.231 92.026,117.4 C84.076,118.569 88.412,149.667 103.347,150.836 C118.282,152.005 125.508,145.926 126.954,142.886 C126.954,142.886 114.91,152.932 115.632,155.18 C116.355,157.427 121.931,152.421 131.3,154.056 L126.97,156.331 L109.31,162.331 L103.347,163.93 C103.347,163.93 95.157,171.179 95.157,172.816 C95.157,174.452 94.194,181.701 94.194,181.701 L73.477,169.776 L72.514,84.197 C72.514,84.197 83.835,75.779 88.894,79.988 z" fill="#000000"/>
    <path d="M223.789,146.503 C223.789,146.503 199.942,129.668 193.438,164.508 C186.934,199.347 216.081,195.606 218.731,194.671 C218.731,194.671 162.605,202.854 160.678,157.96 C159.426,128.809 216.803,135.046 223.789,146.503 z" fill="#000000"/>
    <path d="M150.584,160.002 C150.584,160.002 141.111,158.531 139.217,163.312 C139.217,163.312 134.291,166.99 136.185,169.565 C136.185,169.565 128.229,180.23 141.111,184.276 C141.111,184.276 151.72,183.173 151.341,183.173 C150.962,183.173 147.552,188.322 136.185,185.38 C124.819,182.437 119.135,190.529 117.998,197.517 C116.862,204.505 139.596,219.56 154.751,215.514 C154.751,215.514 141.869,219.584 135.807,218.481 L122.166,213.332 C122.166,213.332 118.756,214.067 121.787,216.274 C121.787,216.274 96.78,217.745 95.643,225.837 L98.296,209.286 L97.538,196.413 L88.017,162.331 L117.998,156.324 C117.998,156.324 121.03,157.427 121.03,157.427 C121.03,157.427 127.092,155.588 127.092,155.588 L137.322,155.588 L143.384,156.324 L150.584,160.002 z" fill="#000000"/>
    <path d="M82.761,182.437 C82.761,182.437 74.804,191.632 82.003,196.045 L85.792,195.678 C85.792,195.678 76.699,197.517 80.109,207.079 C83.519,216.642 89.581,227.675 89.581,228.043 C89.581,228.411 85.034,261.88 87.308,265.558 C87.308,265.558 87.475,278.431 83.519,278.431 C82.761,278.431 76.32,288.361 76.32,288.361 C76.32,288.361 76.32,292.774 75.941,292.407 C75.562,292.039 74.425,290.2 74.425,290.2 C74.425,290.2 73.667,179.863 73.667,179.863 C73.667,179.863 82.761,182.437 82.761,182.437 z" fill="#000000"/>
    <path d="M86.171,47.458 C86.171,47.458 77.077,52.239 79.351,59.227 C81.624,66.215 85.034,65.112 85.034,65.112 L74.425,79.824 L75.562,38.999 C75.562,38.999 88.065,41.573 86.171,47.458 z" fill="#000000"/>
    <path d="M90.339,8.472 C90.339,8.472 73.288,8.84 77.077,32.379 L72.91,31.643 L72.91,0.749 L86.55,1.116 C86.55,1.116 82.382,1.116 82.761,5.162 C83.14,9.208 85.413,4.059 90.339,8.472 z" fill="#000000"/>
    <path d="M150.205,24.287 C150.205,24.287 144.9,25.023 145.279,21.713 C145.279,21.713 141.111,18.035 143.763,16.196 C143.763,16.196 143.006,8.84 150.962,8.104 C150.962,8.104 145.658,5.53 147.173,0.381 L95.643,0.749 C95.643,0.749 98.675,28.701 150.205,24.287 z" fill="#000000"/>
    <path d="M146.795,30.907 C146.795,30.907 122.183,21.673 121.787,35.321 C121.03,61.434 125.197,68.422 133.912,70.997 C142.627,73.571 141.869,73.939 141.869,73.939 C141.869,73.939 125.955,70.261 126.713,81.663 C126.713,81.663 125.955,84.973 127.85,86.076 C127.85,86.076 136.185,90.857 145.658,87.547 C145.658,87.547 115.725,102.994 104.358,82.766 C92.991,62.537 89.96,51.136 89.96,51.136 L87.308,34.217 L101.327,24.655 L114.967,21.345 L124.819,22.816 L147.173,28.333 L146.795,30.907 z" fill="#000000"/>
    <path d="M160.435,38.999 C160.542,38.646 155.13,37.528 150.205,27.597 L148.31,30.172 C148.31,30.172 147.173,33.482 150.584,36.056 C150.584,36.056 158.54,45.251 160.435,38.999 z" fill="#000000"/>
    <path d="M238.488,193.839 C238.488,193.839 234.32,194.207 232.804,204.872 C232.804,204.872 221.058,210.389 233.941,194.574 C233.941,194.574 230.344,184.417 235.078,190.161 C236.593,192 238.488,193.839 238.488,193.839 z" fill="#000000"/>
    <path d="M242.277,168.093 C242.277,168.093 236.972,153.749 243.413,145.29 C243.413,145.29 235.835,147.865 237.73,159.266 C237.73,159.266 234.32,162.576 237.351,166.622 C240.382,170.668 242.277,168.093 242.277,168.093 z" fill="#000000"/>
    <path d="M218.406,195.678 C213.102,207.447 219.543,206.711 219.543,206.711 L219.915,208.954 L222.245,210.461 C222.245,210.461 225.074,207.372 226.135,212.177 C226.135,212.177 220.123,221.102 220.123,221.789 C219.85,220.499 219.652,218.966 219.445,217.585 L217.27,217.009 C217.27,217.01 219.164,220.32 217.27,218.848 C215.375,217.377 201.289,207.963 201.356,207.447 C202.493,198.62 218.406,195.678 218.406,195.678 z" fill="#000000"/>
    <path d="M219.062,29.563 C219.116,30.045 199.259,14.802 192.187,30.936 C185.114,47.069 149.044,70.754 201.381,88.947 L200.674,92.723 C200.674,92.723 204.21,94.096 200.674,98.558 L185.822,93.752 L187.59,89.633 C187.59,89.633 167.079,83.455 162.836,88.947 L157.531,89.633 L160.007,79.679 L159.653,42.263 L188.297,13.086 C188.297,13.086 218.002,19.951 219.062,29.563 z" fill="#000000"/>
    <path d="M256.193,81.395 C256.379,81.687 236.39,74.187 228.257,95.469 C220.123,116.751 233.208,111.945 234.976,119.154 C234.976,119.154 220.123,113.662 215.88,124.989 C211.636,136.317 220.123,137.69 220.123,137.69 C220.123,137.69 206.686,137.003 209.868,124.646 C213.051,112.289 213.051,100.618 213.051,100.618 L212.697,87.574 C212.697,87.574 225.781,79.335 227.196,67.321 C227.196,67.321 251.596,74.187 256.193,81.395 z" fill="#000000"/>
    <path d="M223.66,42.263 C223.66,42.263 229.671,58.397 227.55,65.605 L239.219,59.083 L256.193,76.589 C256.193,76.589 261.851,78.992 262.912,80.709 C262.912,80.709 285.191,83.798 293.324,77.619 C293.324,77.619 254.072,79.679 254.425,54.621 C254.779,29.563 275.289,26.473 286.252,30.249 C286.252,30.249 256.901,21.668 239.219,42.263 L223.66,42.263 z" fill="#000000"/>
    <path d="M189.817,201.786 C191.638,201.907 193.305,202.388 194.662,203.596 C195.657,204.631 181.932,200.85 180.517,211.148 C179.103,221.445 191.833,216.983 191.833,216.983 C191.833,216.983 185.468,220.072 180.517,220.072 C175.201,220.75 171.61,226.885 171.313,231.644 C171.174,233.861 171.659,235.827 172.433,237.883 C176.997,244.882 185.586,247.161 193.601,247.19 C193.601,247.19 175.566,251.309 173.091,247.876 L172.955,247.142 C167.224,246.588 161.494,246.028 155.763,245.474 C155.763,245.474 151.52,230.713 138.789,223.848 L151.52,219.043 L156.824,218.699 L171.323,205.655 C176.382,203.796 181.634,202.204 187.055,201.792 C187.973,201.722 188.897,201.788 189.817,201.786 z" fill="#000000"/>
    <path d="M206.332,244.787 C207.309,244.581 199.259,248.563 197.845,250.279 C196.43,251.996 186.882,255.428 186.882,248.906 C186.882,248.906 198.198,246.503 206.332,244.787 z" fill="#000000"/>
    <path d="M111.206,217.326 C111.685,218.179 98.122,221.445 98.476,229.684 C98.829,237.922 115.45,229.684 115.45,229.684 C115.45,229.684 111.206,234.833 105.902,235.519 C100.598,236.206 93.879,256.115 104.134,264.353 C114.389,272.591 129.241,274.651 142.326,268.129 L124.291,278.77 C124.291,278.77 116.511,294.903 112.621,293.187 C112.621,293.187 108.377,284.605 101.305,283.232 C94.232,281.859 95.293,283.919 95.293,283.919 L94.94,286.322 C94.94,286.322 89.282,287.351 93.171,293.187 C93.171,293.187 96.708,294.903 99.89,293.53 C99.89,293.53 88.574,297.649 101.305,297.649 C101.305,297.649 73.722,298.679 74.076,298.679 C74.429,298.679 75.844,289.754 76.197,289.754 C76.551,289.754 85.745,283.232 85.745,283.232 L87.513,279.8 C87.513,279.8 96,275.337 96,275.337 C96,275.337 88.221,267.099 88.221,267.099 C88.221,267.099 83.623,248.906 92.464,232.773 L97.769,216.64 C97.769,216.64 109.085,213.55 111.206,217.326 z" fill="#000000"/>
    <path d="M154.896,265.489 C157.614,266.025 156.5,264.953 158.314,265.726 C158.627,265.887 143.033,266.413 147.984,276.367 C147.984,276.367 139.926,280.486 140.987,299.022 L117.294,299.366 L120.995,292.928 L118.986,291.814 C118.986,290.441 121.815,289.068 121.815,289.068 L123.215,289.068 L125.781,284.605 C133.431,276.96 143.379,265.962 154.896,265.489 z" fill="#000000"/>
    <path d="M198.199,247.877 C198.199,247.877 211.99,242.384 213.404,247.533 L192.54,251.996 L198.199,247.877 z" fill="#000000"/>
    <path d="M149.398,261.264 C149.398,261.264 151.166,259.204 151.873,257.145 C151.873,257.145 155.056,258.518 155.056,258.518 C155.056,258.518 167.787,256.115 164.604,263.666 L163.189,265.383 L148.691,266.413 L149.398,261.264 z" fill="#000000"/>
    <path d="M194.309,298.336 C194.352,298.676 202.796,298.336 202.796,298.336 C202.796,298.336 199.31,291.765 205.321,290.735 C205.321,290.735 193.248,290.098 194.309,298.336 z" fill="#000000"/>
    <path d="M209.515,291.814 C209.515,291.814 212.697,286.665 216.941,287.352 L222.245,287.008 C222.245,287.008 197.138,281.859 206.332,261.264 C206.332,261.264 209.161,261.264 211.99,260.234 C211.99,260.234 204.35,259.963 205.625,257.488 C205.978,256.801 203.503,245.474 220.477,249.593 C220.477,249.593 206.686,243.757 181.932,257.488 C181.932,257.488 167.433,270.188 185.468,280.486 L202.796,288.038 L209.515,291.814 z" fill="#000000"/>
    <path d="M231.793,297.649 C231.793,297.649 229.318,292.5 224.721,293.873 C224.721,293.873 224.721,287.008 229.318,286.665 L222.952,287.008 L222.599,293.187 C222.599,293.187 219.062,297.306 219.062,297.306 C219.062,297.306 231.793,297.649 231.793,297.649 z" fill="#000000"/>
    <path d="M244.877,154.853 C244.877,154.853 249.474,139.063 259.022,140.093 C268.57,141.122 269.631,176.478 263.973,180.941 C257.363,186.154 249.121,186.433 245.938,174.762 C242.755,163.091 244.877,154.853 244.877,154.853 z" fill="#000000"/>
    <path d="M275.996,190.552 C275.996,190.552 284.483,188.149 287.312,187.806 C287.312,187.806 288.02,192.955 286.959,195.014 C286.959,195.014 294.385,195.358 295.799,202.223 C295.799,202.223 277.057,194.328 273.167,194.328 L275.996,190.552 z" fill="#000000"/>
    <path d="M245.938,197.76 C245.938,197.76 224.013,212.864 247.706,224.535 C247.706,224.535 268.217,230.713 281.301,222.475 C281.301,222.475 272.814,232.773 250.535,227.967 C228.257,223.162 239.573,251.652 255.486,253.712 C255.486,253.712 237.451,254.398 226.489,242.041 C215.526,229.684 221.538,220.759 221.538,220.759 C221.538,220.759 225.781,203.253 245.938,197.76 z" fill="#000000"/>
    <path d="M255.486,254.055 L268.217,255.428 C268.217,255.428 259.376,256.115 266.802,281.173 C266.802,281.173 254.779,282.546 257.961,287.695 C257.961,287.695 268.924,280.83 276.704,285.292 C276.704,285.292 268.924,291.814 271.399,297.649 L249.828,299.366 L248.06,287.352 L261.144,277.054 L257.961,263.323 L255.486,254.055 z" fill="#000000"/>
    <path d="M279.533,286.322 L273.875,282.203 L272.814,255.428 L281.654,254.742 L281.654,260.92 C281.654,260.92 281.301,263.666 280.947,269.159 C280.594,274.651 277.764,275.337 277.764,275.337 C277.764,275.337 280.24,282.889 279.533,286.322 z" fill="#000000"/>
    <path d="M246.292,35.055 C246.292,35.055 237.805,39.517 236.39,30.249 C234.976,20.981 242.402,21.668 246.292,23.041 C246.292,23.041 244.524,20.638 239.219,20.295 C233.915,19.951 211.636,15.146 216.587,1.072 L189.711,0.729 C189.711,0.729 194.309,17.205 209.161,22.011 C224.013,26.817 227.903,33.339 229.671,38.487 C231.439,43.636 236.037,46.382 237.805,43.98 C239.573,41.577 246.292,35.055 246.292,35.055 z" fill="#000000"/>
    <path d="M304.64,254.742 C304.64,254.742 296.86,261.264 305.347,274.651 C312.477,285.897 322.321,288.724 322.321,288.724 C322.321,288.724 287.312,301.768 278.825,283.232 C272.921,270.337 301.104,252.339 304.64,254.742 z" fill="#000000"/>
    <path d="M307.823,253.369 C307.823,253.369 324.443,248.22 327.979,250.279 L333.637,252.339 C333.637,252.339 331.576,250.789 332.577,247.876 C332.93,246.847 331.516,238.265 331.516,238.265 C331.516,238.265 325.858,239.295 330.455,229.34 C330.455,229.34 330.101,225.908 332.223,225.221 C332.223,225.221 331.516,223.162 333.637,221.445 C333.637,221.445 333.284,218.356 335.052,217.67 L338.942,226.594 C338.942,226.594 343.185,224.191 341.417,220.416 C341.417,220.416 347.075,214.237 341.771,207.028 C341.771,207.028 315.249,211.834 318.432,187.119 C321.614,162.405 338.016,174.37 343.893,157.256 C344.246,156.226 332.93,165.494 326.919,161.032 C320.907,156.569 324.09,148.331 324.09,148.331 C324.09,148.331 319.846,151.077 319.846,156.226 C319.846,161.375 313.127,168.927 313.127,168.927 C313.127,168.927 297.921,185.06 301.104,195.358 C304.286,205.655 318.078,212.521 318.432,212.521 C318.785,212.521 320.2,224.535 320.2,224.535 C320.2,224.535 321.968,232.43 321.968,232.43 C321.968,232.43 319.846,244.101 319.846,244.101 C319.846,244.101 308.176,248.22 307.823,253.369 z" fill="#000000"/>
    <path d="M306.055,20.638 C306.055,20.638 303.226,13.086 310.298,7.937 L304.994,5.534 C304.994,5.534 303.933,18.248 303.933,13.773 C303.933,12.743 300.75,17.205 306.055,20.638 z" fill="#000000"/>
    <path d="M300.75,2.102 C300.75,2.102 285.898,0.385 284.483,4.161 C283.069,7.937 269.985,16.175 286.251,22.697 C286.251,22.697 273.167,24.07 273.167,14.802 C273.167,5.534 278.825,1.072 278.825,1.072 L300.75,2.102 z" fill="#000000"/>
    <path d="M342.832,2.102 C342.832,2.102 326.565,10.34 327.626,20.295 C328.687,30.249 335.759,24.07 341.417,27.846 C341.417,27.846 328.333,30.936 328.687,35.055 C329.04,39.174 336.82,44.323 341.771,44.666 C341.771,44.666 330.455,48.785 323.382,43.636 C323.382,43.636 320.007,55.214 315.956,53.248 C315.249,52.904 308.884,22.697 308.884,22.697 L312.066,4.848 L323.382,1.072 L342.832,2.102 z" fill="#000000"/>
    <path d="M373.951,35.741 C373.951,35.741 356.977,47.069 357.684,67.665 C358.391,88.26 377.487,103.02 377.841,103.02 C378.194,103.02 353.087,89.29 353.441,65.948 C353.794,42.607 373.951,35.741 373.951,35.741 z" fill="#000000"/>
    <path d="M332.93,51.188 C334.027,51.401 324.443,53.248 324.09,59.77 C323.736,66.292 333.991,71.097 333.991,71.097 C333.991,71.097 320.907,69.038 320.907,69.038 C320.907,69.038 325.858,70.411 325.858,74.187 L312.774,73.157 L311.11,53.852 C311.11,53.852 325.858,49.815 332.93,51.188 z" fill="#000000"/>
    <path d="M266.095,92.379 C266.095,92.379 269.277,98.558 268.924,102.677 L270.338,98.901 C270.338,98.901 267.509,112.975 273.875,117.781 C273.875,117.781 269.631,101.647 278.118,87.23 L266.095,92.379 z" fill="#000000"/>
    <path d="M379.609,191.925 C379.609,191.925 377.487,191.238 376.073,193.985 C376.073,193.985 375.365,200.163 372.536,201.88 C372.536,201.88 374.658,197.565 374.658,206.685 C374.658,207.372 378.548,212.864 378.548,212.864 L378.548,224.878 C378.548,224.878 368.293,216.64 362.989,216.296 C362.989,216.296 361.928,208.745 361.928,208.745 C361.928,208.745 356.977,199.82 363.696,193.641 C370.415,187.463 377.487,178.538 380.67,182.657 L379.609,191.925 z" fill="#000000"/>
    <path d="M336.466,276.024 C336.466,276.024 337.527,271.905 337.527,272.248 C337.527,272.591 338.235,279.113 341.771,282.203 L337.174,284.605 C337.174,284.605 328.687,288.725 327.626,290.784 C327.626,290.784 326.565,281.516 334.345,278.427 L336.466,276.024 z" fill="#000000"/>
    <path d="M343.185,257.488 L341.771,252.339 C341.771,252.339 333.637,244.101 340.71,239.981 C340.71,239.981 333.991,242.041 336.113,246.847 C338.235,251.652 337.881,253.369 337.881,253.369 L336.466,256.115 C336.466,256.115 339.296,261.95 339.296,261.95 C339.296,261.95 343.185,257.488 343.185,257.488 z" fill="#000000"/>
    <path d="M343.539,286.665 C343.539,286.665 337.881,287.352 337.881,290.441 C337.881,293.53 341.771,292.157 341.771,292.157 C341.771,292.157 337.527,296.276 339.296,297.649 C339.296,297.649 321.968,298.679 321.968,298.679 C321.968,298.679 334.698,276.367 343.539,286.665 z" fill="#000000"/>
    <path d="M356.977,202.223 C354.855,205.999 358.745,212.177 358.745,212.177 C356.623,214.923 358.745,216.297 358.745,216.296 C357.621,216.283 356.651,215.736 355.714,215.203 L355.209,217.326 C340.71,236.206 354.855,241.011 354.501,249.25 C354.148,257.488 361.22,263.323 361.22,263.323 C361.22,263.323 357.684,260.577 355.562,269.159 C353.441,277.74 361.574,279.113 361.574,279.113 C361.574,279.113 360.867,282.889 352.733,281.859 C344.6,280.83 343.893,266.413 345.307,259.204 C346.722,251.996 343.185,248.906 341.064,246.16 C338.942,243.414 340.71,235.176 340.71,235.176 L345.307,226.251 L348.49,219.043 C348.49,219.043 349.551,215.953 349.551,210.118 C349.551,204.282 353.441,202.223 353.441,202.223 L353.911,203.991 C354.758,203.17 355.83,202.558 356.977,202.223 z" fill="#000000"/>
    <path d="M381.023,267.442 C381.023,267.442 366.878,272.591 367.232,285.635 C367.586,298.679 372.183,299.366 372.183,299.366 L380.67,298.679 L381.023,267.442 z" fill="#000000"/>
    <path d="M280.947,89.633 C281.239,89.239 294.385,69.724 302.165,81.738 C309.945,93.752 299.336,93.066 299.336,93.066 C299.336,93.066 315.956,131.854 287.666,129.108 L280.947,119.84 C280.947,119.84 271.046,103.02 280.947,89.633 z" fill="#000000"/>
    <path d="M315.249,136.66 L317.017,137.003 C317.017,137.003 318.078,142.495 321.261,144.555 C321.261,144.555 324.09,145.928 321.614,150.047 C321.436,150.344 318.785,163.778 318.785,162.405 C318.785,161.032 314.542,156.671 314.542,147.988 C314.542,147.644 316.31,143.525 316.31,143.525 L315.249,136.66 z" fill="#000000"/>
    <path d="M333.284,137.003 C333.284,137.003 336.82,136.66 335.759,140.779 C335.759,140.779 343.893,140.093 343.893,144.898 L329.748,145.928 L327.979,140.779 L333.284,137.003 z" fill="#000000"/>
    <path d="M368.647,163.091 L367.586,156.226 C367.586,156.226 359.099,151.42 361.574,135.973 C364.049,120.527 366.171,107.14 369.707,105.767 C373.244,104.393 373.244,108.856 373.244,108.856 C373.244,108.856 368.293,123.616 373.951,123.616 C373.951,123.616 364.049,139.749 377.841,159.658 L368.647,163.091 z" fill="#000000"/>
  </g>
  <g id="lights" opacity="0.28">
    <path d="M140.64,31.675 C135.209,29.625 143.554,58.26 146.467,63.916 C149.381,69.573 151.129,35.635 140.64,31.675 z" fill="#FFFFFF"/>
    <path d="M215.81,54.866 C208.155,57.604 195.415,76.926 203.573,82.017 C211.731,87.107 226.882,50.907 215.81,54.866 z" fill="#FFFFFF"/>
    <path d="M298.555,54.866 C290.668,51.038 285.736,65.613 291.563,68.441 C297.39,71.27 303.217,57.129 298.555,54.866 z" fill="#FFFFFF"/>
    <path d="M263.01,1.131 C263.01,1.131 255.435,29.978 249.025,28.847 C242.615,27.716 249.607,23.757 249.607,23.757 C249.607,23.757 236.205,-0 250.19,-0 C264.175,-0 263.01,1.131 263.01,1.131 z" fill="#FFFFFF"/>
    <path d="M334.684,80.32 C331.555,80.553 348.669,92.764 343.424,100.117 C338.18,107.47 319.533,123.873 335.849,128.399 C352.165,132.924 355.079,110.864 351.582,100.683 C348.086,90.501 342.259,79.754 334.684,80.32 z" fill="#FFFFFF"/>
    <path d="M362.654,7.353 C359.436,5.911 345.755,20.928 355.661,26.019 C365.567,31.11 370.229,10.747 362.654,7.353 z" fill="#FFFFFF"/>
    <path d="M356.244,32.241 C354.575,29.002 345.755,35.635 349.834,37.332 C353.913,39.029 358.575,36.766 356.244,32.241 z" fill="#FFFFFF"/>
    <path d="M352.748,161.771 C347.974,166.074 350.417,186.659 345.172,189.487 C339.928,192.315 332.935,199.103 339.928,200.799 C346.921,202.496 356.827,195.143 357.992,184.962 C359.158,174.78 360.906,154.418 352.748,161.771 z" fill="#FFFFFF"/>
    <path d="M363.819,225.687 C358.345,225.204 362.654,243.788 367.316,246.05 C371.977,248.313 361.488,258.494 366.15,261.322 C370.812,264.15 374.891,250.575 376.056,242.091 C377.222,233.606 370.229,226.253 363.819,225.687 z" fill="#FFFFFF"/>
    <path d="M333.518,261.888 C332.31,256.806 321.864,251.706 315.454,255.666 C309.044,259.625 323.029,263.019 323.612,269.241 C324.195,275.463 318.95,278.857 323.612,279.988 C328.274,281.119 335.266,269.241 333.518,261.888 z" fill="#FFFFFF"/>
    <path d="M293.894,208.718 C292.014,209.63 306.131,222.294 303.217,226.819 C300.303,231.344 275.83,237.566 277.578,244.353 C279.326,251.141 311.375,237.566 313.706,232.475 C316.037,227.384 298.555,206.456 293.894,208.718 z" fill="#FFFFFF"/>
    <path d="M230.961,257.928 C227.955,259.752 240.867,270.372 235.04,270.938 C229.212,271.504 219.889,274.897 221.054,279.422 C222.22,283.947 250.19,278.291 251.356,272.069 C252.521,265.847 235.622,255.1 230.961,257.928 z" fill="#FFFFFF"/>
    <path d="M189.588,298.654 C189.169,298.654 180.366,279.371 173.659,276.549 C166.953,273.727 171.983,298.654 171.983,298.654 L189.588,298.654 z" fill="#FFFFFF"/>
    <path d="M102.764,296.957 C102.764,296.957 96.936,289.604 99.267,286.776 C101.598,283.947 110.339,295.26 109.756,297.523 C109.173,299.785 102.764,296.957 102.764,296.957 z" fill="#FFFFFF"/>
    <path d="M142.971,263.019 C142.971,263.019 117.331,260.191 119.662,250.575 C121.993,240.959 129.568,230.778 126.072,231.344 C122.576,231.909 108.008,226.253 112.087,220.597 C116.166,214.94 137.726,225.122 140.057,229.647 C142.388,234.172 160.452,251.706 142.971,263.019 z" fill="#FFFFFF"/>
    <path d="M197.163,210.415 C191.919,208.153 189.005,212.678 194.832,218.9 C200.659,225.122 183.178,236.434 194.832,239.828 C206.487,243.222 215.786,232.825 212.314,225.122 C208.235,216.072 197.163,210.415 197.163,210.415 z" fill="#FFFFFF"/>
    <path d="M150.546,165.73 C145.749,166.894 162.783,179.305 160.452,191.184 C158.121,203.062 142.971,199.103 144.136,206.456 C145.302,213.809 165.697,209.85 165.114,196.84 C164.531,183.831 157.539,164.033 150.546,165.73 z" fill="#FFFFFF"/>
    <path d="M91.796,83.028 C88.754,84.347 95.401,95.227 98.645,93.976 C101.89,92.725 95.401,81.464 91.796,83.028 z" fill="#FFFFFF"/>
    <path d="M107.425,115.389 C102.663,117.444 98.685,126.136 103.929,132.924 C109.173,139.711 119.662,142.539 121.41,138.014 C123.159,133.489 112.67,113.126 107.425,115.389 z" fill="#FFFFFF"/>
    <path d="M205.321,105.208 C203.514,100.998 175.603,90.501 173.272,104.076 C170.941,117.652 177.934,121.611 186.674,119.914 C195.415,118.217 208.235,111.995 205.321,105.208 z" fill="#FFFFFF"/>
    <path d="M230.378,174.78 C232.773,167.805 234.457,161.771 223.385,156.115 C212.314,150.458 224.551,165.73 220.472,172.518 C216.393,179.305 204.156,181.002 213.479,186.659 C222.803,192.315 228.63,179.871 230.378,174.78 z" fill="#FFFFFF"/>
    <path d="M310.03,160.294 C310.979,154.981 305.13,143.183 301.335,144.594 C297.54,146.005 306.164,159.077 302.386,164.848 C298.608,170.62 290.857,171.231 294.615,175.912 C298.372,180.593 308.452,169.125 310.03,160.294 z" fill="#FFFFFF"/>
    <path d="M300.387,6.222 C299.525,2.286 297.97,13.575 295.151,14.141 C292.331,14.706 288.706,15.272 290.72,18.1 C292.734,20.928 301.998,13.575 300.387,6.222 z" fill="#FFFFFF"/>
    <path d="M168.721,1.131 C168.721,1.131 169.104,9.616 166.81,9.616 C164.516,9.616 159.928,11.878 161.457,15.272 C162.987,18.666 166.427,18.666 170.251,13.01 C174.074,7.353 175.603,0.566 175.603,0.566 L168.721,1.131 z" fill="#FFFFFF"/>
    <path d="M94.072,19.828 C91.549,20.368 93.742,22.998 91.766,24.054 C89.79,25.111 86.496,24.407 86.496,26.167 C86.496,27.928 90.778,29.689 93.084,26.167 C95.389,22.646 95.718,19.476 94.072,19.828 z" fill="#FFFFFF"/>
    <path d="M273.499,244.353 C274.664,248.313 265.923,252.272 264.175,247.747 C262.427,243.222 272.333,240.394 273.499,244.353 z" fill="#FFFFFF"/>
    <path d="M346.921,297.523 C346.921,296.391 341.676,291.866 345.172,289.038 C348.669,286.21 359.427,303.855 356.244,299.22 C355.079,297.523 346.921,297.523 346.921,297.523 z" fill="#FFFFFF"/>
    <path d="M379.553,153.286 C378.97,152.721 372.56,141.408 374.891,130.661 L377.222,122.742 C377.222,122.742 373.143,115.955 374.891,113.692 C376.639,111.43 378.97,115.955 379.553,119.348 C380.135,122.742 379.553,153.286 379.553,153.286 z" fill="#FFFFFF"/>
    <path d="M379.553,102.379 C378.97,102.379 368.481,98.42 373.725,89.936 C378.97,81.451 380.135,72.401 378.97,67.31 C377.804,62.22 371.395,52.604 373.143,46.947 C374.891,41.291 380.135,36.2 380.135,36.2 L379.553,102.379 z" fill="#FFFFFF"/>
    <path d="M258.348,95.026 C255.814,88.26 250.19,109.733 249.607,115.955 C249.025,122.177 235.622,128.964 239.119,133.489 C242.615,138.014 254.269,125.57 257.765,117.086 C261.262,108.601 260.679,101.248 258.348,95.026 z" fill="#FFFFFF"/>
    <path d="M90.527,218.9 C89.224,221.429 82.951,202.496 87.03,200.234 C91.109,197.971 92.275,215.506 90.527,218.9 z" fill="#FFFFFF"/>
    <path d="M88.196,192.881 C88.196,192.881 88.778,184.396 85.282,184.962 C81.786,185.527 85.865,194.578 88.196,192.881 z" fill="#FFFFFF"/>
    <path d="M276.412,297.523 C275.83,297.523 273.499,291.866 277.578,289.038 C281.657,286.21 279.909,298.654 279.909,298.654 L276.412,297.523 z" fill="#FFFFFF"/>
    <path d="M216.331,29.413 C216.331,29.413 214.474,41.291 217.659,42.422 C220.844,43.554 218.455,31.11 216.331,29.413 z" fill="#FFFFFF"/>
    <path d="M284.57,67.876 C281.657,65.048 274.081,66.745 278.743,70.704 C283.405,74.663 284.57,67.876 284.57,67.876 z" fill="#FFFFFF"/>
    <path d="M347.231,60.665 C348.207,57.974 343.783,55.574 343.947,60.099 C344.111,64.624 346.41,62.927 347.231,60.665 z" fill="#FFFFFF"/>
    <path d="M298.764,139.285 C298.586,137.134 290.135,132.152 290.347,136.218 C290.559,140.283 298.892,140.835 298.764,139.285 z" fill="#FFFFFF"/>
  </g>
  <g id="doors">
    <g>
      <path d="M799,-2.059 L799,298.853 L373.19,298.853 L373.19,302 L311.151,-2.059 L799,-2.059 z" clip-path="url(#Clip_1)" filter="url(#Shadow_2)" fill="rgba(0,0,0,0.75)"/>
      <path d="M373.19,302 L311.151,-2.059 L799,-2.059 L799,298.853 L373.19,298.853 L373.19,302 z" fill="#252522"/>
    </g>
    <g>
      <path d="M73.264,-2.059 L135.303,297.94 L-1,297.94 L-1,-1.138 L73.264,-1.138 L73.264,-2.059 z" clip-path="url(#Clip_3)" filter="url(#Shadow_4)" fill="rgba(0,0,0,0.75)"/>
      <path d="M-1,297.941 L-1,-1.138 L73.264,-1.138 L73.264,-2.059 L135.303,297.941 L-1,297.941 z" fill="#252522"/>
    </g>
  </g>
  <g id="typo" display="none">
    <text transform="matrix(1, 0, 0, 1, 578.017, 147.941)">
      <tspan x="-197.684" y="20.463" font-family="HelveticaNeue-UltraLight" font-size="66" fill="#FFFFFF">friends</tspan>
    </text>
  </g>
  <g id="friends">
    <path d="M380.333,135.799 L386.075,135.799 L386.075,168.403 L387.395,168.403 L387.395,135.799 L394.721,135.799 L394.721,134.479 L387.395,134.479 L387.395,127.417 Q387.395,124.909 388.352,123.754 Q389.309,122.599 392.477,122.599 Q393.203,122.599 393.929,122.665 Q394.655,122.731 395.579,122.863 L395.579,121.543 Q395.051,121.477 394.358,121.378 Q393.665,121.279 392.741,121.279 Q391.685,121.279 390.497,121.411 Q389.309,121.543 388.319,122.104 Q387.329,122.665 386.702,123.787 Q386.075,124.909 386.075,126.955 L386.075,134.479 L380.333,134.479 z" fill="#FFFFFF"/>
    <path d="M398.747,168.403 L398.747,149.197 Q398.747,146.425 399.539,143.785 Q400.331,141.145 401.981,139.132 Q403.631,137.119 406.172,135.964 Q408.713,134.809 412.211,135.007 L412.211,133.687 Q409.175,133.621 406.898,134.347 Q404.621,135.073 402.971,136.327 Q401.321,137.581 400.331,139.264 Q399.341,140.947 398.879,142.861 L398.747,142.861 L398.747,134.479 L397.427,134.479 L397.427,168.403 z" fill="#FFFFFF"/>
    <path d="M415.841,127.945 L415.841,121.279 L414.521,121.279 L414.521,127.945 z M415.841,168.403 L415.841,134.479 L414.521,134.479 L414.521,168.403 z" fill="#FFFFFF"/>
    <path d="M422.441,151.705 L450.821,151.705 Q450.953,148.207 450.128,144.973 Q449.303,141.739 447.488,139.231 Q445.673,136.723 442.802,135.205 Q439.931,133.687 435.971,133.687 Q433.133,133.687 430.427,134.875 Q427.721,136.063 425.675,138.34 Q423.629,140.617 422.375,143.917 Q421.121,147.217 421.121,151.441 Q421.121,155.203 421.979,158.47 Q422.837,161.737 424.619,164.146 Q426.401,166.555 429.206,167.875 Q432.011,169.195 435.971,169.129 Q441.779,169.129 445.739,165.862 Q449.699,162.595 450.425,156.655 L449.105,156.655 Q448.247,162.265 444.716,165.07 Q441.185,167.875 435.839,167.875 Q432.209,167.875 429.701,166.621 Q427.193,165.367 425.609,163.189 Q424.025,161.011 423.266,158.074 Q422.507,155.137 422.441,151.705 z M449.501,150.385 L422.441,150.385 Q422.639,146.821 423.761,143.983 Q424.883,141.145 426.698,139.132 Q428.513,137.119 430.922,136.063 Q433.331,135.007 436.103,135.007 Q439.403,135.007 441.911,136.228 Q444.419,137.449 446.102,139.561 Q447.785,141.673 448.643,144.478 Q449.501,147.283 449.501,150.385 z" fill="#FFFFFF"/>
    <path d="M456.101,134.479 L456.101,168.403 L457.421,168.403 L457.421,149.197 Q457.421,146.359 458.213,143.785 Q459.005,141.211 460.556,139.264 Q462.107,137.317 464.417,136.162 Q466.727,135.007 469.763,135.007 Q471.941,135.007 473.888,135.634 Q475.835,136.261 477.32,137.614 Q478.805,138.967 479.663,141.046 Q480.521,143.125 480.521,146.095 L480.521,168.403 L481.841,168.403 L481.841,145.897 Q481.841,142.927 480.95,140.65 Q480.059,138.373 478.442,136.822 Q476.825,135.271 474.614,134.479 Q472.403,133.687 469.763,133.687 Q467.255,133.687 465.209,134.38 Q463.163,135.073 461.612,136.327 Q460.061,137.581 459.038,139.231 Q458.015,140.881 457.553,142.861 L457.421,142.861 L457.421,134.479 z" fill="#FFFFFF"/>
    <path d="M515.501,121.279 L515.501,143.983 L515.369,143.983 Q514.181,139.363 510.683,136.525 Q507.185,133.687 501.773,133.687 Q498.275,133.687 495.569,135.139 Q492.863,136.591 491.048,139.033 Q489.233,141.475 488.276,144.709 Q487.319,147.943 487.319,151.507 Q487.319,155.335 488.309,158.569 Q489.299,161.803 491.18,164.146 Q493.061,166.489 495.734,167.809 Q498.407,169.129 501.773,169.129 Q506.987,169.129 510.518,166.291 Q514.049,163.453 515.369,158.899 L515.501,158.899 L515.501,168.403 L516.821,168.403 L516.821,121.279 z M515.501,151.507 Q515.501,154.807 514.577,157.777 Q513.653,160.747 511.904,162.991 Q510.155,165.235 507.614,166.555 Q505.073,167.875 501.773,167.875 Q498.473,167.875 495.998,166.555 Q493.523,165.235 491.906,162.958 Q490.289,160.681 489.464,157.711 Q488.639,154.741 488.639,151.507 Q488.639,148.537 489.398,145.6 Q490.157,142.663 491.741,140.32 Q493.325,137.977 495.833,136.492 Q498.341,135.007 501.773,135.007 Q507.977,135.007 511.739,139.264 Q515.501,143.521 515.501,151.507 z" fill="#FFFFFF"/>
    <path d="M546.653,144.511 L547.973,144.511 Q547.973,138.835 544.673,136.261 Q541.373,133.687 535.697,133.687 Q532.529,133.687 530.351,134.479 Q528.173,135.271 526.787,136.525 Q525.401,137.779 524.807,139.297 Q524.213,140.815 524.213,142.201 Q524.213,144.973 525.203,146.623 Q526.193,148.273 528.305,149.197 Q529.757,149.857 531.605,150.385 Q533.453,150.913 535.895,151.507 Q538.073,152.035 540.185,152.563 Q542.297,153.091 543.914,153.982 Q545.531,154.873 546.554,156.259 Q547.577,157.645 547.577,159.889 Q547.577,162.067 546.554,163.585 Q545.531,165.103 543.947,166.06 Q542.363,167.017 540.416,167.446 Q538.469,167.875 536.621,167.875 Q530.615,167.875 527.414,165.202 Q524.213,162.529 524.213,156.787 L522.893,156.787 Q522.893,163.189 526.358,166.159 Q529.823,169.129 536.621,169.129 Q538.799,169.129 541.01,168.634 Q543.221,168.139 544.97,167.017 Q546.719,165.895 547.808,164.113 Q548.897,162.331 548.897,159.757 Q548.897,157.315 547.94,155.797 Q546.983,154.279 545.432,153.289 Q543.881,152.299 541.934,151.738 Q539.987,151.177 538.007,150.649 Q535.235,149.923 533.156,149.395 Q531.077,148.867 529.295,148.141 Q527.579,147.415 526.556,146.062 Q525.533,144.709 525.533,142.201 Q525.533,141.739 525.797,140.551 Q526.061,139.363 527.051,138.142 Q528.041,136.921 530.087,135.964 Q532.133,135.007 535.697,135.007 Q538.139,135.007 540.152,135.535 Q542.165,136.063 543.617,137.218 Q545.069,138.373 545.861,140.155 Q546.653,141.937 546.653,144.511 z" fill="#FFFFFF"/>
  </g>
  <g id="rahmen">
    <path d="M800,0 L800,300 L0,300 L0,0 L800,0 z M796,4 L4,4 L4,296 L796,296 L796,4 z" fill="#252522"/>
  </g>
</svg>
