<?xml version="1.0" encoding="UTF-8"?>
<!DOCTYPE svg PUBLIC "-//W3C//DTD SVG 1.1//EN" "http://www.w3.org/Graphics/SVG/1.1/DTD/svg11.dtd">
<svg version="1.1" xmlns="http://www.w3.org/2000/svg" xmlns:xlink="http://www.w3.org/1999/xlink" x="0" y="0" width="900" height="400" viewBox="0, 0, 900, 400">
  <defs>
    <linearGradient id="Gradient_1" gradientUnits="userSpaceOnUse" x1="-9" y1="172" x2="940.002" y2="173">
      <stop offset="0.016" stop-color="#1E90FF"/>
      <stop offset="1" stop-color="#FFA500"/>
    </linearGradient>
    <clipPath id="Clip_1">
      <path d="M151.151,-263.059 L661,-263.059 L661,63 L151.151,63 z M650,-252.059 L162.151,-252.059 L224.19,52 L224.19,48.853 L650,48.853 L650,-252.059 z"/>
    </clipPath>
    <filter id="Shadow_2">
      <feGaussianBlur in="SourceAlpha" stdDeviation="5"/>
      <feOffset dx="0" dy="0" result="offsetblur"/>
      <feFlood flood-color="#000000"/>
      <feComposite in2="offsetblur" operator="in"/>
    </filter>
    <clipPath id="Clip_3">
      <path d="M-161,-263.059 L-2.697,-263.059 L-2.697,58.94 L-161,58.94 z M-75.736,-252.059 L-75.736,-251.138 L-150,-251.138 L-150,47.94 L-13.697,47.94 L-75.736,-252.059 z"/>
    </clipPath>
    <filter id="Shadow_4">
      <feGaussianBlur in="SourceAlpha" stdDeviation="5"/>
      <feOffset dx="0" dy="0" result="offsetblur"/>
      <feFlood flood-color="#000000"/>
      <feComposite in2="offsetblur" operator="in"/>
    </filter>
    <clipPath id="Clip_5">
      <path d="M502.697,-263.059 L661,-263.059 L661,58.94 L502.697,58.94 z M650,-252.059 L513.697,-252.059 L575.736,47.94 L575.736,47.02 L650,47.02 L650,-252.059 z"/>
    </clipPath>
    <filter id="Shadow_6">
      <feGaussianBlur in="SourceAlpha" stdDeviation="5"/>
      <feOffset dx="0" dy="0" result="offsetblur"/>
      <feFlood flood-color="#000000"/>
      <feComposite in2="offsetblur" operator="in"/>
    </filter>
    <clipPath id="Clip_7">
      <path d="M151.151,-263.059 L661,-263.059 L661,63 L151.151,63 z M650,-252.059 L162.151,-252.059 L224.19,52 L224.19,48.853 L650,48.853 L650,-252.059 z"/>
    </clipPath>
    <filter id="Shadow_8">
      <feGaussianBlur in="SourceAlpha" stdDeviation="5"/>
      <feOffset dx="0" dy="0" result="offsetblur"/>
      <feFlood flood-color="#000000"/>
      <feComposite in2="offsetblur" operator="in"/>
    </filter>
    <clipPath id="Clip_9">
      <path d="M-161,-263.059 L-2.697,-263.059 L-2.697,58.94 L-161,58.94 z M-75.736,-252.059 L-75.736,-251.138 L-150,-251.138 L-150,47.94 L-13.697,47.94 L-75.736,-252.059 z"/>
    </clipPath>
    <filter id="Shadow_10">
      <feGaussianBlur in="SourceAlpha" stdDeviation="5"/>
      <feOffset dx="0" dy="0" result="offsetblur"/>
      <feFlood flood-color="#000000"/>
      <feComposite in2="offsetblur" operator="in"/>
    </filter>
    <clipPath id="Clip_11">
      <path d="M502.697,-263.059 L661,-263.059 L661,58.94 L502.697,58.94 z M650,-252.059 L513.697,-252.059 L575.736,47.94 L575.736,47.02 L650,47.02 L650,-252.059 z"/>
    </clipPath>
    <filter id="Shadow_12">
      <feGaussianBlur in="SourceAlpha" stdDeviation="5"/>
      <feOffset dx="0" dy="0" result="offsetblur"/>
      <feFlood flood-color="#000000"/>
      <feComposite in2="offsetblur" operator="in"/>
    </filter>
  </defs>
  <g id="Ebene_3" display="none">
    <path d="M50,-200 L850,-200 L850,400 L50,400 L50,-200 z" fill="url(#Gradient_1)"/>
  </g>
  <g id="Ebene_4" display="none">
    <path d="M119.494,56.516 L120.452,56.821 L122.383,57.392 L124.296,58.009 L126.214,58.628 L128.13,59.272 L130.038,59.966 L131.948,60.683 L133.851,61.451 L135.764,62.225 L137.67,63.05 L139.57,63.92 L141.474,64.81 L144.365,66.148 L148.207,68.035 L152.042,70.006 L155.923,71.947 L159.848,73.854 L163.798,75.74 L167.779,77.567 L170.807,78.871 L172.869,79.663 L174.935,80.416 L177.016,81.128 L179.113,81.795 L181.227,82.411 L182.317,82.704 L182.317,82.704 C182.331,82.706 182.345,82.709 182.358,82.711 L182.358,82.711 L185.926,83.65 L193.162,85.373 L200.443,86.983 L207.769,88.436 L215.143,89.733 L222.559,90.879 L229.993,91.938 L237.441,92.919 L244.928,93.75 L252.426,94.515 L259.93,95.217 L267.461,95.807 L275.002,96.331 L282.546,96.804 L290.095,97.216 L297.662,97.549 L308.999,97.975 L324.128,98.394 L339.262,98.665 L354.377,98.847 L369.475,98.942 L384.527,99.026 L399.546,99.087 L414.503,99.193 L421.947,99.274 L421.942,99.274 L465.164,99.601 L530.152,99.635 L573.612,99.263 L617.11,98.735 L660.753,97.771 L705.272,94.447 L750.555,89.037 L773.494,85.516 L773.494,85.516 C773.5,85.516 773.507,85.509 773.511,85.5 C773.514,85.491 773.512,85.484 773.506,85.484 C773.506,85.484 773.506,85.484 773.506,85.484 L753.251,81.943 L712.152,76.38 L670.293,72.763 L627.561,71.379 L584.685,70.317 L541.771,69.309 L477.196,68.23 L434.039,67.726 L434.039,67.726 C434.037,67.726 434.035,67.726 434.034,67.726 L434.034,67.726 L426.52,67.681 L411.483,67.649 L396.417,67.673 L381.309,67.76 L366.187,67.836 L351.038,67.915 L335.882,67.939 L320.708,67.905 L309.321,67.818 L301.742,67.713 L294.153,67.6 L286.565,67.455 L278.985,67.259 L271.407,67.019 L263.816,66.775 L256.234,66.469 L248.66,66.097 L241.066,65.735 L233.481,65.303 L225.902,64.804 L218.306,64.291 L210.69,63.764 L203.058,63.215 L195.415,62.594 L191.555,62.289 L191.596,62.296 L190.571,62.212 L188.46,61.994 L186.343,61.725 L184.218,61.409 L182.085,61.049 L179.955,60.655 L176.707,60.06 L172.335,59.183 L167.942,58.235 L163.528,57.251 L159.067,56.317 L154.547,55.505 L150.017,54.773 L146.611,54.298 L144.308,54.07 L141.992,53.905 L139.673,53.786 L137.35,53.718 L135.005,53.753 L132.655,53.857 L130.289,54.067 L127.918,54.365 L125.534,54.784 L123.128,55.359 L120.723,56.052 L119.506,56.484 C119.506,56.484 119.506,56.484 119.506,56.484 C119.5,56.485 119.492,56.492 119.489,56.501 C119.486,56.509 119.488,56.516 119.494,56.516 L119.494,56.516" fill="#000000"/>
    <path d="M799.506,117.484 L793.152,115.137 L779.904,111.867 L766.456,109.166 L752.726,107.268 L738.85,105.827 L724.867,104.745 L710.774,104.028 L696.631,103.516 L682.422,103.243 L668.18,103.122 L646.767,103.19 L618.14,103.614 L589.466,104.258 L560.767,105.002 L539.237,105.578 L524.889,105.924 L510.538,106.248 L496.163,106.591 L481.791,106.877 L467.407,107.139 L453.021,107.338 L438.63,107.47 L424.234,107.531 L409.832,107.506 L395.422,107.39 L381.001,107.188 L370.195,106.946 L362.983,106.77 L355.76,106.565 L348.536,106.322 L344.932,106.186 L344.941,106.187 L344.846,106.183 L344.628,106.174 L344.233,106.158 L343.581,106.13 L342.792,106.099 L341.87,106.062 L340.819,106.02 L339.648,105.972 L338.36,105.919 L336.957,105.861 L335.448,105.798 L333.837,105.73 L332.126,105.657 L330.322,105.58 L328.43,105.499 L326.451,105.414 L324.39,105.331 L322.255,105.245 L320.051,105.155 L317.772,105.082 L315.418,105.036 L313.002,105.001 L310.529,104.983 L308.005,104.963 L305.44,104.942 L301.501,104.956 L296.136,104.991 L290.658,105.086 L285.118,105.207 L279.537,105.394 L273.984,105.573 L268.46,105.835 L263.037,106.099 L259.062,106.287 L256.461,106.42 L253.894,106.579 L251.381,106.731 L248.927,106.877 L246.536,107.017 L244.204,107.174 L241.944,107.322 L239.761,107.466 L237.657,107.612 L235.642,107.748 L233.717,107.879 L231.887,108.005 L230.162,108.117 L228.542,108.225 L227.035,108.32 L225.646,108.401 L224.378,108.472 L223.24,108.525 L222.235,108.563 L221.368,108.584 L220.646,108.585 L220.201,108.574 L219.952,108.56 L219.742,108.54 L219.575,108.507 L219.509,108.485 L219.509,108.485 C219.504,108.482 219.496,108.487 219.491,108.496 C219.487,108.504 219.487,108.513 219.491,108.515 L219.551,108.551 L219.691,108.639 L219.861,108.744 L220.064,108.858 L220.43,109.046 L221.029,109.325 L221.751,109.639 L222.592,109.983 L223.549,110.355 L224.616,110.757 L225.793,111.181 L227.072,111.629 L228.449,112.102 L229.924,112.588 L231.488,113.098 L233.141,113.622 L234.878,114.158 L236.691,114.712 L238.583,115.27 L240.546,115.84 L242.573,116.424 L244.67,116.996 L246.824,117.579 L249.03,118.172 L251.283,118.775 L253.593,119.354 L257.138,120.216 L261.975,121.384 L266.914,122.549 L271.952,123.627 L277.015,124.704 L282.1,125.701 L287.153,126.654 L292.151,127.523 L295.832,128.144 L298.255,128.519 L300.637,128.886 L302.975,129.246 L305.271,129.578 L307.517,129.89 L309.717,130.164 L311.863,130.409 L313.939,130.646 L315.942,130.873 L317.87,131.086 L319.718,131.288 L321.479,131.48 L323.148,131.661 L324.722,131.831 L326.197,131.99 L327.564,132.137 L328.825,132.272 L329.972,132.395 L330.999,132.504 L331.905,132.599 L332.686,132.68 L333.336,132.744 L333.736,132.783 L333.96,132.804 L334.059,132.813 L334.059,132.813 C334.062,132.814 334.065,132.814 334.068,132.814 L334.068,132.814 L337.639,133.146 L344.767,133.779 L351.897,134.372 L359.04,134.917 L369.77,135.619 L384.069,136.431 L398.385,137.067 L412.714,137.552 L427.055,137.897 L441.406,138.107 L455.765,138.198 L470.132,138.183 L484.514,138.043 L498.896,137.829 L513.304,137.486 L527.719,137.07 L549.335,136.371 L578.17,135.266 L607.033,134.028 L635.941,132.687 L657.679,131.599 L672.201,130.823 L686.754,130.009 L701.371,129.089 L716.035,128.115 L730.807,126.947 L745.681,125.609 L760.697,124.022 L775.992,121.859 L791.481,119.373 L799.494,117.516 C799.5,117.516 799.507,117.509 799.51,117.5 C799.514,117.492 799.512,117.484 799.506,117.484 L799.506,117.484" fill="#000000"/>
    <path d="M134.494,45.516 L142.114,48.386 L158.215,51.835 L183.022,55.234 L208.257,57.488 L225.265,58.498 L242.374,59.298 L255.232,59.851 L263.805,60.232 L272.394,60.61 L280.99,61.001 L289.579,61.438 L298.181,61.875 L306.781,62.36 L315.375,62.902 L323.979,63.465 L332.579,64.09 L341.169,64.784 L349.767,65.526 L358.358,66.334 L366.946,67.223 L375.525,68.19 L384.108,69.229 L392.689,70.345 L401.28,71.522 L405.559,72.137 L405.54,72.135 L406.525,72.28 L408.422,72.564 L410.227,72.84 L411.948,73.11 L413.587,73.37 L415.149,73.621 L416.635,73.866 L418.045,74.105 L419.386,74.338 L420.66,74.565 L421.869,74.787 L423.014,75.003 L424.102,75.215 L425.134,75.421 L426.109,75.622 L427.034,75.819 L427.914,76.011 L428.747,76.199 L429.539,76.383 L430.294,76.563 L431.369,76.83 L432.694,77.171 L433.918,77.498 L435.075,77.82 L436.744,78.297 L438.958,78.933 L440.728,79.42 L442.014,79.755 L443.381,80.09 L444.855,80.427 L446.054,80.685 L446.9,80.858 L447.773,81.03 L448.689,81.203 L449.644,81.377 L450.646,81.553 L451.697,81.73 L452.8,81.909 L453.955,82.09 L455.169,82.274 L456.44,82.459 L457.777,82.643 L459.18,82.827 L460.652,83.015 L462.194,83.205 L463.811,83.399 L465.505,83.596 L467.279,83.796 L469.136,84 L471.079,84.208 L472.089,84.314 L472.089,84.314 C472.103,84.316 472.118,84.318 472.133,84.32 L472.133,84.32 L475.045,84.605 L480.987,85.084 L486.965,85.426 L492.942,85.638 L498.906,85.759 L504.855,85.806 L513.739,85.776 L525.574,85.567 L534.409,85.414 L540.27,85.323 L546.123,85.268 L551.957,85.272 L557.783,85.337 L563.665,85.309 L566.579,85.328 L566.542,85.325 L568.991,85.365 L573.866,85.406 L578.726,85.456 L583.613,85.462 L590.967,85.438 L600.817,85.295 L608.268,85.032 L613.255,84.807 L618.284,84.455 L623.332,84.033 L628.416,83.491 L633.534,82.824 L638.69,82.018 L643.886,81.049 L646.494,80.516 L646.494,80.516 C646.5,80.516 646.507,80.509 646.511,80.5 C646.514,80.491 646.512,80.484 646.506,80.484 L644.324,79.924 L639.993,78.744 L635.682,77.536 L631.386,76.299 L627.1,75.038 L622.813,73.77 L618.534,72.466 L614.23,71.205 L607.758,69.275 L599.025,66.81 L592.388,65.063 L587.906,63.969 L583.354,62.983 L578.764,62.073 L576.458,61.675 L576.458,61.675 C576.446,61.674 576.433,61.673 576.421,61.672 L576.421,61.672 L573.541,61.207 L567.823,60.378 L562.035,59.839 L556.243,59.403 L550.462,59.036 L544.68,58.727 L536.044,58.351 L524.58,57.858 L515.998,57.475 L510.311,57.157 L504.647,56.768 L499.008,56.294 L493.385,55.736 L487.741,55.071 L484.867,54.68 L484.911,54.686 L483.943,54.547 L482.063,54.274 L480.27,54.008 L478.561,53.75 L476.934,53.499 L475.386,53.254 L473.912,53.015 L472.514,52.783 L471.185,52.556 L469.923,52.336 L468.723,52.127 L467.588,51.922 L466.511,51.722 L465.491,51.527 L464.525,51.336 L463.609,51.148 L462.741,50.965 L461.92,50.785 L461.138,50.608 L460.407,50.437 L459.371,50.184 L458.081,49.851 L456.887,49.522 L455.773,49.199 L454.142,48.699 L451.956,48.002 L450.227,47.453 L448.989,47.07 L447.658,46.673 L446.227,46.268 L445.075,45.957 L444.256,45.744 L443.4,45.526 L442.503,45.305 L441.565,45.079 L440.579,44.848 L439.544,44.613 L438.461,44.373 L437.323,44.127 L436.128,43.876 L434.874,43.619 L433.559,43.357 L432.178,43.087 L430.727,42.811 L429.209,42.529 L427.616,42.239 L425.944,41.945 L424.194,41.646 L422.36,41.339 L420.446,41.025 L419.46,40.865 L419.46,40.865 C419.454,40.864 419.447,40.864 419.441,40.863 L419.441,40.863 L415.085,40.175 L406.398,38.895 L397.691,37.745 L388.976,36.704 L380.248,35.769 L371.52,34.924 L362.787,34.16 L354.051,33.485 L345.301,32.909 L336.552,32.403 L327.801,31.966 L319.033,31.634 L310.264,31.361 L301.492,31.149 L292.7,31.039 L283.911,30.977 L275.11,30.989 L266.288,31.083 L253.045,31.338 L235.34,31.946 L217.523,32.944 L190.505,35.388 L163.049,39.044 L144.307,42.601 L134.506,45.484 C134.5,45.484 134.493,45.491 134.489,45.5 C134.486,45.509 134.488,45.516 134.494,45.516 L134.494,45.516" fill="#000000"/>
  </g>
  <g id="Ebene_5_Kopieren" display="none">
    <path d="M224.5,320 L665.5,320 L665.5,323 L224.5,323 L224.5,320 z" fill="#1D90FF"/>
    <path d="M224.5,326 L665.5,326 L665.5,329 L224.5,329 L224.5,326 z" fill="#FFA500"/>
  </g>
  <g id="Ebene_5">
    <path d="M224.5,394 L665.5,394 L665.5,397 L224.5,397 L224.5,394 z" fill="#000000"/>
    <path d="M450.435,123.411 L532.551,205.527 L450.435,287.642 L368.32,205.527 L450.435,123.411 z" fill-opacity="0" stroke="#000000" stroke-width="4"/>
  </g>
  <g id="fonts" display="none">
    <g display="none">
      <path d="M650,-252.059 L650,48.853 L224.19,48.853 L224.19,52 L162.151,-252.059 L650,-252.059 z" clip-path="url(#Clip_1)" filter="url(#Shadow_2)" fill="rgba(0,0,0,0.75)"/>
      <path d="M224.19,52 L162.151,-252.059 L650,-252.059 L650,48.853 L224.19,48.853 L224.19,52 z" fill="#252522"/>
    </g>
    <g display="none">
      <path d="M-75.736,-252.059 L-13.697,47.94 L-150,47.94 L-150,-251.138 L-75.736,-251.138 L-75.736,-252.059 z" clip-path="url(#Clip_3)" filter="url(#Shadow_4)" fill="rgba(0,0,0,0.75)"/>
      <path d="M-150,47.941 L-150,-251.138 L-75.736,-251.138 L-75.736,-252.059 L-13.697,47.941 L-150,47.941 z" fill="#252522"/>
    </g>
    <g display="none">
      <path d="M650,-252.059 L650,47.02 L575.736,47.02 L575.736,47.94 L513.697,-252.059 L650,-252.059 z" clip-path="url(#Clip_5)" filter="url(#Shadow_6)" fill="rgba(0,0,0,0.75)"/>
      <path d="M650,-252.059 L650,47.02 L575.736,47.02 L575.736,47.941 L513.697,-252.059 L650,-252.059 z" fill="#252522"/>
    </g>
    <text transform="matrix(1, 0, 0, 1, 450, 345.235)">
      <tspan x="-114.696" y="22.235" font-family="HelveticaNeue-UltraLight" font-size="72" fill="#000000">Projects</tspan>
    </text>
  </g>
  <g id="fonts_Kopieren">
    <g display="none">
      <path d="M650,-252.059 L650,48.853 L224.19,48.853 L224.19,52 L162.151,-252.059 L650,-252.059 z" clip-path="url(#Clip_7)" filter="url(#Shadow_8)" fill="rgba(0,0,0,0.75)"/>
      <path d="M224.19,52 L162.151,-252.059 L650,-252.059 L650,48.853 L224.19,48.853 L224.19,52 z" fill="#252522"/>
    </g>
    <g display="none">
      <path d="M-75.736,-252.059 L-13.697,47.94 L-150,47.94 L-150,-251.138 L-75.736,-251.138 L-75.736,-252.059 z" clip-path="url(#Clip_9)" filter="url(#Shadow_10)" fill="rgba(0,0,0,0.75)"/>
      <path d="M-150,47.941 L-150,-251.138 L-75.736,-251.138 L-75.736,-252.059 L-13.697,47.941 L-150,47.941 z" fill="#252522"/>
    </g>
    <g display="none">
      <path d="M650,-252.059 L650,47.02 L575.736,47.02 L575.736,47.94 L513.697,-252.059 L650,-252.059 z" clip-path="url(#Clip_11)" filter="url(#Shadow_12)" fill="rgba(0,0,0,0.75)"/>
      <path d="M650,-252.059 L650,47.02 L575.736,47.02 L575.736,47.941 L513.697,-252.059 L650,-252.059 z" fill="#252522"/>
    </g>
    <path d="M340.632,367.47 L340.632,344.07 L359.28,344.07 Q362.88,344.07 365.868,343.17 Q368.856,342.27 371.016,340.506 Q373.176,338.742 374.4,336.114 Q375.624,333.486 375.624,330.102 Q375.624,323.118 371.52,319.59 Q367.416,316.062 360,316.062 L339.192,316.062 L339.192,367.47 z M340.632,342.63 L340.632,317.502 L360,317.502 Q367.2,317.502 370.692,320.742 Q374.184,323.982 374.184,330.102 Q374.184,333.126 373.104,335.43 Q372.024,337.734 370.116,339.354 Q368.208,340.974 365.616,341.802 Q363.024,342.63 360,342.63 z" fill="#000000"/>
    <path d="M382.032,367.47 L382.032,346.518 Q382.032,343.494 382.896,340.614 Q383.76,337.734 385.56,335.538 Q387.36,333.342 390.132,332.082 Q392.904,330.822 396.72,331.038 L396.72,329.598 Q393.408,329.526 390.924,330.318 Q388.44,331.11 386.64,332.478 Q384.84,333.846 383.76,335.682 Q382.68,337.518 382.176,339.606 L382.032,339.606 L382.032,330.462 L380.592,330.462 L380.592,367.47 z" fill="#000000"/>
    <path d="M398.736,348.966 Q398.736,345.51 399.708,342.27 Q400.68,339.03 402.624,336.546 Q404.568,334.062 407.412,332.55 Q410.256,331.038 414,331.038 Q417.672,331.038 420.516,332.55 Q423.36,334.062 425.304,336.546 Q427.248,339.03 428.22,342.27 Q429.192,345.51 429.192,348.966 Q429.192,352.494 428.22,355.734 Q427.248,358.974 425.304,361.458 Q423.36,363.942 420.516,365.418 Q417.672,366.894 414,366.894 Q410.256,366.894 407.412,365.418 Q404.568,363.942 402.624,361.458 Q400.68,358.974 399.708,355.734 Q398.736,352.494 398.736,348.966 z M397.296,348.966 Q397.296,352.782 398.376,356.274 Q399.456,359.766 401.58,362.43 Q403.704,365.094 406.8,366.678 Q409.896,368.262 413.928,368.262 Q418.032,368.262 421.128,366.678 Q424.224,365.094 426.348,362.43 Q428.472,359.766 429.552,356.274 Q430.632,352.782 430.632,348.966 Q430.632,345.15 429.552,341.658 Q428.472,338.166 426.348,335.502 Q424.224,332.838 421.128,331.218 Q418.032,329.598 414,329.598 Q409.896,329.598 406.8,331.218 Q403.704,332.838 401.58,335.502 Q399.456,338.166 398.376,341.658 Q397.296,345.15 397.296,348.966 z" fill="#000000"/>
    <path d="M438.048,323.334 L438.048,316.062 L436.608,316.062 L436.608,323.334 z M438.048,372.798 L438.048,330.462 L436.608,330.462 L436.608,372.294 Q436.608,374.598 436.212,375.894 Q435.816,377.19 434.952,377.802 Q434.088,378.414 432.648,378.558 Q431.208,378.702 429.192,378.702 L429.192,380.142 Q431.28,380.142 432.936,379.962 Q434.592,379.782 435.744,379.026 Q436.896,378.27 437.472,376.794 Q438.048,375.318 438.048,372.798 z" fill="#000000"/>
    <path d="M445.248,349.254 L476.208,349.254 Q476.352,345.438 475.452,341.91 Q474.552,338.382 472.572,335.646 Q470.592,332.91 467.46,331.254 Q464.328,329.598 460.008,329.598 Q456.912,329.598 453.96,330.894 Q451.008,332.19 448.776,334.674 Q446.544,337.158 445.176,340.758 Q443.808,344.358 443.808,348.966 Q443.808,353.07 444.744,356.634 Q445.68,360.198 447.624,362.826 Q449.568,365.454 452.628,366.894 Q455.688,368.334 460.008,368.262 Q466.344,368.262 470.664,364.698 Q474.984,361.134 475.776,354.654 L474.336,354.654 Q473.4,360.774 469.548,363.834 Q465.696,366.894 459.864,366.894 Q455.904,366.894 453.168,365.526 Q450.432,364.158 448.704,361.782 Q446.976,359.406 446.148,356.202 Q445.32,352.998 445.248,349.254 z M474.768,347.814 L445.248,347.814 Q445.464,343.926 446.688,340.83 Q447.912,337.734 449.892,335.538 Q451.872,333.342 454.5,332.19 Q457.128,331.038 460.152,331.038 Q463.752,331.038 466.488,332.37 Q469.224,333.702 471.06,336.006 Q472.896,338.31 473.832,341.37 Q474.768,344.43 474.768,347.814 z" fill="#000000"/>
    <path d="M511.776,354.87 L510.336,354.87 Q510.12,357.678 508.968,359.874 Q507.816,362.07 505.98,363.654 Q504.144,365.238 501.768,366.066 Q499.392,366.894 496.656,366.894 Q492.984,366.894 490.176,365.49 Q487.368,364.086 485.496,361.71 Q483.624,359.334 482.652,356.238 Q481.68,353.142 481.68,349.758 Q481.68,346.518 482.508,343.17 Q483.336,339.822 485.172,337.122 Q487.008,334.422 490.068,332.73 Q493.128,331.038 497.52,331.038 Q499.824,331.038 501.912,331.686 Q504,332.334 505.656,333.666 Q507.312,334.998 508.464,336.978 Q509.616,338.958 510.048,341.694 L511.488,341.694 Q511.128,338.742 509.868,336.474 Q508.608,334.206 506.736,332.694 Q504.864,331.182 502.488,330.39 Q500.112,329.598 497.52,329.598 Q493.128,329.598 489.852,331.254 Q486.576,332.91 484.452,335.682 Q482.328,338.454 481.284,342.09 Q480.24,345.726 480.24,349.758 Q480.24,353.574 481.32,356.922 Q482.4,360.27 484.488,362.79 Q486.576,365.31 489.636,366.786 Q492.696,368.262 496.656,368.262 Q499.824,368.262 502.452,367.326 Q505.08,366.39 507.06,364.662 Q509.04,362.934 510.264,360.45 Q511.488,357.966 511.776,354.87 z" fill="#000000"/>
    <path d="M521.928,331.902 L530.28,331.902 L530.28,330.462 L521.928,330.462 L521.928,318.798 L520.488,318.798 L520.488,330.462 L513.72,330.462 L513.72,331.902 L520.488,331.902 L520.488,360.558 Q520.488,364.518 522.252,365.994 Q524.016,367.47 526.536,367.47 Q528.192,367.47 528.804,367.398 Q529.416,367.326 530.064,367.254 L530.064,365.814 Q529.704,365.958 528.84,365.994 Q527.976,366.03 526.896,366.03 Q526.032,366.03 525.168,365.922 Q524.304,365.814 523.584,365.238 Q522.864,364.662 522.396,363.51 Q521.928,362.358 521.928,360.27 z" fill="#000000"/>
    <path d="M559.44,341.406 L560.88,341.406 Q560.88,335.214 557.28,332.406 Q553.68,329.598 547.488,329.598 Q544.032,329.598 541.656,330.462 Q539.28,331.326 537.768,332.694 Q536.256,334.062 535.608,335.718 Q534.96,337.374 534.96,338.886 Q534.96,341.91 536.04,343.71 Q537.12,345.51 539.424,346.518 Q541.008,347.238 543.024,347.814 Q545.04,348.39 547.704,349.038 Q550.08,349.614 552.384,350.19 Q554.688,350.766 556.452,351.738 Q558.216,352.71 559.332,354.222 Q560.448,355.734 560.448,358.182 Q560.448,360.558 559.332,362.214 Q558.216,363.87 556.488,364.914 Q554.76,365.958 552.636,366.426 Q550.512,366.894 548.496,366.894 Q541.944,366.894 538.452,363.978 Q534.96,361.062 534.96,354.798 L533.52,354.798 Q533.52,361.782 537.3,365.022 Q541.08,368.262 548.496,368.262 Q550.872,368.262 553.284,367.722 Q555.696,367.182 557.604,365.958 Q559.512,364.734 560.7,362.79 Q561.888,360.846 561.888,358.038 Q561.888,355.374 560.844,353.718 Q559.8,352.062 558.108,350.982 Q556.416,349.902 554.292,349.29 Q552.168,348.678 550.008,348.102 Q546.984,347.31 544.716,346.734 Q542.448,346.158 540.504,345.366 Q538.632,344.574 537.516,343.098 Q536.4,341.622 536.4,338.886 Q536.4,338.382 536.688,337.086 Q536.976,335.79 538.056,334.458 Q539.136,333.126 541.368,332.082 Q543.6,331.038 547.488,331.038 Q550.152,331.038 552.348,331.614 Q554.544,332.19 556.128,333.45 Q557.712,334.71 558.576,336.654 Q559.44,338.598 559.44,341.406 z" fill="#000000"/>
  </g>
</svg>
