<?xml version="1.0" encoding="UTF-8"?>
<!DOCTYPE svg PUBLIC "-//W3C//DTD SVG 1.1//EN" "http://www.w3.org/Graphics/SVG/1.1/DTD/svg11.dtd">
<svg version="1.1" xmlns="http://www.w3.org/2000/svg" xmlns:xlink="http://www.w3.org/1999/xlink" x="0" y="0" width="800" height="400" viewBox="0, 0, 800, 400">
  <defs>
    <linearGradient id="Gradient_1" gradientUnits="userSpaceOnUse" x1="-59" y1="172" x2="890.002" y2="173">
      <stop offset="0.016" stop-color="#1E90FF"/>
      <stop offset="1" stop-color="#FFA500"/>
    </linearGradient>
    <clipPath id="Clip_1">
      <path d="M101.151,-263.059 L611,-263.059 L611,63 L101.151,63 z M600,-252.059 L112.151,-252.059 L174.19,52 L174.19,48.853 L600,48.853 L600,-252.059 z"/>
    </clipPath>
    <filter id="Shadow_2">
      <feGaussianBlur in="SourceAlpha" stdDeviation="5"/>
      <feOffset dx="0" dy="0" result="offsetblur"/>
      <feFlood flood-color="#000000"/>
      <feComposite in2="offsetblur" operator="in"/>
    </filter>
    <clipPath id="Clip_3">
      <path d="M-211,-263.059 L-52.697,-263.059 L-52.697,58.94 L-211,58.94 z M-125.736,-252.059 L-125.736,-251.138 L-200,-251.138 L-200,47.94 L-63.697,47.94 L-125.736,-252.059 z"/>
    </clipPath>
    <filter id="Shadow_4">
      <feGaussianBlur in="SourceAlpha" stdDeviation="5"/>
      <feOffset dx="0" dy="0" result="offsetblur"/>
      <feFlood flood-color="#000000"/>
      <feComposite in2="offsetblur" operator="in"/>
    </filter>
    <clipPath id="Clip_5">
      <path d="M452.697,-263.059 L611,-263.059 L611,58.94 L452.697,58.94 z M600,-252.059 L463.697,-252.059 L525.736,47.94 L525.736,47.02 L600,47.02 L600,-252.059 z"/>
    </clipPath>
    <filter id="Shadow_6">
      <feGaussianBlur in="SourceAlpha" stdDeviation="5"/>
      <feOffset dx="0" dy="0" result="offsetblur"/>
      <feFlood flood-color="#000000"/>
      <feComposite in2="offsetblur" operator="in"/>
    </filter>
  </defs>
  <g id="Ebene_3" display="none">
    <path d="M0,-200 L800,-200 L800,400 L0,400 L0,-200 z" fill="url(#Gradient_1)"/>
  </g>
  <g id="Ebene_4" display="none">
    <path d="M69.494,56.516 L70.452,56.821 L72.383,57.392 L74.296,58.009 L76.214,58.628 L78.13,59.272 L80.038,59.966 L81.948,60.683 L83.851,61.451 L85.764,62.225 L87.67,63.05 L89.57,63.92 L91.474,64.81 L94.365,66.148 L98.207,68.035 L102.042,70.006 L105.923,71.947 L109.848,73.854 L113.798,75.74 L117.779,77.567 L120.807,78.871 L122.869,79.663 L124.935,80.416 L127.016,81.128 L129.113,81.795 L131.227,82.411 L132.317,82.704 L132.317,82.704 C132.331,82.706 132.345,82.709 132.358,82.711 L132.358,82.711 L135.926,83.65 L143.162,85.373 L150.442,86.983 L157.769,88.436 L165.143,89.733 L172.559,90.879 L179.993,91.938 L187.441,92.919 L194.928,93.75 L202.426,94.515 L209.93,95.217 L217.461,95.807 L225.002,96.331 L232.546,96.804 L240.095,97.216 L247.662,97.549 L258.999,97.975 L274.128,98.394 L289.262,98.665 L304.377,98.847 L319.475,98.942 L334.527,99.026 L349.546,99.087 L364.503,99.193 L371.947,99.274 L371.942,99.274 L415.164,99.601 L480.152,99.635 L523.612,99.263 L567.11,98.735 L610.753,97.771 L655.272,94.447 L700.555,89.037 L723.494,85.516 L723.494,85.516 C723.5,85.516 723.507,85.509 723.511,85.5 C723.514,85.491 723.512,85.484 723.506,85.484 C723.506,85.484 723.506,85.484 723.506,85.484 L703.251,81.943 L662.152,76.38 L620.293,72.763 L577.561,71.379 L534.685,70.317 L491.771,69.309 L427.196,68.23 L384.039,67.726 L384.039,67.726 C384.037,67.726 384.035,67.726 384.034,67.726 L384.034,67.726 L376.52,67.681 L361.483,67.649 L346.417,67.673 L331.309,67.76 L316.187,67.836 L301.038,67.915 L285.882,67.939 L270.708,67.905 L259.321,67.818 L251.742,67.713 L244.153,67.6 L236.565,67.455 L228.985,67.259 L221.407,67.019 L213.816,66.775 L206.234,66.469 L198.66,66.097 L191.066,65.735 L183.481,65.303 L175.902,64.804 L168.306,64.291 L160.69,63.764 L153.058,63.215 L145.415,62.594 L141.555,62.289 L141.596,62.296 L140.571,62.212 L138.46,61.994 L136.343,61.725 L134.218,61.409 L132.085,61.049 L129.955,60.655 L126.707,60.06 L122.335,59.183 L117.942,58.235 L113.528,57.251 L109.067,56.317 L104.547,55.505 L100.017,54.773 L96.611,54.298 L94.308,54.07 L91.992,53.905 L89.673,53.786 L87.35,53.718 L85.005,53.753 L82.655,53.857 L80.289,54.067 L77.918,54.365 L75.534,54.784 L73.128,55.359 L70.723,56.052 L69.506,56.484 C69.506,56.484 69.506,56.484 69.506,56.484 C69.5,56.485 69.492,56.492 69.489,56.501 C69.486,56.509 69.488,56.516 69.494,56.516 L69.494,56.516" fill="#000000"/>
    <path d="M749.506,117.484 L743.152,115.137 L729.904,111.867 L716.456,109.166 L702.726,107.268 L688.85,105.827 L674.867,104.745 L660.774,104.028 L646.631,103.516 L632.422,103.243 L618.18,103.122 L596.767,103.19 L568.14,103.614 L539.466,104.258 L510.767,105.002 L489.237,105.578 L474.889,105.924 L460.538,106.248 L446.163,106.591 L431.791,106.877 L417.407,107.139 L403.021,107.338 L388.63,107.47 L374.234,107.531 L359.832,107.506 L345.422,107.39 L331.001,107.188 L320.195,106.946 L312.983,106.77 L305.76,106.565 L298.536,106.322 L294.932,106.186 L294.941,106.187 L294.846,106.183 L294.628,106.174 L294.233,106.158 L293.581,106.13 L292.792,106.099 L291.87,106.062 L290.819,106.02 L289.648,105.972 L288.36,105.919 L286.957,105.861 L285.448,105.798 L283.837,105.73 L282.126,105.657 L280.322,105.58 L278.43,105.499 L276.451,105.414 L274.39,105.331 L272.255,105.245 L270.051,105.155 L267.772,105.082 L265.418,105.036 L263.002,105.001 L260.529,104.983 L258.005,104.963 L255.44,104.942 L251.501,104.956 L246.136,104.991 L240.658,105.086 L235.118,105.207 L229.537,105.394 L223.984,105.573 L218.46,105.835 L213.037,106.099 L209.062,106.287 L206.461,106.42 L203.894,106.579 L201.381,106.731 L198.927,106.877 L196.536,107.017 L194.204,107.174 L191.944,107.322 L189.761,107.466 L187.657,107.612 L185.642,107.748 L183.717,107.879 L181.887,108.005 L180.162,108.117 L178.542,108.225 L177.035,108.32 L175.646,108.401 L174.378,108.472 L173.24,108.525 L172.235,108.563 L171.368,108.584 L170.646,108.585 L170.201,108.574 L169.952,108.56 L169.742,108.54 L169.575,108.507 L169.509,108.485 L169.509,108.485 C169.504,108.482 169.496,108.487 169.491,108.496 C169.487,108.504 169.487,108.513 169.491,108.515 L169.551,108.551 L169.691,108.639 L169.861,108.744 L170.064,108.858 L170.43,109.046 L171.029,109.325 L171.751,109.639 L172.592,109.983 L173.549,110.355 L174.616,110.757 L175.793,111.181 L177.072,111.629 L178.449,112.102 L179.924,112.588 L181.488,113.098 L183.141,113.622 L184.878,114.158 L186.691,114.712 L188.583,115.27 L190.546,115.84 L192.573,116.424 L194.67,116.996 L196.824,117.579 L199.03,118.172 L201.283,118.775 L203.593,119.354 L207.138,120.216 L211.975,121.384 L216.914,122.549 L221.952,123.627 L227.015,124.704 L232.1,125.701 L237.153,126.654 L242.151,127.523 L245.832,128.144 L248.255,128.519 L250.636,128.886 L252.975,129.246 L255.271,129.578 L257.517,129.89 L259.717,130.164 L261.863,130.409 L263.939,130.646 L265.942,130.873 L267.87,131.086 L269.718,131.288 L271.479,131.48 L273.148,131.661 L274.722,131.831 L276.197,131.99 L277.564,132.137 L278.825,132.272 L279.972,132.395 L280.999,132.504 L281.905,132.599 L282.686,132.68 L283.336,132.744 L283.736,132.783 L283.96,132.804 L284.059,132.813 L284.059,132.813 C284.062,132.814 284.065,132.814 284.068,132.814 L284.068,132.814 L287.639,133.146 L294.767,133.779 L301.897,134.372 L309.04,134.917 L319.77,135.619 L334.069,136.431 L348.385,137.067 L362.714,137.552 L377.055,137.897 L391.406,138.107 L405.765,138.198 L420.132,138.183 L434.514,138.043 L448.896,137.829 L463.304,137.486 L477.719,137.07 L499.335,136.371 L528.17,135.266 L557.033,134.028 L585.941,132.687 L607.679,131.599 L622.201,130.823 L636.754,130.009 L651.371,129.089 L666.035,128.115 L680.807,126.947 L695.681,125.609 L710.697,124.022 L725.992,121.859 L741.481,119.373 L749.494,117.516 C749.5,117.516 749.507,117.509 749.51,117.5 C749.514,117.492 749.512,117.484 749.506,117.484 L749.506,117.484" fill="#000000"/>
    <path d="M84.494,45.516 L92.114,48.386 L108.215,51.835 L133.022,55.234 L158.257,57.488 L175.265,58.498 L192.374,59.298 L205.232,59.851 L213.805,60.232 L222.394,60.61 L230.99,61.001 L239.579,61.438 L248.181,61.875 L256.781,62.36 L265.375,62.902 L273.979,63.465 L282.579,64.09 L291.169,64.784 L299.767,65.526 L308.358,66.334 L316.946,67.223 L325.525,68.19 L334.108,69.229 L342.689,70.345 L351.28,71.522 L355.559,72.137 L355.54,72.135 L356.525,72.28 L358.422,72.564 L360.227,72.84 L361.948,73.11 L363.587,73.37 L365.149,73.621 L366.635,73.866 L368.045,74.105 L369.386,74.338 L370.66,74.565 L371.869,74.787 L373.014,75.003 L374.102,75.215 L375.134,75.421 L376.109,75.622 L377.034,75.819 L377.914,76.011 L378.747,76.199 L379.539,76.383 L380.294,76.563 L381.369,76.83 L382.694,77.171 L383.918,77.498 L385.075,77.82 L386.744,78.297 L388.958,78.933 L390.728,79.42 L392.014,79.755 L393.381,80.09 L394.855,80.427 L396.054,80.685 L396.9,80.858 L397.773,81.03 L398.689,81.203 L399.644,81.377 L400.646,81.553 L401.697,81.73 L402.8,81.909 L403.955,82.09 L405.169,82.274 L406.44,82.459 L407.777,82.643 L409.18,82.827 L410.652,83.015 L412.194,83.205 L413.811,83.399 L415.505,83.596 L417.279,83.796 L419.136,84 L421.079,84.208 L422.089,84.314 L422.089,84.314 C422.103,84.316 422.118,84.318 422.133,84.32 L422.133,84.32 L425.045,84.605 L430.987,85.084 L436.965,85.426 L442.942,85.638 L448.906,85.759 L454.855,85.806 L463.739,85.776 L475.574,85.567 L484.409,85.414 L490.27,85.323 L496.123,85.268 L501.957,85.272 L507.783,85.337 L513.665,85.309 L516.579,85.328 L516.542,85.325 L518.991,85.365 L523.866,85.406 L528.726,85.456 L533.613,85.462 L540.967,85.438 L550.817,85.295 L558.268,85.032 L563.255,84.807 L568.284,84.455 L573.332,84.033 L578.416,83.491 L583.534,82.824 L588.69,82.018 L593.886,81.049 L596.494,80.516 L596.494,80.516 C596.5,80.516 596.507,80.509 596.511,80.5 C596.514,80.491 596.512,80.484 596.506,80.484 L594.324,79.924 L589.993,78.744 L585.682,77.536 L581.386,76.299 L577.1,75.038 L572.813,73.77 L568.534,72.466 L564.23,71.205 L557.758,69.275 L549.025,66.81 L542.388,65.063 L537.906,63.969 L533.354,62.983 L528.764,62.073 L526.458,61.675 L526.458,61.675 C526.446,61.674 526.433,61.673 526.421,61.672 L526.421,61.672 L523.541,61.207 L517.823,60.378 L512.035,59.839 L506.243,59.403 L500.462,59.036 L494.68,58.727 L486.044,58.351 L474.58,57.858 L465.998,57.475 L460.311,57.157 L454.647,56.768 L449.008,56.294 L443.385,55.736 L437.741,55.071 L434.867,54.68 L434.911,54.686 L433.942,54.547 L432.063,54.274 L430.27,54.008 L428.561,53.75 L426.934,53.499 L425.386,53.254 L423.912,53.015 L422.514,52.783 L421.185,52.556 L419.923,52.336 L418.723,52.127 L417.588,51.922 L416.511,51.722 L415.491,51.527 L414.525,51.336 L413.609,51.148 L412.741,50.965 L411.92,50.785 L411.138,50.608 L410.407,50.437 L409.371,50.184 L408.081,49.851 L406.887,49.522 L405.773,49.199 L404.142,48.699 L401.956,48.002 L400.227,47.453 L398.989,47.07 L397.658,46.673 L396.227,46.268 L395.075,45.957 L394.256,45.744 L393.4,45.526 L392.503,45.305 L391.565,45.079 L390.579,44.848 L389.544,44.613 L388.461,44.373 L387.323,44.127 L386.128,43.876 L384.874,43.619 L383.559,43.357 L382.178,43.087 L380.727,42.811 L379.209,42.529 L377.616,42.239 L375.944,41.945 L374.194,41.646 L372.36,41.339 L370.446,41.025 L369.46,40.865 L369.46,40.865 C369.454,40.864 369.447,40.864 369.441,40.863 L369.441,40.863 L365.085,40.175 L356.398,38.895 L347.691,37.745 L338.976,36.704 L330.248,35.769 L321.52,34.924 L312.786,34.16 L304.051,33.485 L295.301,32.909 L286.552,32.403 L277.801,31.966 L269.033,31.634 L260.264,31.361 L251.492,31.149 L242.7,31.039 L233.911,30.977 L225.11,30.989 L216.288,31.083 L203.045,31.338 L185.34,31.946 L167.523,32.944 L140.505,35.388 L113.049,39.044 L94.307,42.601 L84.506,45.484 C84.5,45.484 84.493,45.491 84.489,45.5 C84.486,45.509 84.488,45.516 84.494,45.516 L84.494,45.516" fill="#000000"/>
  </g>
  <g id="Ebene_5">
    <path d="M174.5,320 L615.5,320 L615.5,323 L174.5,323 L174.5,320 z" fill="#1D90FF"/>
    <path d="M174.5,326 L615.5,326 L615.5,329 L174.5,329 L174.5,326 z" fill="#FFA500"/>
  </g>
  <g id="overlay">
    <g display="none">
      <path d="M600,-252.059 L600,48.853 L174.19,48.853 L174.19,52 L112.151,-252.059 L600,-252.059 z" clip-path="url(#Clip_1)" filter="url(#Shadow_2)" fill="rgba(0,0,0,0.75)"/>
      <path d="M174.19,52 L112.151,-252.059 L600,-252.059 L600,48.853 L174.19,48.853 L174.19,52 z" fill="#252522"/>
    </g>
    <g display="none">
      <path d="M-125.736,-252.059 L-63.697,47.94 L-200,47.94 L-200,-251.138 L-125.736,-251.138 L-125.736,-252.059 z" clip-path="url(#Clip_3)" filter="url(#Shadow_4)" fill="rgba(0,0,0,0.75)"/>
      <path d="M-200,47.941 L-200,-251.138 L-125.736,-251.138 L-125.736,-252.059 L-63.697,47.941 L-200,47.941 z" fill="#252522"/>
    </g>
    <g display="none">
      <path d="M600,-252.059 L600,47.02 L525.736,47.02 L525.736,47.94 L463.697,-252.059 L600,-252.059 z" clip-path="url(#Clip_5)" filter="url(#Shadow_6)" fill="rgba(0,0,0,0.75)"/>
      <path d="M600,-252.059 L600,47.02 L525.736,47.02 L525.736,47.941 L463.697,-252.059 L600,-252.059 z" fill="#252522"/>
    </g>
    <text transform="matrix(1, 0, 0, 1, 400, 283.735)">
      <tspan x="-247.254" y="25.735" font-family="Palatino-Roman" font-size="144" fill="#000000">Projects</tspan>
    </text>
  </g>
  <g id="overlay_Kopieren"/>
</svg>
