<?xml version="1.0" encoding="UTF-8"?>
<!DOCTYPE svg PUBLIC "-//W3C//DTD SVG 1.1//EN" "http://www.w3.org/Graphics/SVG/1.1/DTD/svg11.dtd">
<svg version="1.1" xmlns="http://www.w3.org/2000/svg" xmlns:xlink="http://www.w3.org/1999/xlink" x="0" y="0" width="800" height="300" viewBox="0, 0, 800, 300">
  <defs>
    <clipPath id="Clip_1">
      <path d="M301.151,-13.059 L811,-13.059 L811,313 L301.151,313 z M800,-2.059 L312.151,-2.059 L374.19,302 L374.19,298.853 L800,298.853 L800,-2.059 z"/>
    </clipPath>
    <filter id="Shadow_2">
      <feGaussianBlur in="SourceAlpha" stdDeviation="5"/>
      <feOffset dx="0" dy="0" result="offsetblur"/>
      <feFlood flood-color="#000000"/>
      <feComposite in2="offsetblur" operator="in"/>
    </filter>
    <clipPath id="Clip_3">
      <path d="M-11,-13.059 L147.303,-13.059 L147.303,308.94 L-11,308.94 z M74.264,-2.059 L74.264,-1.138 L0,-1.138 L0,297.94 L136.303,297.94 L74.264,-2.059 z"/>
    </clipPath>
    <filter id="Shadow_4">
      <feGaussianBlur in="SourceAlpha" stdDeviation="5"/>
      <feOffset dx="0" dy="0" result="offsetblur"/>
      <feFlood flood-color="#000000"/>
      <feComposite in2="offsetblur" operator="in"/>
    </filter>
  </defs>
  <g id="Ebene_1" display="none">
    <path d="M350.711,4.064 L350.733,4.201 L350.793,4.54 L350.861,4.924 L350.937,5.345 L351.02,5.802 L351.11,6.296 L351.209,6.825 L351.315,7.389 L351.428,7.986 L351.548,8.614 L351.742,9.609 L352.023,11.036 L352.335,12.568 L352.669,14.191 L353.029,15.89 L353.409,17.656 L353.813,19.475 L354.448,22.272 L355.355,26.075 L356.314,29.901 L357.07,32.741 L357.585,34.609 L358.099,36.412 L358.626,38.161 L359.157,39.854 L359.693,41.484 L360.244,43.051 L360.686,44.225 L361,45.019 L361.306,45.759 L361.625,46.497 L361.962,47.232 L362.325,47.974 L362.72,48.727 L363.164,49.505 L363.675,50.312 L364.283,51.162 L365.024,52.055 L365.949,52.967 L367.112,53.829 L368.53,54.482 L369.683,54.695 L369.683,54.695 C369.884,54.706 370.083,54.703 370.278,54.684 L370.278,54.684 L370.486,54.677 L371.514,54.482 L372.625,54.049 L373.609,53.458 L374.487,52.754 L375.279,51.97 L376.006,51.121 L376.682,50.216 L377.316,49.252 L377.918,48.244 L378.496,47.189 L379.056,46.088 L379.602,44.943 L380.135,43.753 L380.648,42.513 L381.154,41.229 L381.652,39.904 L382.142,38.543 L382.622,37.138 L383.092,35.693 L383.545,34.203 L383.976,32.666 L384.591,30.315 L385.382,27.066 L386.128,23.687 L386.833,20.229 L387.477,16.697 L388.079,13.131 L388.629,9.543 L389.126,5.954 L389.578,2.396 L389.973,-1.117 L390.337,-4.545 L390.565,-7.073 L390.708,-8.721 L390.842,-10.326 L390.966,-11.895 L391.073,-13.432 L391.172,-14.926 L391.261,-16.375 L391.338,-17.78 L391.408,-19.132 L391.466,-20.432 L391.515,-21.679 L391.557,-22.864 L391.587,-23.992 L391.611,-25.056 L391.627,-26.055 L391.635,-26.989 L391.636,-27.853 L391.629,-28.653 L391.617,-29.389 L391.598,-30.068 L391.588,-30.437 L391.588,-30.437 C391.719,-33.357 390.27,-36.471 388.353,-37.392 C386.435,-38.314 384.775,-36.694 384.644,-33.775 C384.644,-33.775 384.644,-33.775 384.644,-33.775 L384.614,-33.682 L384.531,-33.315 L384.426,-32.845 L384.298,-32.286 L384.151,-31.643 L383.982,-30.928 L383.794,-30.142 L383.588,-29.29 L383.362,-28.377 L383.123,-27.402 L382.867,-26.374 L382.595,-25.292 L382.311,-24.159 L382.012,-22.982 L381.701,-21.757 L381.379,-20.493 L381.044,-19.191 L380.704,-17.847 L380.354,-16.471 L379.993,-15.074 L379.431,-12.93 L378.675,-9.959 L377.881,-6.925 L377.08,-3.83 L376.263,-0.706 L375.443,2.434 L374.624,5.564 L373.798,8.653 L372.991,11.696 L372.186,14.651 L371.393,17.524 L370.799,19.6 L370.417,20.925 L370.049,22.217 L369.693,23.471 L369.343,24.676 L368.998,25.829 L368.657,26.917 L368.32,27.941 L367.989,28.895 L367.674,29.783 L367.371,30.591 L367.081,31.314 L366.809,31.95 L366.56,32.49 L366.344,32.93 L366.171,33.277 L366.051,33.521 L365.997,33.669 L366.033,33.727 L366.177,33.725 L366.452,33.7 L366.649,33.728 L366.443,33.761 L367.038,33.75 L368.053,33.956 L369.178,34.515 L370.029,35.184 L370.624,35.805 L371.017,36.312 L371.258,36.685 L371.387,36.927 L371.432,37.053 L371.414,37.073 L371.348,37.002 L371.243,36.849 L371.107,36.624 L370.945,36.332 L370.78,36.025 L370.481,35.43 L370.012,34.43 L369.494,33.279 L368.943,32 L368.364,30.611 L367.756,29.134 L367.138,27.604 L366.185,25.18 L364.881,21.8 L363.582,18.362 L362.628,15.821 L362.013,14.17 L361.416,12.568 L360.844,11.022 L360.298,9.548 L359.786,8.156 L359.307,6.856 L358.975,5.95 L358.768,5.385 L358.572,4.851 L358.389,4.349 L358.218,3.882 L358.061,3.452 L357.917,3.06 L357.79,2.71 L357.677,2.404 L357.58,2.136 L357.533,2.003 C357.533,2.003 357.533,2.003 357.533,2.003 C356.709,-1.223 354.514,-3.376 352.63,-2.807 C350.747,-2.238 349.887,0.838 350.711,4.064 L350.711,4.064" fill="#252522"/>
    <path d="M405.061,-28.311 L404.859,-27.103 L404.41,-24.978 L403.898,-22.967 L403.335,-20.954 L402.703,-18.946 L402.031,-16.914 L401.303,-14.868 L400.54,-12.794 L399.733,-10.699 L398.898,-8.57 L397.614,-5.262 L395.836,-0.782 L394.091,3.867 L392.515,8.827 L391.396,12.702 L390.746,15.436 L390.167,18.2 L389.654,21.026 L389.225,23.917 L388.887,26.871 L388.65,29.882 L388.521,32.944 L388.513,36.055 L388.637,39.203 L388.909,42.382 L389.34,45.572 L389.946,48.756 L390.516,51.184 L390.964,52.802 L391.212,53.631 L391.212,53.631 C391.726,56.691 393.644,59.089 395.496,58.988 C397.348,58.887 398.433,56.324 397.919,53.264 C397.919,53.264 397.919,53.264 397.919,53.264 L397.947,52.779 L398.004,51.777 L398.112,50.291 L398.324,48.29 L398.6,46.328 L398.942,44.388 L399.342,42.445 L399.805,40.493 L400.323,38.517 L400.895,36.513 L401.513,34.473 L402.17,32.388 L402.859,30.253 L403.582,28.071 L404.319,25.87 L405.404,22.359 L406.92,17.49 L408.327,12.314 L409.636,6.957 L410.551,2.868 L411.098,0.052 L411.587,-2.812 L412.02,-5.713 L412.371,-8.659 L412.646,-11.64 L412.814,-14.667 L412.888,-17.714 L412.834,-20.791 L412.65,-23.782 L412.503,-25.144 C412.503,-25.144 412.503,-25.144 412.503,-25.144 C412.57,-28.301 410.959,-31.568 408.904,-32.443 C406.849,-33.317 405.128,-31.467 405.061,-28.311 L405.061,-28.311" fill="#252522"/>
    <path d="M446.002,-29.78 L444.851,-29.476 L442.616,-28.821 L440.501,-28.119 L438.515,-27.381 L436.651,-26.609 L434.904,-25.809 L433.272,-24.975 L431.747,-24.113 L430.331,-23.213 L429.012,-22.284 L427.789,-21.326 L426.655,-20.326 L425.614,-19.274 L424.654,-18.175 L423.775,-17.019 L422.973,-15.796 L422.249,-14.489 L421.614,-13.084 L421.068,-11.568 L420.621,-9.934 L420.284,-8.178 L420.073,-6.308 L420.006,-4.341 L420.084,-2.317 L420.303,-0.278 L420.654,1.733 L421.117,3.675 L421.677,5.523 L422.308,7.263 L422.991,8.894 L423.71,10.415 L424.456,11.84 L425.227,13.17 L426.01,14.42 L427.145,16.092 L428.713,18.182 L430.345,20.138 L431.957,21.931 L433.537,23.569 L435.069,25.052 L436.526,26.376 L437.561,27.279 L438.203,27.835 L438.804,28.357 L439.361,28.845 L439.871,29.295 L440.327,29.695 L440.723,30.046 L441.044,30.338 L441.279,30.559 L441.411,30.688 L441.413,30.68 L441.252,30.465 L440.884,29.916 L440.268,28.792 L439.443,26.709 L438.746,23.4 L438.697,20.451 L438.884,19.05 L438.815,19.54 L438.846,19.402 L438.877,19.285 L438.775,19.492 L438.528,19.922 L438.141,20.503 L437.619,21.173 L436.975,21.897 L436.228,22.663 L435.388,23.455 L434.464,24.25 L433.468,25.047 L432.414,25.85 L431.307,26.635 L430.154,27.398 L428.966,28.132 L427.758,28.862 L426.532,29.557 L425.296,30.213 L424.058,30.828 L422.831,31.415 L421.616,31.952 L420.428,32.447 L419.271,32.889 L418.156,33.277 L417.09,33.61 L416.083,33.881 L415.148,34.092 L414.293,34.239 L413.536,34.325 L413.068,34.357 L412.814,34.37 L412.568,34.368 L412.364,34.363 L412.325,34.381 L412.325,34.381 C410.405,33.507 408.768,35.176 408.668,38.11 C408.568,41.044 410.043,44.132 411.962,45.006 C411.962,45.006 411.962,45.006 411.962,45.006 L412.267,45.181 L412.789,45.464 L413.318,45.714 L413.884,45.946 L414.729,46.243 L415.867,46.566 L417.06,46.822 L418.309,47.018 L419.608,47.154 L420.957,47.234 L422.348,47.257 L423.775,47.226 L425.234,47.142 L426.715,46.999 L428.217,46.809 L429.726,46.554 L431.241,46.25 L432.755,45.899 L434.263,45.502 L435.748,45.032 L437.214,44.515 L438.655,43.95 L440.065,43.338 L441.432,42.657 L442.757,41.916 L444.037,41.115 L445.266,40.239 L446.438,39.275 L447.559,38.212 L448.627,37.021 L449.63,35.645 L450.562,34.014 L451.393,32.03 L451.975,30.003 L452.086,29.54 L452.086,29.54 C452.17,29.089 452.233,28.621 452.272,28.139 L452.272,28.139 L452.245,24.935 L451.49,21.079 L450.481,18.403 L449.56,16.639 L448.773,15.406 L448.085,14.462 L447.458,13.682 L446.866,12.995 L446.289,12.359 L445.715,11.752 L445.141,11.163 L444.557,10.583 L443.963,10.015 L443.361,9.446 L442.752,8.874 L442.14,8.299 L441.226,7.438 L439.99,6.288 L438.769,5.164 L437.587,4.067 L436.48,3.004 L435.485,1.988 L434.571,0.998 L433.969,0.291 L433.667,-0.075 L433.417,-0.385 L433.214,-0.624 L433.061,-0.789 L432.957,-0.865 L432.891,-0.853 L432.852,-0.754 L432.818,-0.579 L432.781,-0.354 L432.73,-0.119 L432.659,0.084 L432.573,0.213 L432.478,0.231 L432.399,0.12 L432.357,-0.128 L432.371,-0.507 L432.457,-1.009 L432.622,-1.621 L432.883,-2.327 L433.245,-3.111 L433.715,-3.961 L434.294,-4.867 L434.982,-5.834 L435.785,-6.849 L436.705,-7.9 L437.746,-8.984 L438.904,-10.113 L440.186,-11.272 L441.59,-12.469 L443.121,-13.698 L444.781,-14.961 L446.569,-16.262 L448.5,-17.61 L449.533,-18.307 C449.533,-18.307 449.533,-18.307 449.533,-18.307 C451.343,-19.138 452.02,-22.38 451.045,-25.548 C450.07,-28.716 447.812,-30.611 446.002,-29.78 L446.002,-29.78" fill="#252522"/>
    <path d="M339.329,78.449 L338.064,78.108 L335.535,77.469 L333.05,76.903 L330.622,76.41 L328.25,75.985 L325.932,75.628 L323.67,75.336 L321.462,75.109 L319.307,74.943 L317.206,74.843 L315.156,74.801 L313.158,74.817 L311.214,74.896 L309.321,75.032 L307.477,75.221 L305.682,75.463 L303.937,75.756 L302.242,76.104 L300.596,76.512 L298.999,76.968 L297.447,77.473 L295.943,78.025 L294.486,78.623 L293.073,79.266 L291.705,79.955 L290.381,80.689 L289.102,81.465 L287.868,82.291 L286.681,83.168 L285.536,84.087 L284.433,85.048 L283.374,86.049 L282.355,87.091 L281.378,88.174 L280.441,89.297 L279.546,90.46 L278.691,91.663 L277.876,92.907 L277.102,94.19 L276.369,95.52 L275.682,96.897 L275.036,98.314 L274.431,99.769 L273.867,101.265 L273.344,102.802 L272.861,104.382 L272.423,105.997 L272.025,107.656 L271.672,109.353 L271.368,111.093 L271.109,112.874 L270.896,114.693 L270.728,116.545 L270.608,118.431 L270.517,121.157 L270.558,124.926 L270.804,128.947 L271.262,133.03 L271.921,137.127 L272.762,141.198 L273.774,145.21 L274.697,148.327 L275.385,150.419 L276.054,152.302 L276.756,154.146 L277.489,155.953 L278.251,157.717 L279.045,159.432 L279.865,161.101 L280.709,162.724 L281.575,164.297 L282.462,165.822 L283.368,167.297 L284.298,168.716 L285.244,170.08 L286.206,171.394 L287.183,172.657 L288.175,173.867 L289.182,175.028 L290.2,176.126 L291.232,177.17 L292.275,178.161 L293.329,179.1 L294.393,179.985 L295.466,180.816 L296.548,181.59 L297.638,182.302 L298.735,182.958 L299.842,183.56 L300.952,184.106 L302.07,184.597 L303.193,185.031 L304.322,185.409 L305.456,185.729 L306.595,185.991 L307.735,186.186 L308.878,186.315 L310.024,186.385 L311.172,186.393 L312.321,186.34 L313.472,186.224 L314.624,186.046 L315.775,185.803 L316.927,185.495 L318.077,185.121 L319.226,184.681 L320.373,184.17 L321.514,183.579 L322.652,182.919 L323.785,182.188 L324.915,181.386 L326.039,180.511 L327.158,179.562 L328.266,178.53 L329.369,177.423 L330.463,176.239 L331.546,174.971 L332.621,173.624 L333.684,172.192 L334.735,170.679 L335.773,169.076 L336.302,168.22 L336.302,168.22 C338.191,165.733 338.044,159.731 335.972,154.813 C333.901,149.895 330.69,147.924 328.801,150.411 C328.801,150.411 328.801,150.411 328.801,150.411 L328.285,150.931 L327.228,151.968 L326.177,152.944 L325.134,153.853 L324.099,154.702 L323.07,155.486 L322.049,156.213 L321.036,156.876 L320.029,157.478 L319.033,158.029 L318.045,158.521 L317.065,158.954 L316.092,159.331 L315.13,159.651 L314.176,159.917 L313.235,160.142 L312.305,160.317 L311.384,160.441 L310.474,160.515 L309.575,160.541 L308.689,160.52 L307.814,160.454 L306.952,160.343 L306.103,160.189 L305.267,159.993 L304.447,159.757 L303.64,159.489 L302.851,159.192 L302.077,158.859 L301.318,158.492 L300.576,158.093 L299.85,157.662 L299.141,157.202 L298.453,156.715 L297.781,156.201 L297.129,155.664 L296.495,155.113 L295.882,154.545 L295.289,153.959 L294.717,153.356 L294.165,152.738 L293.634,152.108 L293.124,151.468 L292.636,150.829 L292.169,150.182 L291.724,149.529 L291.301,148.873 L290.9,148.215 L290.522,147.561 L290.162,146.915 L289.823,146.272 L289.506,145.634 L289.21,145.004 L288.934,144.381 L288.679,143.766 L288.437,143.165 L288.213,142.574 L288.005,141.989 L287.816,141.414 L287.694,141.021 L287.5,140.367 L287.207,139.278 L286.962,138.18 L286.761,137.058 L286.593,135.889 L286.455,134.644 L286.362,133.149 L286.34,131.938 L286.347,131.209 L286.375,130.457 L286.424,129.684 L286.497,128.888 L286.595,128.067 L286.713,127.223 L286.86,126.361 L287.039,125.479 L287.247,124.587 L287.49,123.68 L287.767,122.762 L288.08,121.835 L288.429,120.903 L288.817,119.968 L289.239,119.025 L289.7,118.075 L290.202,117.129 L290.746,116.188 L291.334,115.252 L291.965,114.327 L292.641,113.412 L293.362,112.511 L294.13,111.624 L294.943,110.755 L295.803,109.905 L296.712,109.074 L297.666,108.258 L298.667,107.458 L299.717,106.684 L300.817,105.936 L301.968,105.217 L303.17,104.527 L304.423,103.868 L305.727,103.242 L307.085,102.649 L308.494,102.092 L309.956,101.561 L311.47,101.064 L313.038,100.606 L314.66,100.188 L316.339,99.811 L318.073,99.474 L319.861,99.173 L321.705,98.917 L323.607,98.704 L325.565,98.532 L327.581,98.408 L329.655,98.327 L331.787,98.294 L333.979,98.307 L336.23,98.369 L338.54,98.476 L340.923,98.632 L342.158,98.734 C344.91,99.22 346.507,95.073 345.725,89.472 C344.944,83.87 342.08,78.935 339.329,78.449 L339.329,78.449" fill="#252522"/>
    <path d="M414.764,75.644 L413.619,75.624 L411.234,75.685 L408.827,75.872 L406.43,76.179 L404.05,76.601 L401.691,77.131 L399.354,77.764 L397.046,78.497 L394.77,79.323 L392.529,80.238 L390.33,81.239 L388.173,82.319 L386.064,83.473 L384.009,84.702 L382.009,85.997 L380.069,87.355 L379.099,88.074 L379.099,88.074 C379.082,88.088 379.065,88.103 379.048,88.117 L379.048,88.117 L378.319,88.678 L376.82,89.92 L375.35,91.246 L373.938,92.63 L372.584,94.068 L371.288,95.561 L370.049,97.106 L368.866,98.702 L367.743,100.349 L366.68,102.051 L365.675,103.8 L364.729,105.593 L363.841,107.432 L363.011,109.316 L362.24,111.244 L361.529,113.217 L360.877,115.236 L360.287,117.299 L359.759,119.411 L359.295,121.572 L358.897,123.788 L358.573,126.062 L358.319,128.393 L358.14,130.781 L358.038,133.229 L358.019,135.742 L358.088,138.318 L358.25,140.953 L358.511,143.649 L358.877,146.394 L359.353,149.177 L359.942,151.986 L360.644,154.796 L361.459,157.585 L362.385,160.327 L363.417,162.996 L364.539,165.564 L365.744,168.018 L367.019,170.339 L368.357,172.523 L369.747,174.559 L371.183,176.45 L372.66,178.199 L374.175,179.809 L375.724,181.284 L377.306,182.63 L378.922,183.847 L380.571,184.941 L382.255,185.919 L383.975,186.788 L385.73,187.546 L387.525,188.199 L389.36,188.747 L391.234,189.191 L393.152,189.525 L395.112,189.754 L396.634,189.858 L397.671,189.894 L398.694,189.9 L399.725,189.865 L400.77,189.803 L401.824,189.714 L402.891,189.598 L403.968,189.455 L405.058,189.284 L406.159,189.078 L407.271,188.844 L408.395,188.581 L409.531,188.29 L410.68,187.97 L411.84,187.621 L413.014,187.243 L413.62,187.038 L413.62,187.038 C413.645,187.029 413.671,187.021 413.696,187.012 L413.696,187.012 L414.406,186.752 L415.969,186.091 L417.534,185.296 L419.043,184.38 L420.496,183.358 L421.895,182.235 L423.239,181.013 L424.527,179.698 L425.761,178.29 L426.939,176.797 L428.058,175.214 L429.118,173.546 L430.123,171.8 L431.071,169.983 L431.962,168.097 L432.798,166.143 L433.577,164.131 L434.294,162.049 L434.954,159.909 L435.557,157.719 L436.102,155.479 L436.592,153.19 L437.023,150.861 L437.391,148.481 L437.7,146.066 L437.951,143.612 L438.144,141.127 L438.276,138.614 L438.345,136.066 L438.348,133.495 L438.289,130.9 L438.167,128.284 L437.981,125.654 L437.73,123.01 L437.411,120.355 L437.023,117.693 L436.557,115.027 L436.02,112.372 L435.409,109.724 L434.726,107.098 L433.968,104.5 L433.137,101.938 L432.233,99.428 L431.257,96.975 L430.212,94.594 L429.099,92.303 L427.922,90.11 L426.689,88.024 L425.404,86.055 L424.071,84.207 L422.696,82.488 L421.282,80.899 L419.833,79.453 L418.352,78.14 L416.84,76.961 L415.301,75.916 L413.734,75.007 L412.137,74.229 L410.515,73.581 L408.864,73.065 L407.581,72.755 L406.711,72.589 L405.858,72.463 L404.998,72.371 L404.131,72.312 L403.257,72.285 L402.375,72.291 L401.485,72.332 L401.017,72.364 L401.017,72.364 C398.392,72.34 397.063,76.788 398.047,82.299 C399.032,87.809 401.958,92.296 404.583,92.321 L404.943,92.361 L405.692,92.459 L406.424,92.579 L407.139,92.722 L407.838,92.887 L408.519,93.074 L409.184,93.28 L409.806,93.498 L410.716,93.862 L411.904,94.418 L413.024,95.037 L414.073,95.713 L415.053,96.44 L415.964,97.204 L416.806,98.002 L417.58,98.826 L418.29,99.671 L418.938,100.52 L419.527,101.379 L420.062,102.243 L420.547,103.111 L420.986,103.983 L421.385,104.862 L421.751,105.748 L422.087,106.644 L422.396,107.561 L422.679,108.507 L422.938,109.48 L423.173,110.49 L423.386,111.537 L423.574,112.622 L423.738,113.752 L423.877,114.916 L423.997,116.123 L424.088,117.369 L424.15,118.652 L424.18,119.966 L424.178,121.306 L424.141,122.672 L424.07,124.06 L423.967,125.463 L423.83,126.885 L423.656,128.313 L423.445,129.743 L423.194,131.176 L422.905,132.602 L422.582,134.03 L422.221,135.442 L421.818,136.839 L421.376,138.218 L420.894,139.569 L420.373,140.896 L419.815,142.203 L419.219,143.472 L418.581,144.705 L417.902,145.897 L417.183,147.043 L416.423,148.143 L415.625,149.199 L414.787,150.206 L413.91,151.156 L412.99,152.047 L412.029,152.874 L411.026,153.635 L409.981,154.327 L408.893,154.946 L407.766,155.503 L406.539,156.002 L405.819,156.248 L405.895,156.222 L405.377,156.386 L404.326,156.701 L403.289,156.991 L402.269,157.253 L401.265,157.489 L400.277,157.699 L399.305,157.884 L398.351,158.044 L397.413,158.187 L396.493,158.306 L395.589,158.401 L394.701,158.473 L393.833,158.522 L392.979,158.548 L392.145,158.567 L391.354,158.569 L390.188,158.533 L388.663,158.413 L387.209,158.22 L385.827,157.962 L384.518,157.64 L383.285,157.259 L382.125,156.826 L381.045,156.349 L380.043,155.835 L379.121,155.293 L378.28,154.737 L377.52,154.178 L376.842,153.621 L376.244,153.078 L375.723,152.557 L375.276,152.068 L374.897,151.617 L374.583,151.214 L374.32,150.853 L374.102,150.534 L373.917,150.246 L373.756,149.978 L373.606,149.71 L373.46,149.419 L373.316,149.085 L373.175,148.693 L373.036,148.221 L372.904,147.663 L372.782,147.013 L372.677,146.264 L372.595,145.424 L372.541,144.495 L372.521,143.48 L372.539,142.387 L372.599,141.226 L372.705,140.002 L372.854,138.72 L373.053,137.387 L373.304,136.016 L373.61,134.611 L373.971,133.181 L374.389,131.731 L374.865,130.267 L375.398,128.795 L375.99,127.32 L376.642,125.845 L377.351,124.378 L378.12,122.922 L378.946,121.472 L379.83,120.04 L380.774,118.63 L381.779,117.244 L382.844,115.889 L383.968,114.567 L385.153,113.281 L386.426,112.012 L387.127,111.355 L387.075,111.398 L387.869,110.674 L389.553,109.221 L391.302,107.815 L393.109,106.462 L394.968,105.163 L396.875,103.928 L398.827,102.762 L400.816,101.667 L402.839,100.651 L404.89,99.72 L406.964,98.874 L409.058,98.122 L411.164,97.468 L413.278,96.915 L415.397,96.467 L417.544,96.128 L418.665,95.999 C418.665,95.999 418.665,95.999 418.665,95.999 C421.315,95.87 422.59,91.209 421.513,85.588 C420.435,79.967 417.414,75.515 414.764,75.644 L414.764,75.644" fill="#252522"/>
    <path d="M106.08,323.506 L106.309,323.407 L106.795,323.196 L107.316,322.969 L107.87,322.727 L108.456,322.471 L109.073,322.201 L109.723,321.916 L110.403,321.618 L111.114,321.307 L111.854,320.982 L112.623,320.645 L113.421,320.295 L114.247,319.933 L115.101,319.559 L115.982,319.173 L116.889,318.777 L118.298,318.161 L120.264,317.304 L122.326,316.408 L124.478,315.474 L126.717,314.507 L129.037,313.507 L131.435,312.478 L133.905,311.422 L136.443,310.341 L139.046,309.239 L141.707,308.117 L144.422,306.978 L147.187,305.825 L149.997,304.66 L152.848,303.485 L155.735,302.304 L160.124,300.523 L166.059,298.149 L172.054,295.794 L178.076,293.474 L184.085,291.213 L188.56,289.568 L191.519,288.5 L194.457,287.457 L197.366,286.443 L200.242,285.46 L203.081,284.51 L205.877,283.595 L208.629,282.718 L211.328,281.881 L213.971,281.089 L216.555,280.341 L219.072,279.643 L221.52,278.995 L223.893,278.401 L226.187,277.863 L227.851,277.498 L228.932,277.273 L229.994,277.064 L231.031,276.87 L232.046,276.692 L233.036,276.531 L234.002,276.386 L234.942,276.258 L235.856,276.147 L236.744,276.053 L237.605,275.978 L238.439,275.92 L239.244,275.881 L240.02,275.861 L240.768,275.859 L241.485,275.877 L242.172,275.914 L242.828,275.971 L243.452,276.049 L244.044,276.146 L244.603,276.264 L245.129,276.403 L245.622,276.564 L246.079,276.745 L246.502,276.948 L246.89,277.173 L247.241,277.42 L247.556,277.688 L247.834,277.979 L248.075,278.293 L248.179,278.454 L248.173,278.445 L248.302,278.678 L248.498,279.155 L248.626,279.661 L248.695,280.201 L248.709,280.771 L248.674,281.371 L248.592,281.999 L248.47,282.655 L248.311,283.336 L248.119,284.044 L247.898,284.776 L247.652,285.531 L247.244,286.712 L246.655,288.349 L246.047,290.048 L245.458,291.792 L244.928,293.562 L244.595,294.899 L244.413,295.787 L244.273,296.659 L244.176,297.52 L244.129,298.368 L244.136,299.199 L244.202,300.012 L244.331,300.803 L244.528,301.572 L244.798,302.315 L244.964,302.681 L244.964,302.681 C244.965,302.683 244.966,302.686 244.967,302.688 L244.967,302.688 L245.297,303.345 L246.001,304.625 L246.759,305.854 L247.57,307.031 L248.432,308.157 L249.343,309.232 L250.302,310.257 L251.308,311.234 L252.358,312.162 L253.451,313.043 L254.586,313.877 L255.761,314.665 L256.975,315.408 L258.226,316.107 L259.512,316.762 L260.833,317.375 L262.186,317.945 L263.571,318.474 L264.985,318.962 L266.427,319.411 L267.896,319.821 L269.39,320.192 L270.907,320.526 L272.447,320.823 L274.008,321.084 L275.587,321.309 L277.185,321.5 L278.799,321.658 L280.427,321.782 L282.068,321.874 L283.721,321.934 L285.385,321.962 L287.897,321.948 L291.269,321.827 L294.657,321.596 L298.048,321.26 L301.43,320.826 L304.791,320.299 L308.12,319.684 L311.405,318.989 L314.635,318.217 L317.799,317.376 L320.126,316.701 L321.652,316.231 L323.152,315.747 L324.628,315.25 L326.079,314.74 L327.503,314.216 L328.901,313.68 L330.271,313.131 L331.613,312.57 L332.925,311.997 L334.207,311.413 L335.46,310.817 L336.093,310.507 L336.093,310.507 C336.1,310.503 336.108,310.499 336.116,310.495 L336.116,310.495 L336.222,310.442 L336.474,310.315 L336.759,310.17 L337.071,310.01 L337.413,309.835 L337.785,309.643 L338.184,309.436 L338.612,309.214 L339.069,308.977 L339.554,308.725 L340.065,308.458 L340.605,308.177 L341.17,307.882 L341.762,307.574 L342.38,307.251 L343.022,306.916 L344.032,306.389 L345.463,305.643 L346.985,304.85 L348.594,304.013 L350.287,303.134 L352.059,302.215 L353.905,301.26 L355.824,300.269 L357.809,299.246 L359.857,298.193 L361.963,297.114 L364.123,296.011 L366.332,294.886 L368.587,293.743 L370.883,292.583 L373.215,291.41 L376.775,289.63 L381.614,287.229 L386.525,284.817 L391.471,282.419 L396.42,280.054 L401.337,277.744 L404.984,276.057 L407.386,274.96 L409.764,273.888 L412.111,272.843 L414.425,271.824 L416.702,270.836 L418.933,269.885 L421.115,268.973 L423.243,268.101 L425.314,267.273 L427.324,266.492 L429.266,265.759 L431.138,265.078 L432.934,264.452 L434.653,263.881 L436.287,263.369 L437.452,263.026 L438.198,262.818 L438.924,262.625 L439.627,262.449 L440.305,262.289 L440.958,262.147 L441.585,262.022 L442.187,261.914 L442.761,261.825 L443.309,261.753 L443.828,261.7 L444.319,261.666 L444.783,261.651 L445.216,261.654 L445.619,261.677 L445.993,261.72 L446.336,261.782 L446.648,261.863 L446.928,261.964 L447.177,262.085 L447.393,262.225 L447.577,262.385 L447.729,262.563 L447.848,262.76 L447.892,262.858 L447.887,262.844 L448.056,263.29 L448.302,264.176 L448.439,265.071 L448.478,265.978 L448.43,266.896 L448.303,267.824 L448.107,268.762 L447.849,269.711 L447.539,270.67 L447.182,271.644 L446.786,272.635 L446.355,273.647 L445.654,275.22 L444.668,277.394 L443.676,279.665 L442.968,281.437 L442.534,282.643 L442.152,283.842 L441.825,285.043 L441.564,286.242 L441.378,287.438 L441.274,288.628 L441.262,289.812 L441.348,290.989 L441.541,292.158 L441.848,293.32 L442.278,294.474 L442.839,295.62 L443.351,296.475 L443.738,297.043 L443.946,297.326 L443.946,297.326 C443.947,297.327 443.948,297.328 443.949,297.329 L443.949,297.329 L444.392,297.911 L445.294,299.042 L446.215,300.13 L447.153,301.173 L448.107,302.172 L449.077,303.127 L450.064,304.04 L451.067,304.91 L452.086,305.738 L453.12,306.525 L454.169,307.271 L455.234,307.977 L456.313,308.643 L457.406,309.27 L458.514,309.859 L459.636,310.409 L460.771,310.922 L461.92,311.398 L463.083,311.838 L464.258,312.242 L465.446,312.61 L466.646,312.944 L467.859,313.243 L469.085,313.508 L470.322,313.739 L471.57,313.939 L472.831,314.106 L474.101,314.241 L475.383,314.346 L476.675,314.421 L477.978,314.465 L479.29,314.48 L481.274,314.449 L483.952,314.311 L486.668,314.066 L489.417,313.717 L492.198,313.27 L495.006,312.729 L497.843,312.099 L500.703,311.383 L503.586,310.587 L506.492,309.712 L509.417,308.766 L512.356,307.752 L515.31,306.676 L518.275,305.541 L521.25,304.353 L524.23,303.116 L527.216,301.835 L530.203,300.514 L534.676,298.472 L540.633,295.648 L546.564,292.744 L552.442,289.803 L558.248,286.861 L562.546,284.675 L565.379,283.236 L568.184,281.817 L570.96,280.421 L573.704,279.055 L576.414,277.723 L579.089,276.427 L581.725,275.174 L584.323,273.967 L586.879,272.811 L589.394,271.708 L591.862,270.664 L594.286,269.684 L596.661,268.77 L598.987,267.927 L601.263,267.159 L603.487,266.468 L605.657,265.861 L607.244,265.465 L608.282,265.229 L609.31,265.016 L610.323,264.827 L610.82,264.742 L610.8,264.745 L610.841,264.739 L610.938,264.729 L611.096,264.717 L611.306,264.702 L611.705,264.68 L612.368,264.647 L613.152,264.615 L614.029,264.584 L615.458,264.542 L616.937,264.511 L617.903,264.498 L618.821,264.494 L619.662,264.5 L620.398,264.517 L620.861,264.537 L621.12,264.555 L621.336,264.576 L621.502,264.6 L621.611,264.625 L621.652,264.646 L621.619,264.629 L621.588,264.588 L621.622,264.651 L621.663,264.785 L621.692,264.963 L621.711,265.194 L621.716,265.472 L621.71,265.794 L621.691,266.155 L621.662,266.553 L621.599,267.212 L621.487,268.183 L621.351,269.237 L621.2,270.351 L620.966,272.08 L620.751,273.808 L620.634,274.922 L620.549,275.975 L620.513,276.714 L620.504,277.178 L620.508,277.612 L620.528,278.015 L620.564,278.385 L620.619,278.72 L620.655,278.878 L620.655,278.878 C620.656,278.882 620.657,278.886 620.658,278.89 L620.658,278.89 L620.78,279.325 L621.08,280.182 L621.451,281.002 L621.888,281.782 L622.389,282.522 L622.953,283.223 L623.577,283.887 L624.259,284.514 L624.997,285.106 L625.789,285.662 L626.634,286.184 L627.53,286.671 L628.473,287.127 L629.463,287.55 L630.498,287.943 L631.574,288.305 L632.691,288.638 L633.847,288.942 L635.038,289.218 L636.264,289.468 L637.522,289.69 L638.81,289.888 L640.127,290.06 L641.471,290.209 L642.839,290.334 L644.229,290.436 L645.64,290.517 L647.069,290.577 L649.242,290.628 L652.187,290.63 L655.174,290.559 L658.183,290.422 L661.2,290.227 L664.207,289.979 L667.191,289.683 L670.135,289.344 L673.023,288.97 L675.838,288.568 L678.566,288.141 L681.191,287.696 L683.697,287.24 L685.489,286.893 L686.639,286.662 L687.749,286.43 L688.819,286.2 L689.846,285.972 L690.829,285.746 L691.765,285.524 L692.653,285.306 L693.491,285.092 L694.278,284.884 L694.654,284.782 L694.654,284.782 C695.918,284.448 700.008,280.957 703.789,276.984 C707.57,273.012 709.61,270.062 708.346,270.395 L707.994,270.485 L707.243,270.671 L706.438,270.862 L705.583,271.057 L704.679,271.257 L703.728,271.459 L702.733,271.663 L701.695,271.869 L700.617,272.075 L699.501,272.282 L697.759,272.59 L695.317,272.995 L692.758,273.387 L690.096,273.761 L687.345,274.112 L684.524,274.432 L681.648,274.717 L678.73,274.962 L675.788,275.16 L672.838,275.306 L669.896,275.393 L666.976,275.416 L664.092,275.372 L661.963,275.29 L660.565,275.21 L659.185,275.11 L657.826,274.989 L656.49,274.845 L655.178,274.679 L653.892,274.49 L652.635,274.276 L651.408,274.038 L650.214,273.773 L649.053,273.483 L647.93,273.166 L646.844,272.821 L645.798,272.448 L644.795,272.047 L643.835,271.615 L642.922,271.153 L642.057,270.66 L641.241,270.137 L640.476,269.581 L639.765,268.993 L639.111,268.371 L638.513,267.716 L637.976,267.025 L637.5,266.3 L637.088,265.539 L636.741,264.742 L636.459,263.903 L636.342,263.461 L636.345,263.473 L636.317,263.347 L636.272,263.05 L636.242,262.711 L636.228,262.335 L636.228,261.924 L636.241,261.484 L636.284,260.77 L636.378,259.735 L636.505,258.633 L636.739,256.9 L636.993,255.15 L637.159,254.015 L637.31,252.93 L637.437,251.923 L637.51,251.232 L637.546,250.804 L637.57,250.407 L637.581,250.043 L637.577,249.715 L637.555,249.423 L637.511,249.171 L637.445,248.97 L637.412,248.905 L637.412,248.905 C637.404,248.889 637.393,248.875 637.381,248.863 L637.381,248.863 L637.31,248.81 L637.193,248.762 L637.04,248.727 L636.847,248.697 L636.614,248.672 L636.341,248.65 L635.866,248.623 L635.125,248.597 L634.284,248.582 L633.369,248.575 L632.406,248.576 L630.937,248.59 L629.518,248.615 L628.645,248.636 L627.862,248.659 L627.198,248.684 L626.793,248.703 L626.571,248.715 L626.388,248.728 L626.242,248.743 L626.2,248.748 L626.2,248.748 C626.194,248.749 626.187,248.75 626.18,248.751 L626.18,248.751 L625.664,248.834 L624.628,249.018 L623.577,249.226 L622.507,249.459 L620.876,249.853 L618.656,250.454 L616.382,251.142 L614.053,251.912 L611.674,252.76 L609.246,253.679 L606.774,254.665 L604.257,255.714 L601.702,256.82 L599.109,257.979 L596.479,259.186 L593.817,260.436 L591.124,261.725 L588.402,263.049 L585.654,264.402 L582.883,265.78 L580.089,267.178 L577.275,268.593 L573.021,270.738 L567.298,273.613 L561.529,276.475 L555.731,279.288 L549.908,282.024 L545.533,284.006 L542.623,285.282 L539.717,286.518 L536.817,287.711 L533.924,288.855 L531.04,289.947 L528.168,290.983 L525.308,291.957 L522.463,292.867 L519.635,293.706 L516.823,294.474 L514.032,295.163 L511.263,295.77 L508.518,296.289 L505.801,296.716 L503.111,297.047 L500.453,297.278 L497.824,297.403 L495.875,297.425 L494.588,297.404 L493.311,297.355 L492.043,297.276 L490.785,297.168 L489.538,297.029 L488.301,296.858 L487.074,296.657 L485.858,296.423 L484.653,296.156 L483.46,295.856 L482.277,295.523 L481.107,295.156 L479.949,294.753 L478.803,294.315 L477.67,293.841 L476.55,293.33 L475.443,292.782 L474.35,292.195 L473.271,291.571 L472.206,290.908 L471.155,290.205 L470.119,289.462 L469.097,288.678 L468.091,287.853 L467.1,286.987 L466.125,286.078 L465.166,285.126 L464.223,284.131 L463.296,283.091 L462.387,282.007 L461.493,280.877 L461.051,280.293 L461.054,280.296 L460.854,280.022 L460.48,279.471 L459.987,278.642 L459.446,277.532 L459.034,276.421 L458.742,275.31 L458.56,274.2 L458.479,273.094 L458.491,271.992 L458.586,270.895 L458.755,269.805 L458.989,268.721 L459.28,267.643 L459.621,266.569 L460,265.511 L460.64,263.905 L461.596,261.717 L462.606,259.496 L463.352,257.823 L463.831,256.698 L464.278,255.576 L464.684,254.463 L465.038,253.363 L465.328,252.281 L465.547,251.22 L465.686,250.182 L465.736,249.169 L465.691,248.18 L465.541,247.217 L465.283,246.286 L465.113,245.839 L465.113,245.839 C465.111,245.834 465.11,245.829 465.108,245.825 L465.108,245.825 L465.041,245.685 L464.889,245.441 L464.7,245.225 L464.476,245.035 L464.218,244.872 L463.928,244.733 L463.605,244.618 L463.25,244.526 L462.864,244.457 L462.449,244.411 L462.003,244.386 L461.528,244.382 L461.026,244.398 L460.495,244.435 L459.936,244.492 L459.351,244.568 L458.74,244.663 L458.103,244.776 L457.441,244.908 L456.755,245.057 L456.044,245.224 L455.31,245.408 L454.552,245.608 L453.768,245.826 L452.554,246.182 L450.866,246.71 L449.097,247.296 L447.251,247.94 L445.332,248.638 L443.344,249.387 L441.294,250.184 L439.183,251.028 L437.017,251.915 L434.799,252.842 L432.533,253.807 L430.226,254.808 L427.877,255.843 L425.49,256.913 L423.072,258.011 L420.625,259.135 L416.916,260.863 L411.917,263.234 L406.89,265.657 L401.869,268.114 L396.889,270.58 L391.981,273.04 L388.367,274.869 L385.997,276.074 L383.665,277.265 L381.376,278.439 L379.133,279.593 L376.941,280.725 L374.803,281.833 L372.725,282.912 L370.711,283.962 L368.763,284.98 L366.887,285.963 L365.088,286.908 L363.369,287.812 L361.736,288.673 L360.192,289.487 L358.743,290.253 L357.72,290.793 L357.07,291.137 L356.446,291.467 L355.849,291.782 L355.278,292.084 L354.736,292.37 L354.221,292.641 L353.737,292.897 L353.281,293.136 L352.856,293.36 L352.463,293.566 L352.102,293.755 L351.773,293.926 L351.478,294.079 L351.219,294.212 L350.993,294.328 L350.884,294.383 L350.907,294.371 L350.364,294.643 L349.206,295.203 L348.003,295.76 L346.757,296.314 L345.472,296.862 L344.149,297.403 L342.789,297.937 L341.397,298.462 L339.973,298.977 L338.52,299.481 L337.04,299.973 L335.537,300.451 L333.237,301.143 L330.089,302.013 L326.868,302.818 L323.587,303.549 L320.257,304.202 L316.892,304.77 L313.503,305.246 L310.103,305.625 L306.705,305.9 L303.317,306.066 L300.792,306.115 L299.12,306.112 L297.457,306.078 L295.805,306.012 L294.167,305.915 L292.543,305.785 L290.936,305.62 L289.346,305.422 L287.776,305.188 L286.226,304.918 L284.698,304.611 L283.194,304.267 L281.715,303.885 L280.263,303.464 L278.839,303.004 L277.444,302.503 L276.081,301.96 L274.75,301.376 L273.454,300.75 L272.193,300.08 L270.969,299.367 L269.784,298.608 L268.638,297.804 L267.534,296.954 L266.474,296.057 L265.457,295.113 L264.487,294.12 L263.564,293.079 L262.69,291.988 L261.866,290.846 L261.094,289.653 L260.374,288.407 L260.032,287.761 L260.036,287.767 L259.876,287.435 L259.606,286.743 L259.407,286.031 L259.272,285.301 L259.197,284.553 L259.176,283.791 L259.206,283.015 L259.282,282.229 L259.398,281.433 L259.549,280.636 L259.834,279.422 L260.306,277.774 L260.848,276.11 L261.426,274.444 L262,272.794 L262.405,271.58 L262.654,270.781 L262.879,269.996 L263.076,269.23 L263.238,268.484 L263.359,267.763 L263.436,267.071 L263.461,266.409 L263.431,265.781 L263.34,265.191 L263.184,264.639 L262.961,264.134 L262.827,263.906 L262.827,263.906 C262.825,263.903 262.823,263.9 262.821,263.897 L262.821,263.897 L262.699,263.718 L262.43,263.387 L262.123,263.083 L261.778,262.804 L261.395,262.551 L260.976,262.322 L260.521,262.117 L260.031,261.936 L259.506,261.778 L258.947,261.643 L258.355,261.531 L257.729,261.441 L257.071,261.373 L256.382,261.326 L255.661,261.3 L254.911,261.295 L254.13,261.31 L253.319,261.345 L252.48,261.399 L251.613,261.473 L250.718,261.566 L249.796,261.677 L248.848,261.807 L247.874,261.954 L246.874,262.119 L245.85,262.301 L244.802,262.5 L243.73,262.715 L242.635,262.947 L241.516,263.195 L239.798,263.596 L237.436,264.182 L234.995,264.826 L232.48,265.525 L229.894,266.276 L227.244,267.077 L224.533,267.924 L221.766,268.816 L218.948,269.75 L216.081,270.725 L213.172,271.736 L210.226,272.782 L207.246,273.859 L204.239,274.964 L201.206,276.097 L196.624,277.839 L190.478,280.228 L184.322,282.675 L178.192,285.161 L172.126,287.663 L167.641,289.537 L164.69,290.782 L161.776,292.019 L158.903,293.246 L156.076,294.46 L153.3,295.659 L150.581,296.839 L147.921,297.999 L145.327,299.136 L142.801,300.247 L140.351,301.33 L137.979,302.382 L135.691,303.4 L133.492,304.381 L131.385,305.324 L129.376,306.225 L127.937,306.872 L127.01,307.289 L126.111,307.694 L125.239,308.087 L124.395,308.467 L123.58,308.835 L122.795,309.189 L122.04,309.53 L121.315,309.857 L120.622,310.17 L119.961,310.468 L119.332,310.751 L118.737,311.019 L118.175,311.271 L117.648,311.508 L117.155,311.728 L116.92,311.833 C115.588,312.419 112.081,315.507 109.088,318.731 C106.095,321.954 104.748,324.092 106.08,323.506 L106.08,323.506" fill="#252522"/>
    <path d="M507.046,64.158 L506.171,64.448 L504.442,65.048 L502.757,65.662 L501.126,66.283 L499.545,66.914 L498.013,67.552 L496.531,68.199 L495.096,68.852 L493.709,69.513 L492.369,70.182 L491.074,70.856 L489.824,71.537 L488.619,72.227 L487.459,72.922 L486.339,73.624 L485.262,74.331 L484.227,75.051 L483.233,75.777 L482.277,76.51 L481.361,77.248 L480.48,77.996 L479.638,78.75 L478.831,79.514 L478.059,80.288 L477.325,81.08 L476.624,81.884 L475.955,82.702 L475.319,83.533 L474.449,84.771 L473.392,86.484 L472.425,88.334 L471.576,90.308 L470.846,92.437 L470.245,94.76 L469.797,97.321 L469.525,100.137 L469.457,103.203 L469.62,106.477 L470.023,109.872 L470.652,113.262 L471.472,116.535 L472.433,119.613 L473.49,122.453 L474.606,125.051 L475.757,127.421 L476.933,129.591 L478.117,131.592 L479.309,133.454 L480.504,135.2 L481.705,136.849 L482.907,138.414 L484.111,139.907 L485.316,141.326 L486.519,142.685 L488.277,144.59 L490.613,146.998 L492.914,149.249 L494.59,150.803 L495.664,151.774 L496.683,152.686 L497.661,153.547 L498.586,154.365 L499.455,155.138 L500.257,155.86 L500.984,156.528 L501.625,157.134 L502.166,157.651 L502.588,158.074 L502.866,158.371 L502.959,158.483 L502.808,158.295 L502.321,157.585 L501.37,155.862 L499.935,152.238 L498.651,146.195 L498.553,141.394 L498.761,139.721 L498.705,140.09 L498.715,140.021 L498.747,139.881 L498.731,139.928 L498.658,140.115 L498.526,140.411 L498.334,140.787 L498.084,141.226 L497.778,141.711 L497.418,142.232 L497.008,142.784 L496.553,143.362 L496.052,143.954 L495.507,144.559 L494.922,145.168 L494.298,145.782 L493.638,146.398 L492.944,147.016 L491.831,147.965 L490.255,149.208 L488.593,150.414 L486.847,151.607 L485.029,152.771 L483.148,153.892 L481.218,154.964 L479.257,155.999 L477.275,156.992 L475.282,157.921 L473.288,158.782 L471.307,159.57 L469.355,160.299 L467.443,160.959 L465.581,161.532 L464.237,161.902 L463.368,162.128 L462.51,162.331 L461.673,162.511 L460.861,162.667 L460.074,162.802 L459.316,162.913 L458.587,162.999 L457.891,163.061 L457.231,163.101 L456.609,163.117 L456.027,163.11 L455.492,163.083 L455.006,163.037 L454.574,162.975 L454.206,162.905 L454.103,162.893 L454.103,162.893 C451.324,161.626 449.368,164.946 449.735,170.309 C450.101,175.673 452.652,181.048 455.431,182.315 C455.431,182.315 455.431,182.315 455.431,182.315 L455.86,182.545 L456.614,182.919 L457.378,183.247 L458.159,183.539 L458.96,183.797 L459.78,184.024 L460.622,184.223 L461.487,184.397 L462.373,184.543 L463.279,184.665 L464.209,184.764 L465.158,184.841 L466.128,184.892 L467.116,184.921 L468.123,184.93 L469.156,184.918 L470.728,184.849 L472.859,184.69 L475.037,184.455 L477.248,184.134 L479.483,183.722 L481.734,183.239 L483.991,182.685 L486.243,182.063 L488.475,181.356 L490.675,180.566 L492.839,179.711 L494.959,178.79 L497.019,177.796 L499.008,176.72 L500.907,175.588 L502.269,174.701 L503.159,174.069 L504.025,173.417 L504.867,172.744 L505.686,172.049 L506.479,171.331 L507.247,170.586 L507.99,169.809 L508.704,168.993 L509.391,168.132 L510.052,167.221 L510.685,166.252 L511.292,165.208 L511.869,164.073 L512.415,162.819 L512.922,161.414 L513.381,159.815 L513.718,158.278 L513.787,157.911 L513.787,157.911 C513.878,157.377 513.947,156.818 513.995,156.238 L513.995,156.238 L513.93,151.041 L512.558,144.154 L510.838,139.614 L509.415,136.903 L508.281,135.135 L507.315,133.821 L506.438,132.739 L505.597,131.776 L504.764,130.875 L503.923,130.003 L503.065,129.158 L502.185,128.313 L501.283,127.462 L500.36,126.602 L499.417,125.729 L498.457,124.843 L497.482,123.952 L496.513,123.065 L495.055,121.733 L493.103,119.956 L491.173,118.14 L489.769,116.753 L488.901,115.86 L488.076,114.984 L487.301,114.139 L486.584,113.324 L485.937,112.554 L485.365,111.84 L484.88,111.205 L484.488,110.672 L484.197,110.272 L484.001,110.038 L483.901,109.999 L483.881,110.168 L483.916,110.545 L483.968,111.088 L484,111.719 L483.984,112.326 L483.917,112.787 L483.82,113.016 L483.727,112.969 L483.676,112.645 L483.703,112.062 L483.838,111.264 L484.102,110.291 L484.509,109.177 L485.092,107.909 L485.635,106.9 L486.03,106.229 L486.465,105.542 L486.941,104.837 L487.459,104.116 L488.016,103.374 L488.615,102.62 L489.258,101.853 L489.943,101.076 L490.673,100.288 L491.447,99.492 L492.265,98.687 L493.128,97.873 L494.035,97.045 L494.988,96.21 L495.987,95.366 L497.033,94.516 L498.124,93.655 L499.263,92.787 L500.451,91.912 L501.687,91.028 L502.97,90.135 L504.304,89.236 L505.687,88.327 L507.12,87.412 L508.604,86.486 L510.138,85.552 L511.73,84.605 L512.555,84.122 C514.977,83.018 515.707,77.654 514.186,72.141 C512.664,66.628 509.468,63.054 507.046,64.158 L507.046,64.158" fill="#252522"/>
  </g>
  <g id="Ebene_2">
    <path d="M-100,-100 L400,-100 L400,400 L-100,400 L-100,-100 z" fill="#F1A315" display="none"/>
    <path d="M77.163,-2.059 L377.663,-2.059 L377.663,298.441 L77.163,298.441 L77.163,-2.059 z" fill="#FFA500"/>
  </g>
  <g id="eyeweiß">
    <path d="M227.413,255.379 C159.414,255.534 120.225,207.389 120.225,148.19 C120.225,88.992 168.215,41.002 227.413,41.002 C286.612,41.002 334.602,88.992 334.602,148.19 C334.602,207.389 286.612,255.244 227.413,255.379 z" fill="#EEEDE4"/>
  </g>
  <g id="pupil">
    <g>
      <path d="M227.913,206.437 C196.248,206.437 170.578,180.583 170.578,148.691 C170.578,116.798 196.248,90.944 227.913,90.944 C259.579,90.944 285.249,116.798 285.249,148.691 C285.249,180.583 259.579,206.437 227.913,206.437 z" fill="#1D90FF"/>
      <path d="M227.913,206.437 C196.248,206.437 170.578,180.583 170.578,148.691 C170.578,116.798 196.248,90.944 227.913,90.944 C259.579,90.944 285.249,116.798 285.249,148.691 C285.249,180.583 259.579,206.437 227.913,206.437 z" fill-opacity="0" stroke="#252522" stroke-width="4"/>
    </g>
    <path d="M227.413,177.942 C211.391,177.942 198.402,164.622 198.402,148.191 C198.402,131.759 211.391,118.439 227.413,118.439 C243.436,118.439 256.425,131.759 256.425,148.191 C256.425,164.622 243.436,177.942 227.413,177.942 z" fill="#252522"/>
  </g>
  <g id="basic_shapes">
    <path d="M91.104,182.887 z" fill="#252522"/>
    <path d="M377.663,154.491 z" fill="#252522"/>
    <path d="M366.82,57.791 C367.816,58.717 224.463,-26.727 91.724,50.892 C91.724,50.892 226.387,-72.723 366.82,57.791 z" fill="#252522"/>
    <path d="M84.908,155.111 C83.381,143.316 95.441,138.897 107.833,138.897 C120.225,138.897 122.703,37.284 226.174,37.284 C329.645,37.284 337.7,132.081 333.982,161.202 C333.982,161.202 328.4,41.936 227.413,44.1 C140.671,45.959 128.279,121.548 125.801,127.744 C123.323,133.94 119.605,148.81 110.311,146.951 C101.018,145.093 90.467,142.184 91.104,157.484 C91.724,172.354 120.305,154.05 123.323,168.637 C127.04,186.605 143.152,254.117 230.511,254.76 C314.775,255.379 340.798,158.724 332.124,131.462 C332.124,131.462 346.994,179.17 307.96,223.78 C268.926,268.391 218.12,273.967 175.368,249.183 C140.063,228.717 120.225,189.106 120.225,177.942 C120.225,166.778 105.355,164.908 99.778,168.637 C94.202,172.366 86.767,169.466 84.908,155.111 z" fill="#252522"/>
    <path d="M260.252,298.441 C260.252,298.441 305.481,286.978 327.167,257.858 L326.547,278.924 C326.547,278.924 353.809,263.813 351.951,263.813 C350.092,263.813 346.374,284.5 346.994,284.5 C347.613,284.5 370.538,268.391 370.538,268.391 L364.342,287.598 L377.663,269.63 L389.643,298.441 L260.252,298.441 z" fill="#252522"/>
    <path d="M127.66,182.887 C127.66,182.887 115.268,160.088 126.421,125.266 L114.648,143.234 C114.648,143.234 120.225,138.277 120.225,169.257 L127.66,182.887 z" fill="#252522"/>
    <path d="M343.276,125.266 C343.233,124.648 356.288,229.186 265.828,263.813 C265.828,263.813 351.951,248.564 343.276,125.266 z" fill="#252522"/>
    <path d="M377.663,41.002 C377.663,41.002 355.038,25.432 355.038,25.432 C355.038,25.432 369.152,25.918 369.152,25.918 C369.152,25.918 358.931,15.7 358.931,15.7 L372.068,16.187 L362.337,5.482 L374.014,7.429 L362.823,-2.059 L377.663,-2.059 L377.663,41.002 z" fill="#252522"/>
    <path d="M77.163,52.774 C77.163,52.774 88.006,28.61 107.833,18.077 L91.104,23.653 L97.92,9.403 L84.777,14.36 L96.061,-2.059 L64.185,-2.059 L77.163,52.774 z" fill="#252522"/>
    <path d="M114.649,182.887 C114.649,182.887 114.78,171.723 99.778,174.833 C99.778,174.833 114.649,166.778 114.649,182.887 z" fill="#252522"/>
    <path d="M77.163,182.887 C77.163,182.887 84.777,255.379 151.204,263.813 L91.104,255.379 L155.541,269.63 C155.541,269.63 91.724,263.813 91.724,263.813 C91.724,263.813 161.737,277.065 161.737,277.065 L91.104,274.586 L170.078,284.5 L91.104,281.402 L182.184,291.315 L94.822,289.457 L205.108,298.441 C205.108,298.441 77.163,298.441 77.163,298.441 C77.163,298.441 77.163,182.887 77.163,182.887 z" fill="#252522"/>
    <path d="M113.564,163.251 C113.564,163.251 120.07,161.192 119.14,153.992 C118.211,146.792 118.676,144.933 113.564,146.482 C113.564,146.482 118.521,143.384 118.521,143.074 C118.521,142.764 120.844,153.992 120.844,153.992 C120.844,153.992 116.662,163.419 120.844,165.07 C120.844,165.07 114.184,165.378 113.564,163.251 z" fill="#252522"/>
  </g>
  <g id="detail_shapes">
    <path d="M328.251,137.193 C327.968,136.859 335.058,150.226 330.11,165.085 C330.11,165.085 340.333,151.443 328.251,137.193 z" fill="#252522"/>
    <path d="M312.142,251.817 C312.714,251.426 273.728,283.416 202.165,268.855 C202.165,268.855 263.195,285.274 312.142,251.817 z" fill="#252522"/>
    <path d="M256.425,298.441 C256.425,298.441 284.673,293.949 312.148,269.785 C312.148,269.785 295.413,289.611 265.828,298.441 C265.828,298.441 256.425,298.441 256.425,298.441 z" fill="#252522"/>
    <path d="M99.778,135.644 C101.31,135.456 78.248,136.163 80.726,154.491 C80.726,154.491 77.009,138.432 99.778,135.644 z" fill="#252522"/>
    <path d="M227.211,180.254 C227.211,180.254 198.402,181.493 196.279,148.345 C196.279,148.345 196.589,176.049 227.211,180.254 z" fill="#252522"/>
    <path d="M305.017,60.984 C305.573,61.397 239.65,2.569 151.669,57.799 C151.669,57.799 227.723,3.528 305.017,60.984 z" fill="#252522"/>
    <path d="M111.086,129.448 C110.97,130.317 121.544,81.46 155.386,57.799 C155.386,57.799 118.211,76.009 111.086,129.448 z" fill="#252522"/>
    <path d="M141.755,257.858 C141.755,257.858 92.034,238.186 82.275,188.309 C82.275,188.309 103.651,240.354 141.755,257.858 z" fill="#252522"/>
    <path d="M298.511,31.863 C299.408,32.257 216.106,7.699 155.386,28.455 C155.386,28.455 225.09,-0.356 298.511,31.863 z" fill="#252522"/>
    <path d="M149.1,227.252 C149.1,227.252 141.755,231.279 141.755,231.279 C141.755,231.279 146.312,226.323 146.312,226.323 C146.312,226.323 139.806,229.111 139.806,229.111 L143.523,224.543 C143.523,224.543 137.637,227.252 137.947,227.252 C138.257,227.252 143.214,220.437 143.214,220.437 L149.1,227.252 z" fill="#252522"/>
  </g>
  <g id="shadows" opacity="0.503">
    <path d="M377.663,62.687 C377.663,62.687 359.672,34.186 322.21,19.316 L337.7,18.697 C337.7,18.697 325.928,11.881 325.928,11.881 C325.928,11.881 338.32,10.642 338.32,10.642 L326.547,5.066 L339.559,3.207 L329.026,-2.059 L377.663,-2.059 L377.663,62.687 z" fill="#252522"/>
    <path d="M331.504,37.284 L351.951,57.799 C351.951,57.799 329.026,52.774 329.026,52.774 C329.026,52.774 343.908,67.025 343.908,67.025 C343.908,67.025 322.21,57.799 322.21,57.799 L334.904,76.318 L315.395,65.785 C315.395,65.785 327.167,83.134 326.547,83.134 C325.928,83.134 310.438,69.503 310.438,69.503 C310.438,69.503 316.014,84.993 316.014,84.993 C316.014,84.993 290.611,41.002 224.316,41.002 C224.316,41.002 145.628,47.198 145.628,140.755 C145.628,140.755 153.683,143.853 153.683,143.853 C153.683,143.853 136.334,143.853 136.334,143.853 C136.334,143.853 156.78,148.81 156.78,148.81 C156.78,148.81 136.954,151.288 136.954,151.288 L156.161,154.491 L136.954,154.491 L156.161,159.343 L137.573,161.821 L154.922,164.3 L146.247,166.778 C146.247,166.778 161.535,232.983 227.211,234.222 C292.888,235.462 325.928,192.181 327.787,161.202 C327.787,161.202 332.743,234.933 243.523,255.379 C243.523,255.379 305.492,254.76 330.265,175.452 L334.602,158.724 C334.602,158.724 334.602,172.819 334.602,172.819 C334.602,172.819 338.32,154.491 338.32,154.491 L334.904,172.819 L340.798,154.491 C340.798,154.491 337.7,172.819 338.32,172.819 C338.939,172.819 343.908,154.491 343.908,154.491 C343.908,154.491 334.649,233.694 284.749,255.379 C284.749,255.379 294.948,246.085 294.329,246.085 C293.709,246.085 277.6,255.379 277.6,255.379 C277.6,255.379 288.133,245.466 288.133,245.466 L274.502,255.379 L284.749,245.466 C284.749,245.466 260.252,255.379 260.252,255.379 C260.252,255.379 217.5,257.858 217.5,257.858 C217.5,257.858 241.445,266.671 256.425,263.813 C256.425,263.813 228.033,272.247 192.097,263.813 C192.097,263.813 287.499,293.069 334.904,223.78 L334.904,242.368 L351.331,227.498 C351.331,227.498 349.472,246.705 349.472,246.705 C349.472,246.705 366.826,232.454 366.826,232.454 L366.826,250.422 L377.663,234.313 L377.663,298.441 L77.163,298.441 L77.163,-2.059 L224.935,-2.059 L309.199,-2.059 C309.199,-2.059 284.749,1.348 284.749,1.348 C284.749,1.348 312.917,2.587 312.297,2.587 C311.677,2.587 284.749,3.827 284.749,3.827 L309.819,10.023 L288.133,7.544 C288.133,7.544 314.775,24.273 314.775,24.273 C314.775,24.273 331.504,37.284 331.504,37.284 z" fill="#252522"/>
  </g>
  <g id="lights" opacity="0.502">
    <path d="M267.227,115.908 C252.659,88.727 216.2,93.67 230.458,130.732 C244.715,167.794 289.738,157.911 267.227,115.908 z" fill="#FFFFFF"/>
    <path d="M195.814,166.159 C191.843,157.848 184.553,167.696 191.477,172.819 C198.402,177.942 201.391,177.826 195.814,166.159 z" fill="#FFFFFF"/>
    <path d="M254.022,158.609 C251.66,154.003 239.881,158.878 248.446,163.68 C257.011,168.482 258.36,167.064 254.022,158.609 z" fill="#FFFFFF"/>
    <path d="M322.83,85.612 C322.21,86.851 331.504,106.059 333.363,113.494 C335.019,120.117 338.475,148.345 339.559,144.473 C340.743,140.242 325.181,80.909 322.83,85.612 z" fill="#FFFFFF"/>
    <path d="M325.153,224.555 C325.707,223.808 300.68,259.252 262.885,266.067 C262.885,266.067 295.269,264.828 325.153,224.555 z" fill="#FFFFFF"/>
    <path d="M359.231,73.066 C358.545,72.968 386.802,76.473 360.16,201.63 L366.826,197.293 C366.826,197.293 368.834,205.937 368.834,205.937 C368.834,205.937 373.481,197.912 373.481,197.912 L376.269,209.685 L375.96,75.854 C375.96,75.854 373.181,67.799 366.826,64.082 C366.826,64.082 375.03,76.473 374.101,94.441 C374.101,94.441 374.553,75.234 359.231,73.066 z" fill="#FFFFFF"/>
    <path d="M101.172,160.118 C99.519,159.85 115.423,160.577 113.254,153.687 C113.254,153.687 121.929,163.475 101.172,160.118 z" fill="#FFFFFF"/>
  </g>
  <g id="overlay">
    <g>
      <path d="M800,-2.059 L800,298.853 L374.19,298.853 L374.19,302 L312.151,-2.059 L800,-2.059 z" clip-path="url(#Clip_1)" filter="url(#Shadow_2)" fill="rgba(0,0,0,0.75)"/>
      <path d="M374.19,302 L312.151,-2.059 L800,-2.059 L800,298.853 L374.19,298.853 L374.19,302 z" fill="#252522"/>
    </g>
    <g>
      <path d="M74.264,-2.059 L136.303,297.94 L0,297.94 L0,-1.138 L74.264,-1.138 L74.264,-2.059 z" clip-path="url(#Clip_3)" filter="url(#Shadow_4)" fill="rgba(0,0,0,0.75)"/>
      <path d="M-0,297.941 L-0,-1.138 L74.264,-1.138 L74.264,-2.059 L136.303,297.941 L-0,297.941 z" fill="#252522"/>
    </g>
  </g>
  <g id="font" display="none">
    <text transform="matrix(1, 0, 0, 1, 545.328, 154.077)">
      <tspan x="-155.684" y="19" font-family="HelveticaNeue-UltraLight" font-size="72" fill="#FFFFFF">viscos</tspan>
    </text>
  </g>
  <g id="font_Kopieren">
    <path d="M418.228,136.069 L404.979,171.637 L404.836,171.637 L390.508,136.069 L388.852,136.069 L404.044,173.077 L405.844,173.077 L419.811,136.069 z" fill="#FFFFFF"/>
    <path d="M424.347,128.941 L424.347,121.669 L422.907,121.669 L422.907,128.941 z M424.347,173.077 L424.347,136.069 L422.907,136.069 L422.907,173.077 z" fill="#FFFFFF"/>
    <path d="M456.388,147.013 L457.827,147.013 Q457.827,140.821 454.228,138.013 Q450.628,135.205 444.435,135.205 Q440.979,135.205 438.603,136.069 Q436.228,136.933 434.715,138.301 Q433.203,139.669 432.556,141.325 Q431.908,142.981 431.908,144.493 Q431.908,147.517 432.987,149.317 Q434.068,151.117 436.371,152.125 Q437.956,152.845 439.971,153.421 Q441.987,153.997 444.651,154.645 Q447.027,155.221 449.332,155.797 Q451.635,156.373 453.4,157.345 Q455.164,158.317 456.28,159.829 Q457.396,161.341 457.396,163.789 Q457.396,166.165 456.28,167.821 Q455.164,169.477 453.435,170.521 Q451.707,171.565 449.583,172.033 Q447.46,172.501 445.444,172.501 Q438.892,172.501 435.4,169.585 Q431.908,166.669 431.908,160.405 L430.467,160.405 Q430.467,167.389 434.247,170.629 Q438.027,173.869 445.444,173.869 Q447.819,173.869 450.232,173.329 Q452.643,172.789 454.551,171.565 Q456.46,170.341 457.647,168.397 Q458.836,166.453 458.836,163.645 Q458.836,160.981 457.792,159.325 Q456.747,157.669 455.056,156.589 Q453.363,155.509 451.24,154.897 Q449.116,154.285 446.956,153.709 Q443.931,152.917 441.664,152.341 Q439.396,151.765 437.452,150.973 Q435.579,150.181 434.464,148.705 Q433.348,147.229 433.348,144.493 Q433.348,143.989 433.635,142.693 Q433.923,141.397 435.004,140.065 Q436.083,138.733 438.315,137.689 Q440.547,136.645 444.435,136.645 Q447.099,136.645 449.296,137.221 Q451.491,137.797 453.076,139.057 Q454.659,140.317 455.523,142.261 Q456.388,144.205 456.388,147.013 z" fill="#FFFFFF"/>
    <path d="M495.411,160.477 L493.971,160.477 Q493.755,163.285 492.603,165.481 Q491.452,167.677 489.615,169.261 Q487.779,170.845 485.404,171.673 Q483.027,172.501 480.292,172.501 Q476.62,172.501 473.811,171.097 Q471.003,169.693 469.132,167.317 Q467.259,164.941 466.288,161.845 Q465.315,158.749 465.315,155.365 Q465.315,152.125 466.143,148.777 Q466.971,145.429 468.807,142.729 Q470.643,140.029 473.703,138.337 Q476.763,136.645 481.155,136.645 Q483.46,136.645 485.547,137.293 Q487.635,137.941 489.292,139.273 Q490.947,140.605 492.099,142.585 Q493.251,144.565 493.684,147.301 L495.124,147.301 Q494.763,144.349 493.503,142.081 Q492.243,139.813 490.371,138.301 Q488.499,136.789 486.124,135.997 Q483.747,135.205 481.155,135.205 Q476.763,135.205 473.487,136.861 Q470.211,138.517 468.087,141.289 Q465.964,144.061 464.919,147.697 Q463.875,151.333 463.875,155.365 Q463.875,159.181 464.956,162.529 Q466.035,165.877 468.124,168.397 Q470.211,170.917 473.271,172.393 Q476.331,173.869 480.292,173.869 Q483.46,173.869 486.087,172.933 Q488.715,171.997 490.695,170.269 Q492.676,168.541 493.9,166.057 Q495.124,163.573 495.411,160.477 z" fill="#FFFFFF"/>
    <path d="M501.099,154.573 Q501.099,151.117 502.071,147.877 Q503.043,144.637 504.987,142.153 Q506.931,139.669 509.775,138.157 Q512.619,136.645 516.363,136.645 Q520.035,136.645 522.879,138.157 Q525.723,139.669 527.667,142.153 Q529.611,144.637 530.583,147.877 Q531.555,151.117 531.555,154.573 Q531.555,158.101 530.583,161.341 Q529.611,164.581 527.667,167.065 Q525.723,169.549 522.879,171.025 Q520.035,172.501 516.363,172.501 Q512.619,172.501 509.775,171.025 Q506.931,169.549 504.987,167.065 Q503.043,164.581 502.071,161.341 Q501.099,158.101 501.099,154.573 z M499.659,154.573 Q499.659,158.389 500.739,161.881 Q501.819,165.373 503.943,168.037 Q506.067,170.701 509.163,172.285 Q512.259,173.869 516.291,173.869 Q520.395,173.869 523.491,172.285 Q526.587,170.701 528.711,168.037 Q530.835,165.373 531.915,161.881 Q532.995,158.389 532.995,154.573 Q532.995,150.757 531.915,147.265 Q530.835,143.773 528.711,141.109 Q526.587,138.445 523.491,136.825 Q520.395,135.205 516.363,135.205 Q512.259,135.205 509.163,136.825 Q506.067,138.445 503.943,141.109 Q501.819,143.773 500.739,147.265 Q499.659,150.757 499.659,154.573 z" fill="#FFFFFF"/>
    <path d="M563.091,147.013 L564.531,147.013 Q564.531,140.821 560.932,138.013 Q557.332,135.205 551.14,135.205 Q547.684,135.205 545.307,136.069 Q542.932,136.933 541.419,138.301 Q539.908,139.669 539.26,141.325 Q538.612,142.981 538.612,144.493 Q538.612,147.517 539.692,149.317 Q540.772,151.117 543.076,152.125 Q544.66,152.845 546.676,153.421 Q548.692,153.997 551.356,154.645 Q553.732,155.221 556.036,155.797 Q558.34,156.373 560.104,157.345 Q561.867,158.317 562.984,159.829 Q564.1,161.341 564.1,163.789 Q564.1,166.165 562.984,167.821 Q561.867,169.477 560.14,170.521 Q558.411,171.565 556.288,172.033 Q554.164,172.501 552.148,172.501 Q545.596,172.501 542.104,169.585 Q538.612,166.669 538.612,160.405 L537.172,160.405 Q537.172,167.389 540.952,170.629 Q544.732,173.869 552.148,173.869 Q554.523,173.869 556.936,173.329 Q559.348,172.789 561.255,171.565 Q563.164,170.341 564.352,168.397 Q565.539,166.453 565.539,163.645 Q565.539,160.981 564.496,159.325 Q563.452,157.669 561.76,156.589 Q560.068,155.509 557.944,154.897 Q555.82,154.285 553.66,153.709 Q550.635,152.917 548.367,152.341 Q546.1,151.765 544.156,150.973 Q542.284,150.181 541.168,148.705 Q540.052,147.229 540.052,144.493 Q540.052,143.989 540.34,142.693 Q540.628,141.397 541.708,140.065 Q542.788,138.733 545.02,137.689 Q547.252,136.645 551.14,136.645 Q553.804,136.645 556,137.221 Q558.195,137.797 559.78,139.057 Q561.364,140.317 562.228,142.261 Q563.091,144.205 563.091,147.013 z" fill="#FFFFFF"/>
  </g>
  <g id="rahm">
    <path d="M800,-2.059 L800,300 L0,300 L0,-2.059 L800,-2.059 z M796,1.941 L4,1.941 L4,296 L796,296 L796,1.941 z" fill="#252522"/>
  </g>
</svg>
